<svg xmlns="http://www.w3.org/2000/svg">
<defs>
<font id="Gilam-Trial-Bold" horiz-adv-x="314" >
  <font-face 
    font-family="Gilam-Trial"
    font-weight="700"
    font-stretch="normal"
    units-per-em="1000"
    panose-1="0 0 0 0 0 0 0 0 0 0"
    ascent="800"
    descent="-200"
    x-height="514"
    cap-height="707"
    bbox="-78 -201 1110 917"
    underline-thickness="0"
    underline-position="0"
    unicode-range="U+0020-F8FF"
  />
<missing-glyph horiz-adv-x="305" 
d="M200 -86.5q-5 10.5 -14.5 17.5t-21.5 9v-23q6 -1 11 -5t7.5 -9.5t2.5 -11.5q0 -8 -4.5 -15t-12 -11t-15.5 -4q-9 0 -16.5 4t-11.5 11t-4 15q0 6 2.5 11.5t6.5 9.5t10 5v22q-12 -2 -21 -9t-14 -17t-5 -22q0 -15 7 -27t19 -19t27 -7t27 7t18.5 19t6.5 27q0 12 -5 22.5z
M107 -24q7 -12 19 -19t27 -7t27 7t18.5 19t6.5 27t-6.5 27.5t-18.5 19.5t-27 7t-27 -7t-19 -19.5t-7 -27.5t7 -27zM107 378q7 -12 19 -19t27 -7t26.5 7t18.5 19t7 26q0 13 -5 23.5t-14.5 17t-21.5 9.5v-23q6 -1 11 -5t7.5 -9.5t2.5 -12.5q0 -8 -4.5 -15t-12 -11t-15.5 -4
q-9 0 -16.5 4t-11.5 11t-4 15q0 6 2 11.5t6.5 9.5t10.5 6v23q-12 -2 -21 -9.5t-14 -18t-5 -22.5q0 -14 7 -26zM103.5 700q3.5 -8 10.5 -12.5t17 -4.5t16 5t9 13t5 16q1 5 2.5 9.5t3.5 7t6 2.5t6.5 -2t4 -6t1.5 -8t-1.5 -8t-5 -6t-8.5 -2v-23q11 0 19 5t12 13.5t4 20.5
q0 11 -3.5 20t-11 14t-18.5 5q-10 0 -16 -5t-9.5 -13.5t-5.5 -16.5q-1 -5 -2.5 -10t-3.5 -7.5t-6 -2.5q-3 0 -5 2.5t-3 6t-1 7.5t1.5 7.5t4.5 5.5t7 2v21q-10 0 -17.5 -4t-11.5 -12.5t-4 -19.5q0 -12 3.5 -20zM203 75v21h-63l63 46v18h-101v-21h62l-62 -44v-20h101zM123 174
v30h80v21h-80v28h-21v-79h21zM203 248v23l-18 7v40l18 8v23l-101 -41v-21zM123 459v28h80v23h-80v27h-21v-78h21zM165 581q11 0 20.5 5.5t14.5 15.5t5 22q0 11 -5 20.5t-14.5 15t-20.5 5.5h-63v-22h62q6 0 11 -2.5t7.5 -7t2.5 -9.5q0 -6 -2.5 -11t-7.5 -7.5t-11 -2.5h-62
v-22h63zM125 19.5q4 7.5 11.5 11.5t16.5 4q8 0 15.5 -4.5t12 -11.5t4.5 -16q0 -8 -4.5 -15.5t-12 -12t-15.5 -4.5q-9 0 -16 4.5t-11.5 12t-4.5 15.5q0 9 4 16.5zM165 312v-28l-37 14z" />
    <glyph glyph-name="f_f" unicode="ff" 
d="M125 -116h86v-24h-86v-30h-22v84h22v-30zM107.5 409.5q7.5 -13.5 20.5 -21t29 -7.5t29 7.5t20.5 21t7.5 29.5t-7.5 29.5t-20.5 21t-29 7.5t-29 -7.5t-20.5 -21t-7.5 -29.5t7.5 -29.5zM211 -70v23h-37v16l37 21v26l-41 -24q-3 6 -7.5 10.5t-10.5 7t-13 2.5q-10 0 -18.5 -5
t-13 -13.5t-4.5 -19.5v-44h108zM103 56h108v-24h-108v24zM211 70v25l-20 7v43l20 8v26l-108 -44v-23zM211 192v66h-21v-42h-87v-24h108zM211 306v23h-41v38h-22v-38h-23v42h-22v-65h108zM211 515v23h-68l68 50v19h-108v-23h66l-66 -47v-22h108zM125 623v30h86v24h-86v30h-22
v-84h22zM127.5 456.5q4.5 7.5 12 12t17.5 4.5t18 -4.5t12.5 -12t4.5 -17.5q0 -9 -4.5 -17t-12.5 -12.5t-18 -4.5t-17.5 4.5t-12 12.5t-4.5 17q0 10 4.5 17.5zM124 -28q0 5 2 8.5t5 5.5t7 2t7.5 -2t5.5 -5.5t2 -8.5v-19h-29v19zM170 138v-28l-39 14z" />
    <glyph glyph-name="f_i" unicode="fi" 
d="M125 -116h86v-24h-86v-30h-22v84h22v-30zM107.5 409.5q7.5 -13.5 20.5 -21t29 -7.5t29 7.5t20.5 21t7.5 29.5t-7.5 29.5t-20.5 21t-29 7.5t-29 -7.5t-20.5 -21t-7.5 -29.5t7.5 -29.5zM211 -70v23h-37v16l37 21v26l-41 -24q-3 6 -7.5 10.5t-10.5 7t-13 2.5q-10 0 -18.5 -5
t-13 -13.5t-4.5 -19.5v-44h108zM103 56h108v-24h-108v24zM211 70v25l-20 7v43l20 8v26l-108 -44v-23zM211 192v66h-21v-42h-87v-24h108zM211 306v23h-41v38h-22v-38h-23v42h-22v-65h108zM211 515v23h-68l68 50v19h-108v-23h66l-66 -47v-22h108zM125 623v30h86v24h-86v30h-22
v-84h22zM127.5 456.5q4.5 7.5 12 12t17.5 4.5t18 -4.5t12.5 -12t4.5 -17.5q0 -9 -4.5 -17t-12.5 -12.5t-18 -4.5t-17.5 4.5t-12 12.5t-4.5 17q0 10 4.5 17.5zM124 -28q0 5 2 8.5t5 5.5t7 2t7.5 -2t5.5 -5.5t2 -8.5v-19h-29v19zM170 138v-28l-39 14z" />
    <glyph glyph-name="f_j" unicode="fj" 
d="M125 -116h86v-24h-86v-30h-22v84h22v-30zM107.5 409.5q7.5 -13.5 20.5 -21t29 -7.5t29 7.5t20.5 21t7.5 29.5t-7.5 29.5t-20.5 21t-29 7.5t-29 -7.5t-20.5 -21t-7.5 -29.5t7.5 -29.5zM211 -70v23h-37v16l37 21v26l-41 -24q-3 6 -7.5 10.5t-10.5 7t-13 2.5q-10 0 -18.5 -5
t-13 -13.5t-4.5 -19.5v-44h108zM103 56h108v-24h-108v24zM211 70v25l-20 7v43l20 8v26l-108 -44v-23zM211 192v66h-21v-42h-87v-24h108zM211 306v23h-41v38h-22v-38h-23v42h-22v-65h108zM211 515v23h-68l68 50v19h-108v-23h66l-66 -47v-22h108zM125 623v30h86v24h-86v30h-22
v-84h22zM127.5 456.5q4.5 7.5 12 12t17.5 4.5t18 -4.5t12.5 -12t4.5 -17.5q0 -9 -4.5 -17t-12.5 -12.5t-18 -4.5t-17.5 4.5t-12 12.5t-4.5 17q0 10 4.5 17.5zM124 -28q0 5 2 8.5t5 5.5t7 2t7.5 -2t5.5 -5.5t2 -8.5v-19h-29v19zM170 138v-28l-39 14z" />
    <glyph glyph-name=".notdef" horiz-adv-x="305" 
d="M200 -86.5q-5 10.5 -14.5 17.5t-21.5 9v-23q6 -1 11 -5t7.5 -9.5t2.5 -11.5q0 -8 -4.5 -15t-12 -11t-15.5 -4q-9 0 -16.5 4t-11.5 11t-4 15q0 6 2.5 11.5t6.5 9.5t10 5v22q-12 -2 -21 -9t-14 -17t-5 -22q0 -15 7 -27t19 -19t27 -7t27 7t18.5 19t6.5 27q0 12 -5 22.5z
M107 -24q7 -12 19 -19t27 -7t27 7t18.5 19t6.5 27t-6.5 27.5t-18.5 19.5t-27 7t-27 -7t-19 -19.5t-7 -27.5t7 -27zM107 378q7 -12 19 -19t27 -7t26.5 7t18.5 19t7 26q0 13 -5 23.5t-14.5 17t-21.5 9.5v-23q6 -1 11 -5t7.5 -9.5t2.5 -12.5q0 -8 -4.5 -15t-12 -11t-15.5 -4
q-9 0 -16.5 4t-11.5 11t-4 15q0 6 2 11.5t6.5 9.5t10.5 6v23q-12 -2 -21 -9.5t-14 -18t-5 -22.5q0 -14 7 -26zM103.5 700q3.5 -8 10.5 -12.5t17 -4.5t16 5t9 13t5 16q1 5 2.5 9.5t3.5 7t6 2.5t6.5 -2t4 -6t1.5 -8t-1.5 -8t-5 -6t-8.5 -2v-23q11 0 19 5t12 13.5t4 20.5
q0 11 -3.5 20t-11 14t-18.5 5q-10 0 -16 -5t-9.5 -13.5t-5.5 -16.5q-1 -5 -2.5 -10t-3.5 -7.5t-6 -2.5q-3 0 -5 2.5t-3 6t-1 7.5t1.5 7.5t4.5 5.5t7 2v21q-10 0 -17.5 -4t-11.5 -12.5t-4 -19.5q0 -12 3.5 -20zM203 75v21h-63l63 46v18h-101v-21h62l-62 -44v-20h101zM123 174
v30h80v21h-80v28h-21v-79h21zM203 248v23l-18 7v40l18 8v23l-101 -41v-21zM123 459v28h80v23h-80v27h-21v-78h21zM165 581q11 0 20.5 5.5t14.5 15.5t5 22q0 11 -5 20.5t-14.5 15t-20.5 5.5h-63v-22h62q6 0 11 -2.5t7.5 -7t2.5 -9.5q0 -6 -2.5 -11t-7.5 -7.5t-11 -2.5h-62
v-22h63zM125 19.5q4 7.5 11.5 11.5t16.5 4q8 0 15.5 -4.5t12 -11.5t4.5 -16q0 -8 -4.5 -15.5t-12 -12t-15.5 -4.5q-9 0 -16 4.5t-11.5 12t-4.5 15.5q0 9 4 16.5zM165 312v-28l-37 14z" />
    <glyph glyph-name="space" unicode=" " horiz-adv-x="211" 
 />
    <glyph glyph-name="A" unicode="A" horiz-adv-x="680" 
d="M256 700h167l257 -700h-178l-43 136h-242l-44 -136h-174zM417 267l-80 248l-79 -248h159z" />
    <glyph glyph-name="Aacute" unicode="&#xc1;" 
d="M125 -116h86v-24h-86v-30h-22v84h22v-30zM107.5 409.5q7.5 -13.5 20.5 -21t29 -7.5t29 7.5t20.5 21t7.5 29.5t-7.5 29.5t-20.5 21t-29 7.5t-29 -7.5t-20.5 -21t-7.5 -29.5t7.5 -29.5zM211 -70v23h-37v16l37 21v26l-41 -24q-3 6 -7.5 10.5t-10.5 7t-13 2.5q-10 0 -18.5 -5
t-13 -13.5t-4.5 -19.5v-44h108zM103 56h108v-24h-108v24zM211 70v25l-20 7v43l20 8v26l-108 -44v-23zM211 192v66h-21v-42h-87v-24h108zM211 306v23h-41v38h-22v-38h-23v42h-22v-65h108zM211 515v23h-68l68 50v19h-108v-23h66l-66 -47v-22h108zM125 623v30h86v24h-86v30h-22
v-84h22zM127.5 456.5q4.5 7.5 12 12t17.5 4.5t18 -4.5t12.5 -12t4.5 -17.5q0 -9 -4.5 -17t-12.5 -12.5t-18 -4.5t-17.5 4.5t-12 12.5t-4.5 17q0 10 4.5 17.5zM124 -28q0 5 2 8.5t5 5.5t7 2t7.5 -2t5.5 -5.5t2 -8.5v-19h-29v19zM170 138v-28l-39 14z" />
    <glyph glyph-name="Abreve" unicode="&#x102;" 
d="M125 -116h86v-24h-86v-30h-22v84h22v-30zM107.5 409.5q7.5 -13.5 20.5 -21t29 -7.5t29 7.5t20.5 21t7.5 29.5t-7.5 29.5t-20.5 21t-29 7.5t-29 -7.5t-20.5 -21t-7.5 -29.5t7.5 -29.5zM211 -70v23h-37v16l37 21v26l-41 -24q-3 6 -7.5 10.5t-10.5 7t-13 2.5q-10 0 -18.5 -5
t-13 -13.5t-4.5 -19.5v-44h108zM103 56h108v-24h-108v24zM211 70v25l-20 7v43l20 8v26l-108 -44v-23zM211 192v66h-21v-42h-87v-24h108zM211 306v23h-41v38h-22v-38h-23v42h-22v-65h108zM211 515v23h-68l68 50v19h-108v-23h66l-66 -47v-22h108zM125 623v30h86v24h-86v30h-22
v-84h22zM127.5 456.5q4.5 7.5 12 12t17.5 4.5t18 -4.5t12.5 -12t4.5 -17.5q0 -9 -4.5 -17t-12.5 -12.5t-18 -4.5t-17.5 4.5t-12 12.5t-4.5 17q0 10 4.5 17.5zM124 -28q0 5 2 8.5t5 5.5t7 2t7.5 -2t5.5 -5.5t2 -8.5v-19h-29v19zM170 138v-28l-39 14z" />
    <glyph glyph-name="Acircumflex" unicode="&#xc2;" 
d="M125 -116h86v-24h-86v-30h-22v84h22v-30zM107.5 409.5q7.5 -13.5 20.5 -21t29 -7.5t29 7.5t20.5 21t7.5 29.5t-7.5 29.5t-20.5 21t-29 7.5t-29 -7.5t-20.5 -21t-7.5 -29.5t7.5 -29.5zM211 -70v23h-37v16l37 21v26l-41 -24q-3 6 -7.5 10.5t-10.5 7t-13 2.5q-10 0 -18.5 -5
t-13 -13.5t-4.5 -19.5v-44h108zM103 56h108v-24h-108v24zM211 70v25l-20 7v43l20 8v26l-108 -44v-23zM211 192v66h-21v-42h-87v-24h108zM211 306v23h-41v38h-22v-38h-23v42h-22v-65h108zM211 515v23h-68l68 50v19h-108v-23h66l-66 -47v-22h108zM125 623v30h86v24h-86v30h-22
v-84h22zM127.5 456.5q4.5 7.5 12 12t17.5 4.5t18 -4.5t12.5 -12t4.5 -17.5q0 -9 -4.5 -17t-12.5 -12.5t-18 -4.5t-17.5 4.5t-12 12.5t-4.5 17q0 10 4.5 17.5zM124 -28q0 5 2 8.5t5 5.5t7 2t7.5 -2t5.5 -5.5t2 -8.5v-19h-29v19zM170 138v-28l-39 14z" />
    <glyph glyph-name="Adieresis" unicode="&#xc4;" 
d="M125 -116h86v-24h-86v-30h-22v84h22v-30zM107.5 409.5q7.5 -13.5 20.5 -21t29 -7.5t29 7.5t20.5 21t7.5 29.5t-7.5 29.5t-20.5 21t-29 7.5t-29 -7.5t-20.5 -21t-7.5 -29.5t7.5 -29.5zM211 -70v23h-37v16l37 21v26l-41 -24q-3 6 -7.5 10.5t-10.5 7t-13 2.5q-10 0 -18.5 -5
t-13 -13.5t-4.5 -19.5v-44h108zM103 56h108v-24h-108v24zM211 70v25l-20 7v43l20 8v26l-108 -44v-23zM211 192v66h-21v-42h-87v-24h108zM211 306v23h-41v38h-22v-38h-23v42h-22v-65h108zM211 515v23h-68l68 50v19h-108v-23h66l-66 -47v-22h108zM125 623v30h86v24h-86v30h-22
v-84h22zM127.5 456.5q4.5 7.5 12 12t17.5 4.5t18 -4.5t12.5 -12t4.5 -17.5q0 -9 -4.5 -17t-12.5 -12.5t-18 -4.5t-17.5 4.5t-12 12.5t-4.5 17q0 10 4.5 17.5zM124 -28q0 5 2 8.5t5 5.5t7 2t7.5 -2t5.5 -5.5t2 -8.5v-19h-29v19zM170 138v-28l-39 14z" />
    <glyph glyph-name="Agrave" unicode="&#xc0;" 
d="M125 -116h86v-24h-86v-30h-22v84h22v-30zM107.5 409.5q7.5 -13.5 20.5 -21t29 -7.5t29 7.5t20.5 21t7.5 29.5t-7.5 29.5t-20.5 21t-29 7.5t-29 -7.5t-20.5 -21t-7.5 -29.5t7.5 -29.5zM211 -70v23h-37v16l37 21v26l-41 -24q-3 6 -7.5 10.5t-10.5 7t-13 2.5q-10 0 -18.5 -5
t-13 -13.5t-4.5 -19.5v-44h108zM103 56h108v-24h-108v24zM211 70v25l-20 7v43l20 8v26l-108 -44v-23zM211 192v66h-21v-42h-87v-24h108zM211 306v23h-41v38h-22v-38h-23v42h-22v-65h108zM211 515v23h-68l68 50v19h-108v-23h66l-66 -47v-22h108zM125 623v30h86v24h-86v30h-22
v-84h22zM127.5 456.5q4.5 7.5 12 12t17.5 4.5t18 -4.5t12.5 -12t4.5 -17.5q0 -9 -4.5 -17t-12.5 -12.5t-18 -4.5t-17.5 4.5t-12 12.5t-4.5 17q0 10 4.5 17.5zM124 -28q0 5 2 8.5t5 5.5t7 2t7.5 -2t5.5 -5.5t2 -8.5v-19h-29v19zM170 138v-28l-39 14z" />
    <glyph glyph-name="Amacron" unicode="&#x100;" 
d="M125 -116h86v-24h-86v-30h-22v84h22v-30zM107.5 409.5q7.5 -13.5 20.5 -21t29 -7.5t29 7.5t20.5 21t7.5 29.5t-7.5 29.5t-20.5 21t-29 7.5t-29 -7.5t-20.5 -21t-7.5 -29.5t7.5 -29.5zM211 -70v23h-37v16l37 21v26l-41 -24q-3 6 -7.5 10.5t-10.5 7t-13 2.5q-10 0 -18.5 -5
t-13 -13.5t-4.5 -19.5v-44h108zM103 56h108v-24h-108v24zM211 70v25l-20 7v43l20 8v26l-108 -44v-23zM211 192v66h-21v-42h-87v-24h108zM211 306v23h-41v38h-22v-38h-23v42h-22v-65h108zM211 515v23h-68l68 50v19h-108v-23h66l-66 -47v-22h108zM125 623v30h86v24h-86v30h-22
v-84h22zM127.5 456.5q4.5 7.5 12 12t17.5 4.5t18 -4.5t12.5 -12t4.5 -17.5q0 -9 -4.5 -17t-12.5 -12.5t-18 -4.5t-17.5 4.5t-12 12.5t-4.5 17q0 10 4.5 17.5zM124 -28q0 5 2 8.5t5 5.5t7 2t7.5 -2t5.5 -5.5t2 -8.5v-19h-29v19zM170 138v-28l-39 14z" />
    <glyph glyph-name="Aogonek" unicode="&#x104;" 
d="M125 -116h86v-24h-86v-30h-22v84h22v-30zM107.5 409.5q7.5 -13.5 20.5 -21t29 -7.5t29 7.5t20.5 21t7.5 29.5t-7.5 29.5t-20.5 21t-29 7.5t-29 -7.5t-20.5 -21t-7.5 -29.5t7.5 -29.5zM211 -70v23h-37v16l37 21v26l-41 -24q-3 6 -7.5 10.5t-10.5 7t-13 2.5q-10 0 -18.5 -5
t-13 -13.5t-4.5 -19.5v-44h108zM103 56h108v-24h-108v24zM211 70v25l-20 7v43l20 8v26l-108 -44v-23zM211 192v66h-21v-42h-87v-24h108zM211 306v23h-41v38h-22v-38h-23v42h-22v-65h108zM211 515v23h-68l68 50v19h-108v-23h66l-66 -47v-22h108zM125 623v30h86v24h-86v30h-22
v-84h22zM127.5 456.5q4.5 7.5 12 12t17.5 4.5t18 -4.5t12.5 -12t4.5 -17.5q0 -9 -4.5 -17t-12.5 -12.5t-18 -4.5t-17.5 4.5t-12 12.5t-4.5 17q0 10 4.5 17.5zM124 -28q0 5 2 8.5t5 5.5t7 2t7.5 -2t5.5 -5.5t2 -8.5v-19h-29v19zM170 138v-28l-39 14z" />
    <glyph glyph-name="Aring" unicode="&#xc5;" 
d="M125 -116h86v-24h-86v-30h-22v84h22v-30zM107.5 409.5q7.5 -13.5 20.5 -21t29 -7.5t29 7.5t20.5 21t7.5 29.5t-7.5 29.5t-20.5 21t-29 7.5t-29 -7.5t-20.5 -21t-7.5 -29.5t7.5 -29.5zM211 -70v23h-37v16l37 21v26l-41 -24q-3 6 -7.5 10.5t-10.5 7t-13 2.5q-10 0 -18.5 -5
t-13 -13.5t-4.5 -19.5v-44h108zM103 56h108v-24h-108v24zM211 70v25l-20 7v43l20 8v26l-108 -44v-23zM211 192v66h-21v-42h-87v-24h108zM211 306v23h-41v38h-22v-38h-23v42h-22v-65h108zM211 515v23h-68l68 50v19h-108v-23h66l-66 -47v-22h108zM125 623v30h86v24h-86v30h-22
v-84h22zM127.5 456.5q4.5 7.5 12 12t17.5 4.5t18 -4.5t12.5 -12t4.5 -17.5q0 -9 -4.5 -17t-12.5 -12.5t-18 -4.5t-17.5 4.5t-12 12.5t-4.5 17q0 10 4.5 17.5zM124 -28q0 5 2 8.5t5 5.5t7 2t7.5 -2t5.5 -5.5t2 -8.5v-19h-29v19zM170 138v-28l-39 14z" />
    <glyph glyph-name="Aringacute" unicode="&#x1fa;" 
d="M125 -116h86v-24h-86v-30h-22v84h22v-30zM107.5 409.5q7.5 -13.5 20.5 -21t29 -7.5t29 7.5t20.5 21t7.5 29.5t-7.5 29.5t-20.5 21t-29 7.5t-29 -7.5t-20.5 -21t-7.5 -29.5t7.5 -29.5zM211 -70v23h-37v16l37 21v26l-41 -24q-3 6 -7.5 10.5t-10.5 7t-13 2.5q-10 0 -18.5 -5
t-13 -13.5t-4.5 -19.5v-44h108zM103 56h108v-24h-108v24zM211 70v25l-20 7v43l20 8v26l-108 -44v-23zM211 192v66h-21v-42h-87v-24h108zM211 306v23h-41v38h-22v-38h-23v42h-22v-65h108zM211 515v23h-68l68 50v19h-108v-23h66l-66 -47v-22h108zM125 623v30h86v24h-86v30h-22
v-84h22zM127.5 456.5q4.5 7.5 12 12t17.5 4.5t18 -4.5t12.5 -12t4.5 -17.5q0 -9 -4.5 -17t-12.5 -12.5t-18 -4.5t-17.5 4.5t-12 12.5t-4.5 17q0 10 4.5 17.5zM124 -28q0 5 2 8.5t5 5.5t7 2t7.5 -2t5.5 -5.5t2 -8.5v-19h-29v19zM170 138v-28l-39 14z" />
    <glyph glyph-name="Atilde" unicode="&#xc3;" 
d="M125 -116h86v-24h-86v-30h-22v84h22v-30zM107.5 409.5q7.5 -13.5 20.5 -21t29 -7.5t29 7.5t20.5 21t7.5 29.5t-7.5 29.5t-20.5 21t-29 7.5t-29 -7.5t-20.5 -21t-7.5 -29.5t7.5 -29.5zM211 -70v23h-37v16l37 21v26l-41 -24q-3 6 -7.5 10.5t-10.5 7t-13 2.5q-10 0 -18.5 -5
t-13 -13.5t-4.5 -19.5v-44h108zM103 56h108v-24h-108v24zM211 70v25l-20 7v43l20 8v26l-108 -44v-23zM211 192v66h-21v-42h-87v-24h108zM211 306v23h-41v38h-22v-38h-23v42h-22v-65h108zM211 515v23h-68l68 50v19h-108v-23h66l-66 -47v-22h108zM125 623v30h86v24h-86v30h-22
v-84h22zM127.5 456.5q4.5 7.5 12 12t17.5 4.5t18 -4.5t12.5 -12t4.5 -17.5q0 -9 -4.5 -17t-12.5 -12.5t-18 -4.5t-17.5 4.5t-12 12.5t-4.5 17q0 10 4.5 17.5zM124 -28q0 5 2 8.5t5 5.5t7 2t7.5 -2t5.5 -5.5t2 -8.5v-19h-29v19zM170 138v-28l-39 14z" />
    <glyph glyph-name="AE" unicode="&#xc6;" 
d="M125 -116h86v-24h-86v-30h-22v84h22v-30zM107.5 409.5q7.5 -13.5 20.5 -21t29 -7.5t29 7.5t20.5 21t7.5 29.5t-7.5 29.5t-20.5 21t-29 7.5t-29 -7.5t-20.5 -21t-7.5 -29.5t7.5 -29.5zM211 -70v23h-37v16l37 21v26l-41 -24q-3 6 -7.5 10.5t-10.5 7t-13 2.5q-10 0 -18.5 -5
t-13 -13.5t-4.5 -19.5v-44h108zM103 56h108v-24h-108v24zM211 70v25l-20 7v43l20 8v26l-108 -44v-23zM211 192v66h-21v-42h-87v-24h108zM211 306v23h-41v38h-22v-38h-23v42h-22v-65h108zM211 515v23h-68l68 50v19h-108v-23h66l-66 -47v-22h108zM125 623v30h86v24h-86v30h-22
v-84h22zM127.5 456.5q4.5 7.5 12 12t17.5 4.5t18 -4.5t12.5 -12t4.5 -17.5q0 -9 -4.5 -17t-12.5 -12.5t-18 -4.5t-17.5 4.5t-12 12.5t-4.5 17q0 10 4.5 17.5zM124 -28q0 5 2 8.5t5 5.5t7 2t7.5 -2t5.5 -5.5t2 -8.5v-19h-29v19zM170 138v-28l-39 14z" />
    <glyph glyph-name="AEacute" unicode="&#x1fc;" 
d="M125 -116h86v-24h-86v-30h-22v84h22v-30zM107.5 409.5q7.5 -13.5 20.5 -21t29 -7.5t29 7.5t20.5 21t7.5 29.5t-7.5 29.5t-20.5 21t-29 7.5t-29 -7.5t-20.5 -21t-7.5 -29.5t7.5 -29.5zM211 -70v23h-37v16l37 21v26l-41 -24q-3 6 -7.5 10.5t-10.5 7t-13 2.5q-10 0 -18.5 -5
t-13 -13.5t-4.5 -19.5v-44h108zM103 56h108v-24h-108v24zM211 70v25l-20 7v43l20 8v26l-108 -44v-23zM211 192v66h-21v-42h-87v-24h108zM211 306v23h-41v38h-22v-38h-23v42h-22v-65h108zM211 515v23h-68l68 50v19h-108v-23h66l-66 -47v-22h108zM125 623v30h86v24h-86v30h-22
v-84h22zM127.5 456.5q4.5 7.5 12 12t17.5 4.5t18 -4.5t12.5 -12t4.5 -17.5q0 -9 -4.5 -17t-12.5 -12.5t-18 -4.5t-17.5 4.5t-12 12.5t-4.5 17q0 10 4.5 17.5zM124 -28q0 5 2 8.5t5 5.5t7 2t7.5 -2t5.5 -5.5t2 -8.5v-19h-29v19zM170 138v-28l-39 14z" />
    <glyph glyph-name="B" unicode="B" horiz-adv-x="663" 
d="M71 700h296q81 0 133.5 -21t78.5 -63t26 -106q0 -33 -8 -61t-24.5 -50t-41.5 -37q32 -14 53 -38t30.5 -55.5t9.5 -71.5q0 -65 -27 -109t-81.5 -66t-137.5 -22h-307v700zM364 132q31 0 51 8t30 26t10 46q0 27 -10 44t-30.5 25t-50.5 8h-124v-157h124zM356 417q28 0 46.5 8
t27.5 24.5t9 42.5q0 27 -9 43.5t-27.5 24.5t-46.5 8h-116v-151h116z" />
    <glyph glyph-name="C" unicode="C" horiz-adv-x="567" 
d="M175 24q-68 40 -102 121t-34 205t34 205t102 121t172 40q33 0 65.5 -5.5t59 -14t43.5 -16.5l9 -150q-16 9 -40.5 18t-54 14.5t-59.5 5.5q-56 0 -90.5 -21.5t-51 -69.5t-16.5 -127t16.5 -127t51 -69.5t90.5 -21.5q32 0 64 6.5t58.5 15.5t45.5 19l-23 -155q-17 -8 -43 -16
t-59 -13t-66 -5q-104 0 -172 40z" />
    <glyph glyph-name="Cacute" unicode="&#x106;" 
d="M125 -116h86v-24h-86v-30h-22v84h22v-30zM107.5 409.5q7.5 -13.5 20.5 -21t29 -7.5t29 7.5t20.5 21t7.5 29.5t-7.5 29.5t-20.5 21t-29 7.5t-29 -7.5t-20.5 -21t-7.5 -29.5t7.5 -29.5zM211 -70v23h-37v16l37 21v26l-41 -24q-3 6 -7.5 10.5t-10.5 7t-13 2.5q-10 0 -18.5 -5
t-13 -13.5t-4.5 -19.5v-44h108zM103 56h108v-24h-108v24zM211 70v25l-20 7v43l20 8v26l-108 -44v-23zM211 192v66h-21v-42h-87v-24h108zM211 306v23h-41v38h-22v-38h-23v42h-22v-65h108zM211 515v23h-68l68 50v19h-108v-23h66l-66 -47v-22h108zM125 623v30h86v24h-86v30h-22
v-84h22zM127.5 456.5q4.5 7.5 12 12t17.5 4.5t18 -4.5t12.5 -12t4.5 -17.5q0 -9 -4.5 -17t-12.5 -12.5t-18 -4.5t-17.5 4.5t-12 12.5t-4.5 17q0 10 4.5 17.5zM124 -28q0 5 2 8.5t5 5.5t7 2t7.5 -2t5.5 -5.5t2 -8.5v-19h-29v19zM170 138v-28l-39 14z" />
    <glyph glyph-name="Ccaron" unicode="&#x10c;" 
d="M125 -116h86v-24h-86v-30h-22v84h22v-30zM107.5 409.5q7.5 -13.5 20.5 -21t29 -7.5t29 7.5t20.5 21t7.5 29.5t-7.5 29.5t-20.5 21t-29 7.5t-29 -7.5t-20.5 -21t-7.5 -29.5t7.5 -29.5zM211 -70v23h-37v16l37 21v26l-41 -24q-3 6 -7.5 10.5t-10.5 7t-13 2.5q-10 0 -18.5 -5
t-13 -13.5t-4.5 -19.5v-44h108zM103 56h108v-24h-108v24zM211 70v25l-20 7v43l20 8v26l-108 -44v-23zM211 192v66h-21v-42h-87v-24h108zM211 306v23h-41v38h-22v-38h-23v42h-22v-65h108zM211 515v23h-68l68 50v19h-108v-23h66l-66 -47v-22h108zM125 623v30h86v24h-86v30h-22
v-84h22zM127.5 456.5q4.5 7.5 12 12t17.5 4.5t18 -4.5t12.5 -12t4.5 -17.5q0 -9 -4.5 -17t-12.5 -12.5t-18 -4.5t-17.5 4.5t-12 12.5t-4.5 17q0 10 4.5 17.5zM124 -28q0 5 2 8.5t5 5.5t7 2t7.5 -2t5.5 -5.5t2 -8.5v-19h-29v19zM170 138v-28l-39 14z" />
    <glyph glyph-name="Ccedilla" unicode="&#xc7;" 
d="M125 -116h86v-24h-86v-30h-22v84h22v-30zM107.5 409.5q7.5 -13.5 20.5 -21t29 -7.5t29 7.5t20.5 21t7.5 29.5t-7.5 29.5t-20.5 21t-29 7.5t-29 -7.5t-20.5 -21t-7.5 -29.5t7.5 -29.5zM211 -70v23h-37v16l37 21v26l-41 -24q-3 6 -7.5 10.5t-10.5 7t-13 2.5q-10 0 -18.5 -5
t-13 -13.5t-4.5 -19.5v-44h108zM103 56h108v-24h-108v24zM211 70v25l-20 7v43l20 8v26l-108 -44v-23zM211 192v66h-21v-42h-87v-24h108zM211 306v23h-41v38h-22v-38h-23v42h-22v-65h108zM211 515v23h-68l68 50v19h-108v-23h66l-66 -47v-22h108zM125 623v30h86v24h-86v30h-22
v-84h22zM127.5 456.5q4.5 7.5 12 12t17.5 4.5t18 -4.5t12.5 -12t4.5 -17.5q0 -9 -4.5 -17t-12.5 -12.5t-18 -4.5t-17.5 4.5t-12 12.5t-4.5 17q0 10 4.5 17.5zM124 -28q0 5 2 8.5t5 5.5t7 2t7.5 -2t5.5 -5.5t2 -8.5v-19h-29v19zM170 138v-28l-39 14z" />
    <glyph glyph-name="Ccircumflex" unicode="&#x108;" 
d="M125 -116h86v-24h-86v-30h-22v84h22v-30zM107.5 409.5q7.5 -13.5 20.5 -21t29 -7.5t29 7.5t20.5 21t7.5 29.5t-7.5 29.5t-20.5 21t-29 7.5t-29 -7.5t-20.5 -21t-7.5 -29.5t7.5 -29.5zM211 -70v23h-37v16l37 21v26l-41 -24q-3 6 -7.5 10.5t-10.5 7t-13 2.5q-10 0 -18.5 -5
t-13 -13.5t-4.5 -19.5v-44h108zM103 56h108v-24h-108v24zM211 70v25l-20 7v43l20 8v26l-108 -44v-23zM211 192v66h-21v-42h-87v-24h108zM211 306v23h-41v38h-22v-38h-23v42h-22v-65h108zM211 515v23h-68l68 50v19h-108v-23h66l-66 -47v-22h108zM125 623v30h86v24h-86v30h-22
v-84h22zM127.5 456.5q4.5 7.5 12 12t17.5 4.5t18 -4.5t12.5 -12t4.5 -17.5q0 -9 -4.5 -17t-12.5 -12.5t-18 -4.5t-17.5 4.5t-12 12.5t-4.5 17q0 10 4.5 17.5zM124 -28q0 5 2 8.5t5 5.5t7 2t7.5 -2t5.5 -5.5t2 -8.5v-19h-29v19zM170 138v-28l-39 14z" />
    <glyph glyph-name="Cdotaccent" unicode="&#x10a;" 
d="M125 -116h86v-24h-86v-30h-22v84h22v-30zM107.5 409.5q7.5 -13.5 20.5 -21t29 -7.5t29 7.5t20.5 21t7.5 29.5t-7.5 29.5t-20.5 21t-29 7.5t-29 -7.5t-20.5 -21t-7.5 -29.5t7.5 -29.5zM211 -70v23h-37v16l37 21v26l-41 -24q-3 6 -7.5 10.5t-10.5 7t-13 2.5q-10 0 -18.5 -5
t-13 -13.5t-4.5 -19.5v-44h108zM103 56h108v-24h-108v24zM211 70v25l-20 7v43l20 8v26l-108 -44v-23zM211 192v66h-21v-42h-87v-24h108zM211 306v23h-41v38h-22v-38h-23v42h-22v-65h108zM211 515v23h-68l68 50v19h-108v-23h66l-66 -47v-22h108zM125 623v30h86v24h-86v30h-22
v-84h22zM127.5 456.5q4.5 7.5 12 12t17.5 4.5t18 -4.5t12.5 -12t4.5 -17.5q0 -9 -4.5 -17t-12.5 -12.5t-18 -4.5t-17.5 4.5t-12 12.5t-4.5 17q0 10 4.5 17.5zM124 -28q0 5 2 8.5t5 5.5t7 2t7.5 -2t5.5 -5.5t2 -8.5v-19h-29v19zM170 138v-28l-39 14z" />
    <glyph glyph-name="D" unicode="D" horiz-adv-x="672" 
d="M71 700h265q102 0 167 -35t97 -112t32 -203t-32 -203t-97 -112t-167 -35h-265v700zM336 144q44 0 70.5 18t39.5 62.5t13 125.5t-13 125.5t-39.5 62.5t-70.5 18h-95v-412h95z" />
    <glyph glyph-name="Eth" unicode="&#xd0;" 
d="M125 -116h86v-24h-86v-30h-22v84h22v-30zM107.5 409.5q7.5 -13.5 20.5 -21t29 -7.5t29 7.5t20.5 21t7.5 29.5t-7.5 29.5t-20.5 21t-29 7.5t-29 -7.5t-20.5 -21t-7.5 -29.5t7.5 -29.5zM211 -70v23h-37v16l37 21v26l-41 -24q-3 6 -7.5 10.5t-10.5 7t-13 2.5q-10 0 -18.5 -5
t-13 -13.5t-4.5 -19.5v-44h108zM103 56h108v-24h-108v24zM211 70v25l-20 7v43l20 8v26l-108 -44v-23zM211 192v66h-21v-42h-87v-24h108zM211 306v23h-41v38h-22v-38h-23v42h-22v-65h108zM211 515v23h-68l68 50v19h-108v-23h66l-66 -47v-22h108zM125 623v30h86v24h-86v30h-22
v-84h22zM127.5 456.5q4.5 7.5 12 12t17.5 4.5t18 -4.5t12.5 -12t4.5 -17.5q0 -9 -4.5 -17t-12.5 -12.5t-18 -4.5t-17.5 4.5t-12 12.5t-4.5 17q0 10 4.5 17.5zM124 -28q0 5 2 8.5t5 5.5t7 2t7.5 -2t5.5 -5.5t2 -8.5v-19h-29v19zM170 138v-28l-39 14z" />
    <glyph glyph-name="Dcaron" unicode="&#x10e;" 
d="M125 -116h86v-24h-86v-30h-22v84h22v-30zM107.5 409.5q7.5 -13.5 20.5 -21t29 -7.5t29 7.5t20.5 21t7.5 29.5t-7.5 29.5t-20.5 21t-29 7.5t-29 -7.5t-20.5 -21t-7.5 -29.5t7.5 -29.5zM211 -70v23h-37v16l37 21v26l-41 -24q-3 6 -7.5 10.5t-10.5 7t-13 2.5q-10 0 -18.5 -5
t-13 -13.5t-4.5 -19.5v-44h108zM103 56h108v-24h-108v24zM211 70v25l-20 7v43l20 8v26l-108 -44v-23zM211 192v66h-21v-42h-87v-24h108zM211 306v23h-41v38h-22v-38h-23v42h-22v-65h108zM211 515v23h-68l68 50v19h-108v-23h66l-66 -47v-22h108zM125 623v30h86v24h-86v30h-22
v-84h22zM127.5 456.5q4.5 7.5 12 12t17.5 4.5t18 -4.5t12.5 -12t4.5 -17.5q0 -9 -4.5 -17t-12.5 -12.5t-18 -4.5t-17.5 4.5t-12 12.5t-4.5 17q0 10 4.5 17.5zM124 -28q0 5 2 8.5t5 5.5t7 2t7.5 -2t5.5 -5.5t2 -8.5v-19h-29v19zM170 138v-28l-39 14z" />
    <glyph glyph-name="Dcroat" unicode="&#x110;" 
d="M125 -116h86v-24h-86v-30h-22v84h22v-30zM107.5 409.5q7.5 -13.5 20.5 -21t29 -7.5t29 7.5t20.5 21t7.5 29.5t-7.5 29.5t-20.5 21t-29 7.5t-29 -7.5t-20.5 -21t-7.5 -29.5t7.5 -29.5zM211 -70v23h-37v16l37 21v26l-41 -24q-3 6 -7.5 10.5t-10.5 7t-13 2.5q-10 0 -18.5 -5
t-13 -13.5t-4.5 -19.5v-44h108zM103 56h108v-24h-108v24zM211 70v25l-20 7v43l20 8v26l-108 -44v-23zM211 192v66h-21v-42h-87v-24h108zM211 306v23h-41v38h-22v-38h-23v42h-22v-65h108zM211 515v23h-68l68 50v19h-108v-23h66l-66 -47v-22h108zM125 623v30h86v24h-86v30h-22
v-84h22zM127.5 456.5q4.5 7.5 12 12t17.5 4.5t18 -4.5t12.5 -12t4.5 -17.5q0 -9 -4.5 -17t-12.5 -12.5t-18 -4.5t-17.5 4.5t-12 12.5t-4.5 17q0 10 4.5 17.5zM124 -28q0 5 2 8.5t5 5.5t7 2t7.5 -2t5.5 -5.5t2 -8.5v-19h-29v19zM170 138v-28l-39 14z" />
    <glyph glyph-name="E" unicode="E" horiz-adv-x="609" 
d="M71 700h482l8 -141h-320v-135h281v-142h-281v-141h332l-23 -141h-479v700z" />
    <glyph glyph-name="Eacute" unicode="&#xc9;" 
d="M125 -116h86v-24h-86v-30h-22v84h22v-30zM107.5 409.5q7.5 -13.5 20.5 -21t29 -7.5t29 7.5t20.5 21t7.5 29.5t-7.5 29.5t-20.5 21t-29 7.5t-29 -7.5t-20.5 -21t-7.5 -29.5t7.5 -29.5zM211 -70v23h-37v16l37 21v26l-41 -24q-3 6 -7.5 10.5t-10.5 7t-13 2.5q-10 0 -18.5 -5
t-13 -13.5t-4.5 -19.5v-44h108zM103 56h108v-24h-108v24zM211 70v25l-20 7v43l20 8v26l-108 -44v-23zM211 192v66h-21v-42h-87v-24h108zM211 306v23h-41v38h-22v-38h-23v42h-22v-65h108zM211 515v23h-68l68 50v19h-108v-23h66l-66 -47v-22h108zM125 623v30h86v24h-86v30h-22
v-84h22zM127.5 456.5q4.5 7.5 12 12t17.5 4.5t18 -4.5t12.5 -12t4.5 -17.5q0 -9 -4.5 -17t-12.5 -12.5t-18 -4.5t-17.5 4.5t-12 12.5t-4.5 17q0 10 4.5 17.5zM124 -28q0 5 2 8.5t5 5.5t7 2t7.5 -2t5.5 -5.5t2 -8.5v-19h-29v19zM170 138v-28l-39 14z" />
    <glyph glyph-name="Ebreve" unicode="&#x114;" 
d="M125 -116h86v-24h-86v-30h-22v84h22v-30zM107.5 409.5q7.5 -13.5 20.5 -21t29 -7.5t29 7.5t20.5 21t7.5 29.5t-7.5 29.5t-20.5 21t-29 7.5t-29 -7.5t-20.5 -21t-7.5 -29.5t7.5 -29.5zM211 -70v23h-37v16l37 21v26l-41 -24q-3 6 -7.5 10.5t-10.5 7t-13 2.5q-10 0 -18.5 -5
t-13 -13.5t-4.5 -19.5v-44h108zM103 56h108v-24h-108v24zM211 70v25l-20 7v43l20 8v26l-108 -44v-23zM211 192v66h-21v-42h-87v-24h108zM211 306v23h-41v38h-22v-38h-23v42h-22v-65h108zM211 515v23h-68l68 50v19h-108v-23h66l-66 -47v-22h108zM125 623v30h86v24h-86v30h-22
v-84h22zM127.5 456.5q4.5 7.5 12 12t17.5 4.5t18 -4.5t12.5 -12t4.5 -17.5q0 -9 -4.5 -17t-12.5 -12.5t-18 -4.5t-17.5 4.5t-12 12.5t-4.5 17q0 10 4.5 17.5zM124 -28q0 5 2 8.5t5 5.5t7 2t7.5 -2t5.5 -5.5t2 -8.5v-19h-29v19zM170 138v-28l-39 14z" />
    <glyph glyph-name="Ecaron" unicode="&#x11a;" 
d="M125 -116h86v-24h-86v-30h-22v84h22v-30zM107.5 409.5q7.5 -13.5 20.5 -21t29 -7.5t29 7.5t20.5 21t7.5 29.5t-7.5 29.5t-20.5 21t-29 7.5t-29 -7.5t-20.5 -21t-7.5 -29.5t7.5 -29.5zM211 -70v23h-37v16l37 21v26l-41 -24q-3 6 -7.5 10.5t-10.5 7t-13 2.5q-10 0 -18.5 -5
t-13 -13.5t-4.5 -19.5v-44h108zM103 56h108v-24h-108v24zM211 70v25l-20 7v43l20 8v26l-108 -44v-23zM211 192v66h-21v-42h-87v-24h108zM211 306v23h-41v38h-22v-38h-23v42h-22v-65h108zM211 515v23h-68l68 50v19h-108v-23h66l-66 -47v-22h108zM125 623v30h86v24h-86v30h-22
v-84h22zM127.5 456.5q4.5 7.5 12 12t17.5 4.5t18 -4.5t12.5 -12t4.5 -17.5q0 -9 -4.5 -17t-12.5 -12.5t-18 -4.5t-17.5 4.5t-12 12.5t-4.5 17q0 10 4.5 17.5zM124 -28q0 5 2 8.5t5 5.5t7 2t7.5 -2t5.5 -5.5t2 -8.5v-19h-29v19zM170 138v-28l-39 14z" />
    <glyph glyph-name="Ecircumflex" unicode="&#xca;" 
d="M125 -116h86v-24h-86v-30h-22v84h22v-30zM107.5 409.5q7.5 -13.5 20.5 -21t29 -7.5t29 7.5t20.5 21t7.5 29.5t-7.5 29.5t-20.5 21t-29 7.5t-29 -7.5t-20.5 -21t-7.5 -29.5t7.5 -29.5zM211 -70v23h-37v16l37 21v26l-41 -24q-3 6 -7.5 10.5t-10.5 7t-13 2.5q-10 0 -18.5 -5
t-13 -13.5t-4.5 -19.5v-44h108zM103 56h108v-24h-108v24zM211 70v25l-20 7v43l20 8v26l-108 -44v-23zM211 192v66h-21v-42h-87v-24h108zM211 306v23h-41v38h-22v-38h-23v42h-22v-65h108zM211 515v23h-68l68 50v19h-108v-23h66l-66 -47v-22h108zM125 623v30h86v24h-86v30h-22
v-84h22zM127.5 456.5q4.5 7.5 12 12t17.5 4.5t18 -4.5t12.5 -12t4.5 -17.5q0 -9 -4.5 -17t-12.5 -12.5t-18 -4.5t-17.5 4.5t-12 12.5t-4.5 17q0 10 4.5 17.5zM124 -28q0 5 2 8.5t5 5.5t7 2t7.5 -2t5.5 -5.5t2 -8.5v-19h-29v19zM170 138v-28l-39 14z" />
    <glyph glyph-name="Edieresis" unicode="&#xcb;" 
d="M125 -116h86v-24h-86v-30h-22v84h22v-30zM107.5 409.5q7.5 -13.5 20.5 -21t29 -7.5t29 7.5t20.5 21t7.5 29.5t-7.5 29.5t-20.5 21t-29 7.5t-29 -7.5t-20.5 -21t-7.5 -29.5t7.5 -29.5zM211 -70v23h-37v16l37 21v26l-41 -24q-3 6 -7.5 10.5t-10.5 7t-13 2.5q-10 0 -18.5 -5
t-13 -13.5t-4.5 -19.5v-44h108zM103 56h108v-24h-108v24zM211 70v25l-20 7v43l20 8v26l-108 -44v-23zM211 192v66h-21v-42h-87v-24h108zM211 306v23h-41v38h-22v-38h-23v42h-22v-65h108zM211 515v23h-68l68 50v19h-108v-23h66l-66 -47v-22h108zM125 623v30h86v24h-86v30h-22
v-84h22zM127.5 456.5q4.5 7.5 12 12t17.5 4.5t18 -4.5t12.5 -12t4.5 -17.5q0 -9 -4.5 -17t-12.5 -12.5t-18 -4.5t-17.5 4.5t-12 12.5t-4.5 17q0 10 4.5 17.5zM124 -28q0 5 2 8.5t5 5.5t7 2t7.5 -2t5.5 -5.5t2 -8.5v-19h-29v19zM170 138v-28l-39 14z" />
    <glyph glyph-name="Edotaccent" unicode="&#x116;" 
d="M125 -116h86v-24h-86v-30h-22v84h22v-30zM107.5 409.5q7.5 -13.5 20.5 -21t29 -7.5t29 7.5t20.5 21t7.5 29.5t-7.5 29.5t-20.5 21t-29 7.5t-29 -7.5t-20.5 -21t-7.5 -29.5t7.5 -29.5zM211 -70v23h-37v16l37 21v26l-41 -24q-3 6 -7.5 10.5t-10.5 7t-13 2.5q-10 0 -18.5 -5
t-13 -13.5t-4.5 -19.5v-44h108zM103 56h108v-24h-108v24zM211 70v25l-20 7v43l20 8v26l-108 -44v-23zM211 192v66h-21v-42h-87v-24h108zM211 306v23h-41v38h-22v-38h-23v42h-22v-65h108zM211 515v23h-68l68 50v19h-108v-23h66l-66 -47v-22h108zM125 623v30h86v24h-86v30h-22
v-84h22zM127.5 456.5q4.5 7.5 12 12t17.5 4.5t18 -4.5t12.5 -12t4.5 -17.5q0 -9 -4.5 -17t-12.5 -12.5t-18 -4.5t-17.5 4.5t-12 12.5t-4.5 17q0 10 4.5 17.5zM124 -28q0 5 2 8.5t5 5.5t7 2t7.5 -2t5.5 -5.5t2 -8.5v-19h-29v19zM170 138v-28l-39 14z" />
    <glyph glyph-name="Egrave" unicode="&#xc8;" 
d="M125 -116h86v-24h-86v-30h-22v84h22v-30zM107.5 409.5q7.5 -13.5 20.5 -21t29 -7.5t29 7.5t20.5 21t7.5 29.5t-7.5 29.5t-20.5 21t-29 7.5t-29 -7.5t-20.5 -21t-7.5 -29.5t7.5 -29.5zM211 -70v23h-37v16l37 21v26l-41 -24q-3 6 -7.5 10.5t-10.5 7t-13 2.5q-10 0 -18.5 -5
t-13 -13.5t-4.5 -19.5v-44h108zM103 56h108v-24h-108v24zM211 70v25l-20 7v43l20 8v26l-108 -44v-23zM211 192v66h-21v-42h-87v-24h108zM211 306v23h-41v38h-22v-38h-23v42h-22v-65h108zM211 515v23h-68l68 50v19h-108v-23h66l-66 -47v-22h108zM125 623v30h86v24h-86v30h-22
v-84h22zM127.5 456.5q4.5 7.5 12 12t17.5 4.5t18 -4.5t12.5 -12t4.5 -17.5q0 -9 -4.5 -17t-12.5 -12.5t-18 -4.5t-17.5 4.5t-12 12.5t-4.5 17q0 10 4.5 17.5zM124 -28q0 5 2 8.5t5 5.5t7 2t7.5 -2t5.5 -5.5t2 -8.5v-19h-29v19zM170 138v-28l-39 14z" />
    <glyph glyph-name="Emacron" unicode="&#x112;" 
d="M125 -116h86v-24h-86v-30h-22v84h22v-30zM107.5 409.5q7.5 -13.5 20.5 -21t29 -7.5t29 7.5t20.5 21t7.5 29.5t-7.5 29.5t-20.5 21t-29 7.5t-29 -7.5t-20.5 -21t-7.5 -29.5t7.5 -29.5zM211 -70v23h-37v16l37 21v26l-41 -24q-3 6 -7.5 10.5t-10.5 7t-13 2.5q-10 0 -18.5 -5
t-13 -13.5t-4.5 -19.5v-44h108zM103 56h108v-24h-108v24zM211 70v25l-20 7v43l20 8v26l-108 -44v-23zM211 192v66h-21v-42h-87v-24h108zM211 306v23h-41v38h-22v-38h-23v42h-22v-65h108zM211 515v23h-68l68 50v19h-108v-23h66l-66 -47v-22h108zM125 623v30h86v24h-86v30h-22
v-84h22zM127.5 456.5q4.5 7.5 12 12t17.5 4.5t18 -4.5t12.5 -12t4.5 -17.5q0 -9 -4.5 -17t-12.5 -12.5t-18 -4.5t-17.5 4.5t-12 12.5t-4.5 17q0 10 4.5 17.5zM124 -28q0 5 2 8.5t5 5.5t7 2t7.5 -2t5.5 -5.5t2 -8.5v-19h-29v19zM170 138v-28l-39 14z" />
    <glyph glyph-name="Eogonek" unicode="&#x118;" 
d="M125 -116h86v-24h-86v-30h-22v84h22v-30zM107.5 409.5q7.5 -13.5 20.5 -21t29 -7.5t29 7.5t20.5 21t7.5 29.5t-7.5 29.5t-20.5 21t-29 7.5t-29 -7.5t-20.5 -21t-7.5 -29.5t7.5 -29.5zM211 -70v23h-37v16l37 21v26l-41 -24q-3 6 -7.5 10.5t-10.5 7t-13 2.5q-10 0 -18.5 -5
t-13 -13.5t-4.5 -19.5v-44h108zM103 56h108v-24h-108v24zM211 70v25l-20 7v43l20 8v26l-108 -44v-23zM211 192v66h-21v-42h-87v-24h108zM211 306v23h-41v38h-22v-38h-23v42h-22v-65h108zM211 515v23h-68l68 50v19h-108v-23h66l-66 -47v-22h108zM125 623v30h86v24h-86v30h-22
v-84h22zM127.5 456.5q4.5 7.5 12 12t17.5 4.5t18 -4.5t12.5 -12t4.5 -17.5q0 -9 -4.5 -17t-12.5 -12.5t-18 -4.5t-17.5 4.5t-12 12.5t-4.5 17q0 10 4.5 17.5zM124 -28q0 5 2 8.5t5 5.5t7 2t7.5 -2t5.5 -5.5t2 -8.5v-19h-29v19zM170 138v-28l-39 14z" />
    <glyph glyph-name="F" unicode="F" horiz-adv-x="592" 
d="M71 700h483l8 -141h-320v-141h280v-141h-280v-277h-171v700z" />
    <glyph glyph-name="G" unicode="G" horiz-adv-x="626" 
d="M180.5 24q-71.5 40 -106.5 121t-35 205t35 205t106.5 121t179.5 40q38 0 74.5 -5.5t66 -13.5t47.5 -16l8 -150q-17 9 -45.5 18t-63.5 15t-70 6q-59 0 -95 -22t-53 -70t-17 -128t16 -128.5t50 -70t88 -21.5q9 0 17.5 0.5t17 1.5t16.5 3v246h159v-357q-23 -8 -50 -16
t-72.5 -16t-93.5 -8q-108 0 -179.5 40z" />
    <glyph glyph-name="Gbreve" unicode="&#x11e;" 
d="M125 -116h86v-24h-86v-30h-22v84h22v-30zM107.5 409.5q7.5 -13.5 20.5 -21t29 -7.5t29 7.5t20.5 21t7.5 29.5t-7.5 29.5t-20.5 21t-29 7.5t-29 -7.5t-20.5 -21t-7.5 -29.5t7.5 -29.5zM211 -70v23h-37v16l37 21v26l-41 -24q-3 6 -7.5 10.5t-10.5 7t-13 2.5q-10 0 -18.5 -5
t-13 -13.5t-4.5 -19.5v-44h108zM103 56h108v-24h-108v24zM211 70v25l-20 7v43l20 8v26l-108 -44v-23zM211 192v66h-21v-42h-87v-24h108zM211 306v23h-41v38h-22v-38h-23v42h-22v-65h108zM211 515v23h-68l68 50v19h-108v-23h66l-66 -47v-22h108zM125 623v30h86v24h-86v30h-22
v-84h22zM127.5 456.5q4.5 7.5 12 12t17.5 4.5t18 -4.5t12.5 -12t4.5 -17.5q0 -9 -4.5 -17t-12.5 -12.5t-18 -4.5t-17.5 4.5t-12 12.5t-4.5 17q0 10 4.5 17.5zM124 -28q0 5 2 8.5t5 5.5t7 2t7.5 -2t5.5 -5.5t2 -8.5v-19h-29v19zM170 138v-28l-39 14z" />
    <glyph glyph-name="Gcircumflex" unicode="&#x11c;" 
d="M125 -116h86v-24h-86v-30h-22v84h22v-30zM107.5 409.5q7.5 -13.5 20.5 -21t29 -7.5t29 7.5t20.5 21t7.5 29.5t-7.5 29.5t-20.5 21t-29 7.5t-29 -7.5t-20.5 -21t-7.5 -29.5t7.5 -29.5zM211 -70v23h-37v16l37 21v26l-41 -24q-3 6 -7.5 10.5t-10.5 7t-13 2.5q-10 0 -18.5 -5
t-13 -13.5t-4.5 -19.5v-44h108zM103 56h108v-24h-108v24zM211 70v25l-20 7v43l20 8v26l-108 -44v-23zM211 192v66h-21v-42h-87v-24h108zM211 306v23h-41v38h-22v-38h-23v42h-22v-65h108zM211 515v23h-68l68 50v19h-108v-23h66l-66 -47v-22h108zM125 623v30h86v24h-86v30h-22
v-84h22zM127.5 456.5q4.5 7.5 12 12t17.5 4.5t18 -4.5t12.5 -12t4.5 -17.5q0 -9 -4.5 -17t-12.5 -12.5t-18 -4.5t-17.5 4.5t-12 12.5t-4.5 17q0 10 4.5 17.5zM124 -28q0 5 2 8.5t5 5.5t7 2t7.5 -2t5.5 -5.5t2 -8.5v-19h-29v19zM170 138v-28l-39 14z" />
    <glyph glyph-name="uni0122" unicode="&#x122;" 
d="M125 -116h86v-24h-86v-30h-22v84h22v-30zM107.5 409.5q7.5 -13.5 20.5 -21t29 -7.5t29 7.5t20.5 21t7.5 29.5t-7.5 29.5t-20.5 21t-29 7.5t-29 -7.5t-20.5 -21t-7.5 -29.5t7.5 -29.5zM211 -70v23h-37v16l37 21v26l-41 -24q-3 6 -7.5 10.5t-10.5 7t-13 2.5q-10 0 -18.5 -5
t-13 -13.5t-4.5 -19.5v-44h108zM103 56h108v-24h-108v24zM211 70v25l-20 7v43l20 8v26l-108 -44v-23zM211 192v66h-21v-42h-87v-24h108zM211 306v23h-41v38h-22v-38h-23v42h-22v-65h108zM211 515v23h-68l68 50v19h-108v-23h66l-66 -47v-22h108zM125 623v30h86v24h-86v30h-22
v-84h22zM127.5 456.5q4.5 7.5 12 12t17.5 4.5t18 -4.5t12.5 -12t4.5 -17.5q0 -9 -4.5 -17t-12.5 -12.5t-18 -4.5t-17.5 4.5t-12 12.5t-4.5 17q0 10 4.5 17.5zM124 -28q0 5 2 8.5t5 5.5t7 2t7.5 -2t5.5 -5.5t2 -8.5v-19h-29v19zM170 138v-28l-39 14z" />
    <glyph glyph-name="Gdotaccent" unicode="&#x120;" 
d="M125 -116h86v-24h-86v-30h-22v84h22v-30zM107.5 409.5q7.5 -13.5 20.5 -21t29 -7.5t29 7.5t20.5 21t7.5 29.5t-7.5 29.5t-20.5 21t-29 7.5t-29 -7.5t-20.5 -21t-7.5 -29.5t7.5 -29.5zM211 -70v23h-37v16l37 21v26l-41 -24q-3 6 -7.5 10.5t-10.5 7t-13 2.5q-10 0 -18.5 -5
t-13 -13.5t-4.5 -19.5v-44h108zM103 56h108v-24h-108v24zM211 70v25l-20 7v43l20 8v26l-108 -44v-23zM211 192v66h-21v-42h-87v-24h108zM211 306v23h-41v38h-22v-38h-23v42h-22v-65h108zM211 515v23h-68l68 50v19h-108v-23h66l-66 -47v-22h108zM125 623v30h86v24h-86v30h-22
v-84h22zM127.5 456.5q4.5 7.5 12 12t17.5 4.5t18 -4.5t12.5 -12t4.5 -17.5q0 -9 -4.5 -17t-12.5 -12.5t-18 -4.5t-17.5 4.5t-12 12.5t-4.5 17q0 10 4.5 17.5zM124 -28q0 5 2 8.5t5 5.5t7 2t7.5 -2t5.5 -5.5t2 -8.5v-19h-29v19zM170 138v-28l-39 14z" />
    <glyph glyph-name="H" unicode="H" horiz-adv-x="693" 
d="M622 700v-700h-170v280h-211v-280h-170v700h170v-274h211v274h170z" />
    <glyph glyph-name="Hbar" unicode="&#x126;" 
d="M125 -116h86v-24h-86v-30h-22v84h22v-30zM107.5 409.5q7.5 -13.5 20.5 -21t29 -7.5t29 7.5t20.5 21t7.5 29.5t-7.5 29.5t-20.5 21t-29 7.5t-29 -7.5t-20.5 -21t-7.5 -29.5t7.5 -29.5zM211 -70v23h-37v16l37 21v26l-41 -24q-3 6 -7.5 10.5t-10.5 7t-13 2.5q-10 0 -18.5 -5
t-13 -13.5t-4.5 -19.5v-44h108zM103 56h108v-24h-108v24zM211 70v25l-20 7v43l20 8v26l-108 -44v-23zM211 192v66h-21v-42h-87v-24h108zM211 306v23h-41v38h-22v-38h-23v42h-22v-65h108zM211 515v23h-68l68 50v19h-108v-23h66l-66 -47v-22h108zM125 623v30h86v24h-86v30h-22
v-84h22zM127.5 456.5q4.5 7.5 12 12t17.5 4.5t18 -4.5t12.5 -12t4.5 -17.5q0 -9 -4.5 -17t-12.5 -12.5t-18 -4.5t-17.5 4.5t-12 12.5t-4.5 17q0 10 4.5 17.5zM124 -28q0 5 2 8.5t5 5.5t7 2t7.5 -2t5.5 -5.5t2 -8.5v-19h-29v19zM170 138v-28l-39 14z" />
    <glyph glyph-name="Hcircumflex" unicode="&#x124;" 
d="M125 -116h86v-24h-86v-30h-22v84h22v-30zM107.5 409.5q7.5 -13.5 20.5 -21t29 -7.5t29 7.5t20.5 21t7.5 29.5t-7.5 29.5t-20.5 21t-29 7.5t-29 -7.5t-20.5 -21t-7.5 -29.5t7.5 -29.5zM211 -70v23h-37v16l37 21v26l-41 -24q-3 6 -7.5 10.5t-10.5 7t-13 2.5q-10 0 -18.5 -5
t-13 -13.5t-4.5 -19.5v-44h108zM103 56h108v-24h-108v24zM211 70v25l-20 7v43l20 8v26l-108 -44v-23zM211 192v66h-21v-42h-87v-24h108zM211 306v23h-41v38h-22v-38h-23v42h-22v-65h108zM211 515v23h-68l68 50v19h-108v-23h66l-66 -47v-22h108zM125 623v30h86v24h-86v30h-22
v-84h22zM127.5 456.5q4.5 7.5 12 12t17.5 4.5t18 -4.5t12.5 -12t4.5 -17.5q0 -9 -4.5 -17t-12.5 -12.5t-18 -4.5t-17.5 4.5t-12 12.5t-4.5 17q0 10 4.5 17.5zM124 -28q0 5 2 8.5t5 5.5t7 2t7.5 -2t5.5 -5.5t2 -8.5v-19h-29v19zM170 138v-28l-39 14z" />
    <glyph glyph-name="I" unicode="I" horiz-adv-x="313" 
d="M71 700h171v-700h-171v700z" />
    <glyph glyph-name="IJ" unicode="&#x132;" 
d="M125 -116h86v-24h-86v-30h-22v84h22v-30zM107.5 409.5q7.5 -13.5 20.5 -21t29 -7.5t29 7.5t20.5 21t7.5 29.5t-7.5 29.5t-20.5 21t-29 7.5t-29 -7.5t-20.5 -21t-7.5 -29.5t7.5 -29.5zM211 -70v23h-37v16l37 21v26l-41 -24q-3 6 -7.5 10.5t-10.5 7t-13 2.5q-10 0 -18.5 -5
t-13 -13.5t-4.5 -19.5v-44h108zM103 56h108v-24h-108v24zM211 70v25l-20 7v43l20 8v26l-108 -44v-23zM211 192v66h-21v-42h-87v-24h108zM211 306v23h-41v38h-22v-38h-23v42h-22v-65h108zM211 515v23h-68l68 50v19h-108v-23h66l-66 -47v-22h108zM125 623v30h86v24h-86v30h-22
v-84h22zM127.5 456.5q4.5 7.5 12 12t17.5 4.5t18 -4.5t12.5 -12t4.5 -17.5q0 -9 -4.5 -17t-12.5 -12.5t-18 -4.5t-17.5 4.5t-12 12.5t-4.5 17q0 10 4.5 17.5zM124 -28q0 5 2 8.5t5 5.5t7 2t7.5 -2t5.5 -5.5t2 -8.5v-19h-29v19zM170 138v-28l-39 14z" />
    <glyph glyph-name="Iacute" unicode="&#xcd;" 
d="M125 -116h86v-24h-86v-30h-22v84h22v-30zM107.5 409.5q7.5 -13.5 20.5 -21t29 -7.5t29 7.5t20.5 21t7.5 29.5t-7.5 29.5t-20.5 21t-29 7.5t-29 -7.5t-20.5 -21t-7.5 -29.5t7.5 -29.5zM211 -70v23h-37v16l37 21v26l-41 -24q-3 6 -7.5 10.5t-10.5 7t-13 2.5q-10 0 -18.5 -5
t-13 -13.5t-4.5 -19.5v-44h108zM103 56h108v-24h-108v24zM211 70v25l-20 7v43l20 8v26l-108 -44v-23zM211 192v66h-21v-42h-87v-24h108zM211 306v23h-41v38h-22v-38h-23v42h-22v-65h108zM211 515v23h-68l68 50v19h-108v-23h66l-66 -47v-22h108zM125 623v30h86v24h-86v30h-22
v-84h22zM127.5 456.5q4.5 7.5 12 12t17.5 4.5t18 -4.5t12.5 -12t4.5 -17.5q0 -9 -4.5 -17t-12.5 -12.5t-18 -4.5t-17.5 4.5t-12 12.5t-4.5 17q0 10 4.5 17.5zM124 -28q0 5 2 8.5t5 5.5t7 2t7.5 -2t5.5 -5.5t2 -8.5v-19h-29v19zM170 138v-28l-39 14z" />
    <glyph glyph-name="Ibreve" unicode="&#x12c;" 
d="M125 -116h86v-24h-86v-30h-22v84h22v-30zM107.5 409.5q7.5 -13.5 20.5 -21t29 -7.5t29 7.5t20.5 21t7.5 29.5t-7.5 29.5t-20.5 21t-29 7.5t-29 -7.5t-20.5 -21t-7.5 -29.5t7.5 -29.5zM211 -70v23h-37v16l37 21v26l-41 -24q-3 6 -7.5 10.5t-10.5 7t-13 2.5q-10 0 -18.5 -5
t-13 -13.5t-4.5 -19.5v-44h108zM103 56h108v-24h-108v24zM211 70v25l-20 7v43l20 8v26l-108 -44v-23zM211 192v66h-21v-42h-87v-24h108zM211 306v23h-41v38h-22v-38h-23v42h-22v-65h108zM211 515v23h-68l68 50v19h-108v-23h66l-66 -47v-22h108zM125 623v30h86v24h-86v30h-22
v-84h22zM127.5 456.5q4.5 7.5 12 12t17.5 4.5t18 -4.5t12.5 -12t4.5 -17.5q0 -9 -4.5 -17t-12.5 -12.5t-18 -4.5t-17.5 4.5t-12 12.5t-4.5 17q0 10 4.5 17.5zM124 -28q0 5 2 8.5t5 5.5t7 2t7.5 -2t5.5 -5.5t2 -8.5v-19h-29v19zM170 138v-28l-39 14z" />
    <glyph glyph-name="Icircumflex" unicode="&#xce;" 
d="M125 -116h86v-24h-86v-30h-22v84h22v-30zM107.5 409.5q7.5 -13.5 20.5 -21t29 -7.5t29 7.5t20.5 21t7.5 29.5t-7.5 29.5t-20.5 21t-29 7.5t-29 -7.5t-20.5 -21t-7.5 -29.5t7.5 -29.5zM211 -70v23h-37v16l37 21v26l-41 -24q-3 6 -7.5 10.5t-10.5 7t-13 2.5q-10 0 -18.5 -5
t-13 -13.5t-4.5 -19.5v-44h108zM103 56h108v-24h-108v24zM211 70v25l-20 7v43l20 8v26l-108 -44v-23zM211 192v66h-21v-42h-87v-24h108zM211 306v23h-41v38h-22v-38h-23v42h-22v-65h108zM211 515v23h-68l68 50v19h-108v-23h66l-66 -47v-22h108zM125 623v30h86v24h-86v30h-22
v-84h22zM127.5 456.5q4.5 7.5 12 12t17.5 4.5t18 -4.5t12.5 -12t4.5 -17.5q0 -9 -4.5 -17t-12.5 -12.5t-18 -4.5t-17.5 4.5t-12 12.5t-4.5 17q0 10 4.5 17.5zM124 -28q0 5 2 8.5t5 5.5t7 2t7.5 -2t5.5 -5.5t2 -8.5v-19h-29v19zM170 138v-28l-39 14z" />
    <glyph glyph-name="Idieresis" unicode="&#xcf;" 
d="M125 -116h86v-24h-86v-30h-22v84h22v-30zM107.5 409.5q7.5 -13.5 20.5 -21t29 -7.5t29 7.5t20.5 21t7.5 29.5t-7.5 29.5t-20.5 21t-29 7.5t-29 -7.5t-20.5 -21t-7.5 -29.5t7.5 -29.5zM211 -70v23h-37v16l37 21v26l-41 -24q-3 6 -7.5 10.5t-10.5 7t-13 2.5q-10 0 -18.5 -5
t-13 -13.5t-4.5 -19.5v-44h108zM103 56h108v-24h-108v24zM211 70v25l-20 7v43l20 8v26l-108 -44v-23zM211 192v66h-21v-42h-87v-24h108zM211 306v23h-41v38h-22v-38h-23v42h-22v-65h108zM211 515v23h-68l68 50v19h-108v-23h66l-66 -47v-22h108zM125 623v30h86v24h-86v30h-22
v-84h22zM127.5 456.5q4.5 7.5 12 12t17.5 4.5t18 -4.5t12.5 -12t4.5 -17.5q0 -9 -4.5 -17t-12.5 -12.5t-18 -4.5t-17.5 4.5t-12 12.5t-4.5 17q0 10 4.5 17.5zM124 -28q0 5 2 8.5t5 5.5t7 2t7.5 -2t5.5 -5.5t2 -8.5v-19h-29v19zM170 138v-28l-39 14z" />
    <glyph glyph-name="Idotaccent" unicode="&#x130;" 
d="M125 -116h86v-24h-86v-30h-22v84h22v-30zM107.5 409.5q7.5 -13.5 20.5 -21t29 -7.5t29 7.5t20.5 21t7.5 29.5t-7.5 29.5t-20.5 21t-29 7.5t-29 -7.5t-20.5 -21t-7.5 -29.5t7.5 -29.5zM211 -70v23h-37v16l37 21v26l-41 -24q-3 6 -7.5 10.5t-10.5 7t-13 2.5q-10 0 -18.5 -5
t-13 -13.5t-4.5 -19.5v-44h108zM103 56h108v-24h-108v24zM211 70v25l-20 7v43l20 8v26l-108 -44v-23zM211 192v66h-21v-42h-87v-24h108zM211 306v23h-41v38h-22v-38h-23v42h-22v-65h108zM211 515v23h-68l68 50v19h-108v-23h66l-66 -47v-22h108zM125 623v30h86v24h-86v30h-22
v-84h22zM127.5 456.5q4.5 7.5 12 12t17.5 4.5t18 -4.5t12.5 -12t4.5 -17.5q0 -9 -4.5 -17t-12.5 -12.5t-18 -4.5t-17.5 4.5t-12 12.5t-4.5 17q0 10 4.5 17.5zM124 -28q0 5 2 8.5t5 5.5t7 2t7.5 -2t5.5 -5.5t2 -8.5v-19h-29v19zM170 138v-28l-39 14z" />
    <glyph glyph-name="Igrave" unicode="&#xcc;" 
d="M125 -116h86v-24h-86v-30h-22v84h22v-30zM107.5 409.5q7.5 -13.5 20.5 -21t29 -7.5t29 7.5t20.5 21t7.5 29.5t-7.5 29.5t-20.5 21t-29 7.5t-29 -7.5t-20.5 -21t-7.5 -29.5t7.5 -29.5zM211 -70v23h-37v16l37 21v26l-41 -24q-3 6 -7.5 10.5t-10.5 7t-13 2.5q-10 0 -18.5 -5
t-13 -13.5t-4.5 -19.5v-44h108zM103 56h108v-24h-108v24zM211 70v25l-20 7v43l20 8v26l-108 -44v-23zM211 192v66h-21v-42h-87v-24h108zM211 306v23h-41v38h-22v-38h-23v42h-22v-65h108zM211 515v23h-68l68 50v19h-108v-23h66l-66 -47v-22h108zM125 623v30h86v24h-86v30h-22
v-84h22zM127.5 456.5q4.5 7.5 12 12t17.5 4.5t18 -4.5t12.5 -12t4.5 -17.5q0 -9 -4.5 -17t-12.5 -12.5t-18 -4.5t-17.5 4.5t-12 12.5t-4.5 17q0 10 4.5 17.5zM124 -28q0 5 2 8.5t5 5.5t7 2t7.5 -2t5.5 -5.5t2 -8.5v-19h-29v19zM170 138v-28l-39 14z" />
    <glyph glyph-name="Imacron" unicode="&#x12a;" 
d="M125 -116h86v-24h-86v-30h-22v84h22v-30zM107.5 409.5q7.5 -13.5 20.5 -21t29 -7.5t29 7.5t20.5 21t7.5 29.5t-7.5 29.5t-20.5 21t-29 7.5t-29 -7.5t-20.5 -21t-7.5 -29.5t7.5 -29.5zM211 -70v23h-37v16l37 21v26l-41 -24q-3 6 -7.5 10.5t-10.5 7t-13 2.5q-10 0 -18.5 -5
t-13 -13.5t-4.5 -19.5v-44h108zM103 56h108v-24h-108v24zM211 70v25l-20 7v43l20 8v26l-108 -44v-23zM211 192v66h-21v-42h-87v-24h108zM211 306v23h-41v38h-22v-38h-23v42h-22v-65h108zM211 515v23h-68l68 50v19h-108v-23h66l-66 -47v-22h108zM125 623v30h86v24h-86v30h-22
v-84h22zM127.5 456.5q4.5 7.5 12 12t17.5 4.5t18 -4.5t12.5 -12t4.5 -17.5q0 -9 -4.5 -17t-12.5 -12.5t-18 -4.5t-17.5 4.5t-12 12.5t-4.5 17q0 10 4.5 17.5zM124 -28q0 5 2 8.5t5 5.5t7 2t7.5 -2t5.5 -5.5t2 -8.5v-19h-29v19zM170 138v-28l-39 14z" />
    <glyph glyph-name="Iogonek" unicode="&#x12e;" 
d="M125 -116h86v-24h-86v-30h-22v84h22v-30zM107.5 409.5q7.5 -13.5 20.5 -21t29 -7.5t29 7.5t20.5 21t7.5 29.5t-7.5 29.5t-20.5 21t-29 7.5t-29 -7.5t-20.5 -21t-7.5 -29.5t7.5 -29.5zM211 -70v23h-37v16l37 21v26l-41 -24q-3 6 -7.5 10.5t-10.5 7t-13 2.5q-10 0 -18.5 -5
t-13 -13.5t-4.5 -19.5v-44h108zM103 56h108v-24h-108v24zM211 70v25l-20 7v43l20 8v26l-108 -44v-23zM211 192v66h-21v-42h-87v-24h108zM211 306v23h-41v38h-22v-38h-23v42h-22v-65h108zM211 515v23h-68l68 50v19h-108v-23h66l-66 -47v-22h108zM125 623v30h86v24h-86v30h-22
v-84h22zM127.5 456.5q4.5 7.5 12 12t17.5 4.5t18 -4.5t12.5 -12t4.5 -17.5q0 -9 -4.5 -17t-12.5 -12.5t-18 -4.5t-17.5 4.5t-12 12.5t-4.5 17q0 10 4.5 17.5zM124 -28q0 5 2 8.5t5 5.5t7 2t7.5 -2t5.5 -5.5t2 -8.5v-19h-29v19zM170 138v-28l-39 14z" />
    <glyph glyph-name="Itilde" unicode="&#x128;" 
d="M125 -116h86v-24h-86v-30h-22v84h22v-30zM107.5 409.5q7.5 -13.5 20.5 -21t29 -7.5t29 7.5t20.5 21t7.5 29.5t-7.5 29.5t-20.5 21t-29 7.5t-29 -7.5t-20.5 -21t-7.5 -29.5t7.5 -29.5zM211 -70v23h-37v16l37 21v26l-41 -24q-3 6 -7.5 10.5t-10.5 7t-13 2.5q-10 0 -18.5 -5
t-13 -13.5t-4.5 -19.5v-44h108zM103 56h108v-24h-108v24zM211 70v25l-20 7v43l20 8v26l-108 -44v-23zM211 192v66h-21v-42h-87v-24h108zM211 306v23h-41v38h-22v-38h-23v42h-22v-65h108zM211 515v23h-68l68 50v19h-108v-23h66l-66 -47v-22h108zM125 623v30h86v24h-86v30h-22
v-84h22zM127.5 456.5q4.5 7.5 12 12t17.5 4.5t18 -4.5t12.5 -12t4.5 -17.5q0 -9 -4.5 -17t-12.5 -12.5t-18 -4.5t-17.5 4.5t-12 12.5t-4.5 17q0 10 4.5 17.5zM124 -28q0 5 2 8.5t5 5.5t7 2t7.5 -2t5.5 -5.5t2 -8.5v-19h-29v19zM170 138v-28l-39 14z" />
    <glyph glyph-name="J" unicode="J" horiz-adv-x="520" 
d="M127 -11q-29 4 -52 9.5t-37 11.5l-24 155q16 -7 39.5 -14t52 -11.5t56.5 -4.5q42 0 69.5 14.5t41 46.5t13.5 85v419h169v-419q0 -97 -29.5 -163t-89 -99.5t-149.5 -33.5q-31 0 -60 4z" />
    <glyph glyph-name="Jcircumflex" unicode="&#x134;" 
d="M125 -116h86v-24h-86v-30h-22v84h22v-30zM107.5 409.5q7.5 -13.5 20.5 -21t29 -7.5t29 7.5t20.5 21t7.5 29.5t-7.5 29.5t-20.5 21t-29 7.5t-29 -7.5t-20.5 -21t-7.5 -29.5t7.5 -29.5zM211 -70v23h-37v16l37 21v26l-41 -24q-3 6 -7.5 10.5t-10.5 7t-13 2.5q-10 0 -18.5 -5
t-13 -13.5t-4.5 -19.5v-44h108zM103 56h108v-24h-108v24zM211 70v25l-20 7v43l20 8v26l-108 -44v-23zM211 192v66h-21v-42h-87v-24h108zM211 306v23h-41v38h-22v-38h-23v42h-22v-65h108zM211 515v23h-68l68 50v19h-108v-23h66l-66 -47v-22h108zM125 623v30h86v24h-86v30h-22
v-84h22zM127.5 456.5q4.5 7.5 12 12t17.5 4.5t18 -4.5t12.5 -12t4.5 -17.5q0 -9 -4.5 -17t-12.5 -12.5t-18 -4.5t-17.5 4.5t-12 12.5t-4.5 17q0 10 4.5 17.5zM124 -28q0 5 2 8.5t5 5.5t7 2t7.5 -2t5.5 -5.5t2 -8.5v-19h-29v19zM170 138v-28l-39 14z" />
    <glyph glyph-name="K" unicode="K" horiz-adv-x="662" 
d="M299 285h-58v-285h-170v700h170v-279h58l160 279h187l-208 -338l225 -362h-193z" />
    <glyph glyph-name="uni0136" unicode="&#x136;" 
d="M125 -116h86v-24h-86v-30h-22v84h22v-30zM107.5 409.5q7.5 -13.5 20.5 -21t29 -7.5t29 7.5t20.5 21t7.5 29.5t-7.5 29.5t-20.5 21t-29 7.5t-29 -7.5t-20.5 -21t-7.5 -29.5t7.5 -29.5zM211 -70v23h-37v16l37 21v26l-41 -24q-3 6 -7.5 10.5t-10.5 7t-13 2.5q-10 0 -18.5 -5
t-13 -13.5t-4.5 -19.5v-44h108zM103 56h108v-24h-108v24zM211 70v25l-20 7v43l20 8v26l-108 -44v-23zM211 192v66h-21v-42h-87v-24h108zM211 306v23h-41v38h-22v-38h-23v42h-22v-65h108zM211 515v23h-68l68 50v19h-108v-23h66l-66 -47v-22h108zM125 623v30h86v24h-86v30h-22
v-84h22zM127.5 456.5q4.5 7.5 12 12t17.5 4.5t18 -4.5t12.5 -12t4.5 -17.5q0 -9 -4.5 -17t-12.5 -12.5t-18 -4.5t-17.5 4.5t-12 12.5t-4.5 17q0 10 4.5 17.5zM124 -28q0 5 2 8.5t5 5.5t7 2t7.5 -2t5.5 -5.5t2 -8.5v-19h-29v19zM170 138v-28l-39 14z" />
    <glyph glyph-name="L" unicode="L" horiz-adv-x="567" 
d="M71 700h170v-551h313l-24 -149h-459v700z" />
    <glyph glyph-name="Lacute" unicode="&#x139;" 
d="M125 -116h86v-24h-86v-30h-22v84h22v-30zM107.5 409.5q7.5 -13.5 20.5 -21t29 -7.5t29 7.5t20.5 21t7.5 29.5t-7.5 29.5t-20.5 21t-29 7.5t-29 -7.5t-20.5 -21t-7.5 -29.5t7.5 -29.5zM211 -70v23h-37v16l37 21v26l-41 -24q-3 6 -7.5 10.5t-10.5 7t-13 2.5q-10 0 -18.5 -5
t-13 -13.5t-4.5 -19.5v-44h108zM103 56h108v-24h-108v24zM211 70v25l-20 7v43l20 8v26l-108 -44v-23zM211 192v66h-21v-42h-87v-24h108zM211 306v23h-41v38h-22v-38h-23v42h-22v-65h108zM211 515v23h-68l68 50v19h-108v-23h66l-66 -47v-22h108zM125 623v30h86v24h-86v30h-22
v-84h22zM127.5 456.5q4.5 7.5 12 12t17.5 4.5t18 -4.5t12.5 -12t4.5 -17.5q0 -9 -4.5 -17t-12.5 -12.5t-18 -4.5t-17.5 4.5t-12 12.5t-4.5 17q0 10 4.5 17.5zM124 -28q0 5 2 8.5t5 5.5t7 2t7.5 -2t5.5 -5.5t2 -8.5v-19h-29v19zM170 138v-28l-39 14z" />
    <glyph glyph-name="Lcaron" unicode="&#x13d;" 
d="M125 -116h86v-24h-86v-30h-22v84h22v-30zM107.5 409.5q7.5 -13.5 20.5 -21t29 -7.5t29 7.5t20.5 21t7.5 29.5t-7.5 29.5t-20.5 21t-29 7.5t-29 -7.5t-20.5 -21t-7.5 -29.5t7.5 -29.5zM211 -70v23h-37v16l37 21v26l-41 -24q-3 6 -7.5 10.5t-10.5 7t-13 2.5q-10 0 -18.5 -5
t-13 -13.5t-4.5 -19.5v-44h108zM103 56h108v-24h-108v24zM211 70v25l-20 7v43l20 8v26l-108 -44v-23zM211 192v66h-21v-42h-87v-24h108zM211 306v23h-41v38h-22v-38h-23v42h-22v-65h108zM211 515v23h-68l68 50v19h-108v-23h66l-66 -47v-22h108zM125 623v30h86v24h-86v30h-22
v-84h22zM127.5 456.5q4.5 7.5 12 12t17.5 4.5t18 -4.5t12.5 -12t4.5 -17.5q0 -9 -4.5 -17t-12.5 -12.5t-18 -4.5t-17.5 4.5t-12 12.5t-4.5 17q0 10 4.5 17.5zM124 -28q0 5 2 8.5t5 5.5t7 2t7.5 -2t5.5 -5.5t2 -8.5v-19h-29v19zM170 138v-28l-39 14z" />
    <glyph glyph-name="uni013B" unicode="&#x13b;" 
d="M125 -116h86v-24h-86v-30h-22v84h22v-30zM107.5 409.5q7.5 -13.5 20.5 -21t29 -7.5t29 7.5t20.5 21t7.5 29.5t-7.5 29.5t-20.5 21t-29 7.5t-29 -7.5t-20.5 -21t-7.5 -29.5t7.5 -29.5zM211 -70v23h-37v16l37 21v26l-41 -24q-3 6 -7.5 10.5t-10.5 7t-13 2.5q-10 0 -18.5 -5
t-13 -13.5t-4.5 -19.5v-44h108zM103 56h108v-24h-108v24zM211 70v25l-20 7v43l20 8v26l-108 -44v-23zM211 192v66h-21v-42h-87v-24h108zM211 306v23h-41v38h-22v-38h-23v42h-22v-65h108zM211 515v23h-68l68 50v19h-108v-23h66l-66 -47v-22h108zM125 623v30h86v24h-86v30h-22
v-84h22zM127.5 456.5q4.5 7.5 12 12t17.5 4.5t18 -4.5t12.5 -12t4.5 -17.5q0 -9 -4.5 -17t-12.5 -12.5t-18 -4.5t-17.5 4.5t-12 12.5t-4.5 17q0 10 4.5 17.5zM124 -28q0 5 2 8.5t5 5.5t7 2t7.5 -2t5.5 -5.5t2 -8.5v-19h-29v19zM170 138v-28l-39 14z" />
    <glyph glyph-name="Ldot" unicode="&#x13f;" 
d="M125 -116h86v-24h-86v-30h-22v84h22v-30zM107.5 409.5q7.5 -13.5 20.5 -21t29 -7.5t29 7.5t20.5 21t7.5 29.5t-7.5 29.5t-20.5 21t-29 7.5t-29 -7.5t-20.5 -21t-7.5 -29.5t7.5 -29.5zM211 -70v23h-37v16l37 21v26l-41 -24q-3 6 -7.5 10.5t-10.5 7t-13 2.5q-10 0 -18.5 -5
t-13 -13.5t-4.5 -19.5v-44h108zM103 56h108v-24h-108v24zM211 70v25l-20 7v43l20 8v26l-108 -44v-23zM211 192v66h-21v-42h-87v-24h108zM211 306v23h-41v38h-22v-38h-23v42h-22v-65h108zM211 515v23h-68l68 50v19h-108v-23h66l-66 -47v-22h108zM125 623v30h86v24h-86v30h-22
v-84h22zM127.5 456.5q4.5 7.5 12 12t17.5 4.5t18 -4.5t12.5 -12t4.5 -17.5q0 -9 -4.5 -17t-12.5 -12.5t-18 -4.5t-17.5 4.5t-12 12.5t-4.5 17q0 10 4.5 17.5zM124 -28q0 5 2 8.5t5 5.5t7 2t7.5 -2t5.5 -5.5t2 -8.5v-19h-29v19zM170 138v-28l-39 14z" />
    <glyph glyph-name="Lslash" unicode="&#x141;" 
d="M125 -116h86v-24h-86v-30h-22v84h22v-30zM107.5 409.5q7.5 -13.5 20.5 -21t29 -7.5t29 7.5t20.5 21t7.5 29.5t-7.5 29.5t-20.5 21t-29 7.5t-29 -7.5t-20.5 -21t-7.5 -29.5t7.5 -29.5zM211 -70v23h-37v16l37 21v26l-41 -24q-3 6 -7.5 10.5t-10.5 7t-13 2.5q-10 0 -18.5 -5
t-13 -13.5t-4.5 -19.5v-44h108zM103 56h108v-24h-108v24zM211 70v25l-20 7v43l20 8v26l-108 -44v-23zM211 192v66h-21v-42h-87v-24h108zM211 306v23h-41v38h-22v-38h-23v42h-22v-65h108zM211 515v23h-68l68 50v19h-108v-23h66l-66 -47v-22h108zM125 623v30h86v24h-86v30h-22
v-84h22zM127.5 456.5q4.5 7.5 12 12t17.5 4.5t18 -4.5t12.5 -12t4.5 -17.5q0 -9 -4.5 -17t-12.5 -12.5t-18 -4.5t-17.5 4.5t-12 12.5t-4.5 17q0 10 4.5 17.5zM124 -28q0 5 2 8.5t5 5.5t7 2t7.5 -2t5.5 -5.5t2 -8.5v-19h-29v19zM170 138v-28l-39 14z" />
    <glyph glyph-name="M" unicode="M" horiz-adv-x="841" 
d="M770 700v-700h-161v434l-189 -271l-192 272v-435h-157v700h142l207 -297l207 297h143z" />
    <glyph glyph-name="N" unicode="N" horiz-adv-x="710" 
d="M639 700v-700h-145l-268 426v-426h-155v700h146l268 -425v425h154z" />
    <glyph glyph-name="Nacute" unicode="&#x143;" 
d="M125 -116h86v-24h-86v-30h-22v84h22v-30zM107.5 409.5q7.5 -13.5 20.5 -21t29 -7.5t29 7.5t20.5 21t7.5 29.5t-7.5 29.5t-20.5 21t-29 7.5t-29 -7.5t-20.5 -21t-7.5 -29.5t7.5 -29.5zM211 -70v23h-37v16l37 21v26l-41 -24q-3 6 -7.5 10.5t-10.5 7t-13 2.5q-10 0 -18.5 -5
t-13 -13.5t-4.5 -19.5v-44h108zM103 56h108v-24h-108v24zM211 70v25l-20 7v43l20 8v26l-108 -44v-23zM211 192v66h-21v-42h-87v-24h108zM211 306v23h-41v38h-22v-38h-23v42h-22v-65h108zM211 515v23h-68l68 50v19h-108v-23h66l-66 -47v-22h108zM125 623v30h86v24h-86v30h-22
v-84h22zM127.5 456.5q4.5 7.5 12 12t17.5 4.5t18 -4.5t12.5 -12t4.5 -17.5q0 -9 -4.5 -17t-12.5 -12.5t-18 -4.5t-17.5 4.5t-12 12.5t-4.5 17q0 10 4.5 17.5zM124 -28q0 5 2 8.5t5 5.5t7 2t7.5 -2t5.5 -5.5t2 -8.5v-19h-29v19zM170 138v-28l-39 14z" />
    <glyph glyph-name="Ncaron" unicode="&#x147;" 
d="M125 -116h86v-24h-86v-30h-22v84h22v-30zM107.5 409.5q7.5 -13.5 20.5 -21t29 -7.5t29 7.5t20.5 21t7.5 29.5t-7.5 29.5t-20.5 21t-29 7.5t-29 -7.5t-20.5 -21t-7.5 -29.5t7.5 -29.5zM211 -70v23h-37v16l37 21v26l-41 -24q-3 6 -7.5 10.5t-10.5 7t-13 2.5q-10 0 -18.5 -5
t-13 -13.5t-4.5 -19.5v-44h108zM103 56h108v-24h-108v24zM211 70v25l-20 7v43l20 8v26l-108 -44v-23zM211 192v66h-21v-42h-87v-24h108zM211 306v23h-41v38h-22v-38h-23v42h-22v-65h108zM211 515v23h-68l68 50v19h-108v-23h66l-66 -47v-22h108zM125 623v30h86v24h-86v30h-22
v-84h22zM127.5 456.5q4.5 7.5 12 12t17.5 4.5t18 -4.5t12.5 -12t4.5 -17.5q0 -9 -4.5 -17t-12.5 -12.5t-18 -4.5t-17.5 4.5t-12 12.5t-4.5 17q0 10 4.5 17.5zM124 -28q0 5 2 8.5t5 5.5t7 2t7.5 -2t5.5 -5.5t2 -8.5v-19h-29v19zM170 138v-28l-39 14z" />
    <glyph glyph-name="uni0145" unicode="&#x145;" 
d="M125 -116h86v-24h-86v-30h-22v84h22v-30zM107.5 409.5q7.5 -13.5 20.5 -21t29 -7.5t29 7.5t20.5 21t7.5 29.5t-7.5 29.5t-20.5 21t-29 7.5t-29 -7.5t-20.5 -21t-7.5 -29.5t7.5 -29.5zM211 -70v23h-37v16l37 21v26l-41 -24q-3 6 -7.5 10.5t-10.5 7t-13 2.5q-10 0 -18.5 -5
t-13 -13.5t-4.5 -19.5v-44h108zM103 56h108v-24h-108v24zM211 70v25l-20 7v43l20 8v26l-108 -44v-23zM211 192v66h-21v-42h-87v-24h108zM211 306v23h-41v38h-22v-38h-23v42h-22v-65h108zM211 515v23h-68l68 50v19h-108v-23h66l-66 -47v-22h108zM125 623v30h86v24h-86v30h-22
v-84h22zM127.5 456.5q4.5 7.5 12 12t17.5 4.5t18 -4.5t12.5 -12t4.5 -17.5q0 -9 -4.5 -17t-12.5 -12.5t-18 -4.5t-17.5 4.5t-12 12.5t-4.5 17q0 10 4.5 17.5zM124 -28q0 5 2 8.5t5 5.5t7 2t7.5 -2t5.5 -5.5t2 -8.5v-19h-29v19zM170 138v-28l-39 14z" />
    <glyph glyph-name="Ntilde" unicode="&#xd1;" 
d="M125 -116h86v-24h-86v-30h-22v84h22v-30zM107.5 409.5q7.5 -13.5 20.5 -21t29 -7.5t29 7.5t20.5 21t7.5 29.5t-7.5 29.5t-20.5 21t-29 7.5t-29 -7.5t-20.5 -21t-7.5 -29.5t7.5 -29.5zM211 -70v23h-37v16l37 21v26l-41 -24q-3 6 -7.5 10.5t-10.5 7t-13 2.5q-10 0 -18.5 -5
t-13 -13.5t-4.5 -19.5v-44h108zM103 56h108v-24h-108v24zM211 70v25l-20 7v43l20 8v26l-108 -44v-23zM211 192v66h-21v-42h-87v-24h108zM211 306v23h-41v38h-22v-38h-23v42h-22v-65h108zM211 515v23h-68l68 50v19h-108v-23h66l-66 -47v-22h108zM125 623v30h86v24h-86v30h-22
v-84h22zM127.5 456.5q4.5 7.5 12 12t17.5 4.5t18 -4.5t12.5 -12t4.5 -17.5q0 -9 -4.5 -17t-12.5 -12.5t-18 -4.5t-17.5 4.5t-12 12.5t-4.5 17q0 10 4.5 17.5zM124 -28q0 5 2 8.5t5 5.5t7 2t7.5 -2t5.5 -5.5t2 -8.5v-19h-29v19zM170 138v-28l-39 14z" />
    <glyph glyph-name="Eng" unicode="&#x14a;" 
d="M125 -116h86v-24h-86v-30h-22v84h22v-30zM107.5 409.5q7.5 -13.5 20.5 -21t29 -7.5t29 7.5t20.5 21t7.5 29.5t-7.5 29.5t-20.5 21t-29 7.5t-29 -7.5t-20.5 -21t-7.5 -29.5t7.5 -29.5zM211 -70v23h-37v16l37 21v26l-41 -24q-3 6 -7.5 10.5t-10.5 7t-13 2.5q-10 0 -18.5 -5
t-13 -13.5t-4.5 -19.5v-44h108zM103 56h108v-24h-108v24zM211 70v25l-20 7v43l20 8v26l-108 -44v-23zM211 192v66h-21v-42h-87v-24h108zM211 306v23h-41v38h-22v-38h-23v42h-22v-65h108zM211 515v23h-68l68 50v19h-108v-23h66l-66 -47v-22h108zM125 623v30h86v24h-86v30h-22
v-84h22zM127.5 456.5q4.5 7.5 12 12t17.5 4.5t18 -4.5t12.5 -12t4.5 -17.5q0 -9 -4.5 -17t-12.5 -12.5t-18 -4.5t-17.5 4.5t-12 12.5t-4.5 17q0 10 4.5 17.5zM124 -28q0 5 2 8.5t5 5.5t7 2t7.5 -2t5.5 -5.5t2 -8.5v-19h-29v19zM170 138v-28l-39 14z" />
    <glyph glyph-name="O" unicode="O" horiz-adv-x="672" 
d="M170.5 21q-64.5 37 -97 117.5t-32.5 211.5t32.5 211.5t97 117.5t165.5 37t166 -37t97 -117.5t32 -211.5t-32 -211.5t-97 -117.5t-166 -37t-165.5 37zM227.5 217q13.5 -48 39.5 -67.5t69 -19.5t69.5 19.5t40 67.5t13.5 133q0 86 -13.5 134t-40 67t-69.5 19t-69 -19
t-39.5 -67t-13.5 -134q0 -85 13.5 -133z" />
    <glyph glyph-name="Oacute" unicode="&#xd3;" 
d="M125 -116h86v-24h-86v-30h-22v84h22v-30zM107.5 409.5q7.5 -13.5 20.5 -21t29 -7.5t29 7.5t20.5 21t7.5 29.5t-7.5 29.5t-20.5 21t-29 7.5t-29 -7.5t-20.5 -21t-7.5 -29.5t7.5 -29.5zM211 -70v23h-37v16l37 21v26l-41 -24q-3 6 -7.5 10.5t-10.5 7t-13 2.5q-10 0 -18.5 -5
t-13 -13.5t-4.5 -19.5v-44h108zM103 56h108v-24h-108v24zM211 70v25l-20 7v43l20 8v26l-108 -44v-23zM211 192v66h-21v-42h-87v-24h108zM211 306v23h-41v38h-22v-38h-23v42h-22v-65h108zM211 515v23h-68l68 50v19h-108v-23h66l-66 -47v-22h108zM125 623v30h86v24h-86v30h-22
v-84h22zM127.5 456.5q4.5 7.5 12 12t17.5 4.5t18 -4.5t12.5 -12t4.5 -17.5q0 -9 -4.5 -17t-12.5 -12.5t-18 -4.5t-17.5 4.5t-12 12.5t-4.5 17q0 10 4.5 17.5zM124 -28q0 5 2 8.5t5 5.5t7 2t7.5 -2t5.5 -5.5t2 -8.5v-19h-29v19zM170 138v-28l-39 14z" />
    <glyph glyph-name="Obreve" unicode="&#x14e;" 
d="M125 -116h86v-24h-86v-30h-22v84h22v-30zM107.5 409.5q7.5 -13.5 20.5 -21t29 -7.5t29 7.5t20.5 21t7.5 29.5t-7.5 29.5t-20.5 21t-29 7.5t-29 -7.5t-20.5 -21t-7.5 -29.5t7.5 -29.5zM211 -70v23h-37v16l37 21v26l-41 -24q-3 6 -7.5 10.5t-10.5 7t-13 2.5q-10 0 -18.5 -5
t-13 -13.5t-4.5 -19.5v-44h108zM103 56h108v-24h-108v24zM211 70v25l-20 7v43l20 8v26l-108 -44v-23zM211 192v66h-21v-42h-87v-24h108zM211 306v23h-41v38h-22v-38h-23v42h-22v-65h108zM211 515v23h-68l68 50v19h-108v-23h66l-66 -47v-22h108zM125 623v30h86v24h-86v30h-22
v-84h22zM127.5 456.5q4.5 7.5 12 12t17.5 4.5t18 -4.5t12.5 -12t4.5 -17.5q0 -9 -4.5 -17t-12.5 -12.5t-18 -4.5t-17.5 4.5t-12 12.5t-4.5 17q0 10 4.5 17.5zM124 -28q0 5 2 8.5t5 5.5t7 2t7.5 -2t5.5 -5.5t2 -8.5v-19h-29v19zM170 138v-28l-39 14z" />
    <glyph glyph-name="Ocircumflex" unicode="&#xd4;" 
d="M125 -116h86v-24h-86v-30h-22v84h22v-30zM107.5 409.5q7.5 -13.5 20.5 -21t29 -7.5t29 7.5t20.5 21t7.5 29.5t-7.5 29.5t-20.5 21t-29 7.5t-29 -7.5t-20.5 -21t-7.5 -29.5t7.5 -29.5zM211 -70v23h-37v16l37 21v26l-41 -24q-3 6 -7.5 10.5t-10.5 7t-13 2.5q-10 0 -18.5 -5
t-13 -13.5t-4.5 -19.5v-44h108zM103 56h108v-24h-108v24zM211 70v25l-20 7v43l20 8v26l-108 -44v-23zM211 192v66h-21v-42h-87v-24h108zM211 306v23h-41v38h-22v-38h-23v42h-22v-65h108zM211 515v23h-68l68 50v19h-108v-23h66l-66 -47v-22h108zM125 623v30h86v24h-86v30h-22
v-84h22zM127.5 456.5q4.5 7.5 12 12t17.5 4.5t18 -4.5t12.5 -12t4.5 -17.5q0 -9 -4.5 -17t-12.5 -12.5t-18 -4.5t-17.5 4.5t-12 12.5t-4.5 17q0 10 4.5 17.5zM124 -28q0 5 2 8.5t5 5.5t7 2t7.5 -2t5.5 -5.5t2 -8.5v-19h-29v19zM170 138v-28l-39 14z" />
    <glyph glyph-name="Odieresis" unicode="&#xd6;" 
d="M125 -116h86v-24h-86v-30h-22v84h22v-30zM107.5 409.5q7.5 -13.5 20.5 -21t29 -7.5t29 7.5t20.5 21t7.5 29.5t-7.5 29.5t-20.5 21t-29 7.5t-29 -7.5t-20.5 -21t-7.5 -29.5t7.5 -29.5zM211 -70v23h-37v16l37 21v26l-41 -24q-3 6 -7.5 10.5t-10.5 7t-13 2.5q-10 0 -18.5 -5
t-13 -13.5t-4.5 -19.5v-44h108zM103 56h108v-24h-108v24zM211 70v25l-20 7v43l20 8v26l-108 -44v-23zM211 192v66h-21v-42h-87v-24h108zM211 306v23h-41v38h-22v-38h-23v42h-22v-65h108zM211 515v23h-68l68 50v19h-108v-23h66l-66 -47v-22h108zM125 623v30h86v24h-86v30h-22
v-84h22zM127.5 456.5q4.5 7.5 12 12t17.5 4.5t18 -4.5t12.5 -12t4.5 -17.5q0 -9 -4.5 -17t-12.5 -12.5t-18 -4.5t-17.5 4.5t-12 12.5t-4.5 17q0 10 4.5 17.5zM124 -28q0 5 2 8.5t5 5.5t7 2t7.5 -2t5.5 -5.5t2 -8.5v-19h-29v19zM170 138v-28l-39 14z" />
    <glyph glyph-name="Ograve" unicode="&#xd2;" 
d="M125 -116h86v-24h-86v-30h-22v84h22v-30zM107.5 409.5q7.5 -13.5 20.5 -21t29 -7.5t29 7.5t20.5 21t7.5 29.5t-7.5 29.5t-20.5 21t-29 7.5t-29 -7.5t-20.5 -21t-7.5 -29.5t7.5 -29.5zM211 -70v23h-37v16l37 21v26l-41 -24q-3 6 -7.5 10.5t-10.5 7t-13 2.5q-10 0 -18.5 -5
t-13 -13.5t-4.5 -19.5v-44h108zM103 56h108v-24h-108v24zM211 70v25l-20 7v43l20 8v26l-108 -44v-23zM211 192v66h-21v-42h-87v-24h108zM211 306v23h-41v38h-22v-38h-23v42h-22v-65h108zM211 515v23h-68l68 50v19h-108v-23h66l-66 -47v-22h108zM125 623v30h86v24h-86v30h-22
v-84h22zM127.5 456.5q4.5 7.5 12 12t17.5 4.5t18 -4.5t12.5 -12t4.5 -17.5q0 -9 -4.5 -17t-12.5 -12.5t-18 -4.5t-17.5 4.5t-12 12.5t-4.5 17q0 10 4.5 17.5zM124 -28q0 5 2 8.5t5 5.5t7 2t7.5 -2t5.5 -5.5t2 -8.5v-19h-29v19zM170 138v-28l-39 14z" />
    <glyph glyph-name="Ohungarumlaut" unicode="&#x150;" 
d="M125 -116h86v-24h-86v-30h-22v84h22v-30zM107.5 409.5q7.5 -13.5 20.5 -21t29 -7.5t29 7.5t20.5 21t7.5 29.5t-7.5 29.5t-20.5 21t-29 7.5t-29 -7.5t-20.5 -21t-7.5 -29.5t7.5 -29.5zM211 -70v23h-37v16l37 21v26l-41 -24q-3 6 -7.5 10.5t-10.5 7t-13 2.5q-10 0 -18.5 -5
t-13 -13.5t-4.5 -19.5v-44h108zM103 56h108v-24h-108v24zM211 70v25l-20 7v43l20 8v26l-108 -44v-23zM211 192v66h-21v-42h-87v-24h108zM211 306v23h-41v38h-22v-38h-23v42h-22v-65h108zM211 515v23h-68l68 50v19h-108v-23h66l-66 -47v-22h108zM125 623v30h86v24h-86v30h-22
v-84h22zM127.5 456.5q4.5 7.5 12 12t17.5 4.5t18 -4.5t12.5 -12t4.5 -17.5q0 -9 -4.5 -17t-12.5 -12.5t-18 -4.5t-17.5 4.5t-12 12.5t-4.5 17q0 10 4.5 17.5zM124 -28q0 5 2 8.5t5 5.5t7 2t7.5 -2t5.5 -5.5t2 -8.5v-19h-29v19zM170 138v-28l-39 14z" />
    <glyph glyph-name="Omacron" unicode="&#x14c;" 
d="M125 -116h86v-24h-86v-30h-22v84h22v-30zM107.5 409.5q7.5 -13.5 20.5 -21t29 -7.5t29 7.5t20.5 21t7.5 29.5t-7.5 29.5t-20.5 21t-29 7.5t-29 -7.5t-20.5 -21t-7.5 -29.5t7.5 -29.5zM211 -70v23h-37v16l37 21v26l-41 -24q-3 6 -7.5 10.5t-10.5 7t-13 2.5q-10 0 -18.5 -5
t-13 -13.5t-4.5 -19.5v-44h108zM103 56h108v-24h-108v24zM211 70v25l-20 7v43l20 8v26l-108 -44v-23zM211 192v66h-21v-42h-87v-24h108zM211 306v23h-41v38h-22v-38h-23v42h-22v-65h108zM211 515v23h-68l68 50v19h-108v-23h66l-66 -47v-22h108zM125 623v30h86v24h-86v30h-22
v-84h22zM127.5 456.5q4.5 7.5 12 12t17.5 4.5t18 -4.5t12.5 -12t4.5 -17.5q0 -9 -4.5 -17t-12.5 -12.5t-18 -4.5t-17.5 4.5t-12 12.5t-4.5 17q0 10 4.5 17.5zM124 -28q0 5 2 8.5t5 5.5t7 2t7.5 -2t5.5 -5.5t2 -8.5v-19h-29v19zM170 138v-28l-39 14z" />
    <glyph glyph-name="Oslash" unicode="&#xd8;" 
d="M125 -116h86v-24h-86v-30h-22v84h22v-30zM107.5 409.5q7.5 -13.5 20.5 -21t29 -7.5t29 7.5t20.5 21t7.5 29.5t-7.5 29.5t-20.5 21t-29 7.5t-29 -7.5t-20.5 -21t-7.5 -29.5t7.5 -29.5zM211 -70v23h-37v16l37 21v26l-41 -24q-3 6 -7.5 10.5t-10.5 7t-13 2.5q-10 0 -18.5 -5
t-13 -13.5t-4.5 -19.5v-44h108zM103 56h108v-24h-108v24zM211 70v25l-20 7v43l20 8v26l-108 -44v-23zM211 192v66h-21v-42h-87v-24h108zM211 306v23h-41v38h-22v-38h-23v42h-22v-65h108zM211 515v23h-68l68 50v19h-108v-23h66l-66 -47v-22h108zM125 623v30h86v24h-86v30h-22
v-84h22zM127.5 456.5q4.5 7.5 12 12t17.5 4.5t18 -4.5t12.5 -12t4.5 -17.5q0 -9 -4.5 -17t-12.5 -12.5t-18 -4.5t-17.5 4.5t-12 12.5t-4.5 17q0 10 4.5 17.5zM124 -28q0 5 2 8.5t5 5.5t7 2t7.5 -2t5.5 -5.5t2 -8.5v-19h-29v19zM170 138v-28l-39 14z" />
    <glyph glyph-name="Oslashacute" unicode="&#x1fe;" 
d="M125 -116h86v-24h-86v-30h-22v84h22v-30zM107.5 409.5q7.5 -13.5 20.5 -21t29 -7.5t29 7.5t20.5 21t7.5 29.5t-7.5 29.5t-20.5 21t-29 7.5t-29 -7.5t-20.5 -21t-7.5 -29.5t7.5 -29.5zM211 -70v23h-37v16l37 21v26l-41 -24q-3 6 -7.5 10.5t-10.5 7t-13 2.5q-10 0 -18.5 -5
t-13 -13.5t-4.5 -19.5v-44h108zM103 56h108v-24h-108v24zM211 70v25l-20 7v43l20 8v26l-108 -44v-23zM211 192v66h-21v-42h-87v-24h108zM211 306v23h-41v38h-22v-38h-23v42h-22v-65h108zM211 515v23h-68l68 50v19h-108v-23h66l-66 -47v-22h108zM125 623v30h86v24h-86v30h-22
v-84h22zM127.5 456.5q4.5 7.5 12 12t17.5 4.5t18 -4.5t12.5 -12t4.5 -17.5q0 -9 -4.5 -17t-12.5 -12.5t-18 -4.5t-17.5 4.5t-12 12.5t-4.5 17q0 10 4.5 17.5zM124 -28q0 5 2 8.5t5 5.5t7 2t7.5 -2t5.5 -5.5t2 -8.5v-19h-29v19zM170 138v-28l-39 14z" />
    <glyph glyph-name="Otilde" unicode="&#xd5;" 
d="M125 -116h86v-24h-86v-30h-22v84h22v-30zM107.5 409.5q7.5 -13.5 20.5 -21t29 -7.5t29 7.5t20.5 21t7.5 29.5t-7.5 29.5t-20.5 21t-29 7.5t-29 -7.5t-20.5 -21t-7.5 -29.5t7.5 -29.5zM211 -70v23h-37v16l37 21v26l-41 -24q-3 6 -7.5 10.5t-10.5 7t-13 2.5q-10 0 -18.5 -5
t-13 -13.5t-4.5 -19.5v-44h108zM103 56h108v-24h-108v24zM211 70v25l-20 7v43l20 8v26l-108 -44v-23zM211 192v66h-21v-42h-87v-24h108zM211 306v23h-41v38h-22v-38h-23v42h-22v-65h108zM211 515v23h-68l68 50v19h-108v-23h66l-66 -47v-22h108zM125 623v30h86v24h-86v30h-22
v-84h22zM127.5 456.5q4.5 7.5 12 12t17.5 4.5t18 -4.5t12.5 -12t4.5 -17.5q0 -9 -4.5 -17t-12.5 -12.5t-18 -4.5t-17.5 4.5t-12 12.5t-4.5 17q0 10 4.5 17.5zM124 -28q0 5 2 8.5t5 5.5t7 2t7.5 -2t5.5 -5.5t2 -8.5v-19h-29v19zM170 138v-28l-39 14z" />
    <glyph glyph-name="OE" unicode="&#x152;" 
d="M125 -116h86v-24h-86v-30h-22v84h22v-30zM107.5 409.5q7.5 -13.5 20.5 -21t29 -7.5t29 7.5t20.5 21t7.5 29.5t-7.5 29.5t-20.5 21t-29 7.5t-29 -7.5t-20.5 -21t-7.5 -29.5t7.5 -29.5zM211 -70v23h-37v16l37 21v26l-41 -24q-3 6 -7.5 10.5t-10.5 7t-13 2.5q-10 0 -18.5 -5
t-13 -13.5t-4.5 -19.5v-44h108zM103 56h108v-24h-108v24zM211 70v25l-20 7v43l20 8v26l-108 -44v-23zM211 192v66h-21v-42h-87v-24h108zM211 306v23h-41v38h-22v-38h-23v42h-22v-65h108zM211 515v23h-68l68 50v19h-108v-23h66l-66 -47v-22h108zM125 623v30h86v24h-86v30h-22
v-84h22zM127.5 456.5q4.5 7.5 12 12t17.5 4.5t18 -4.5t12.5 -12t4.5 -17.5q0 -9 -4.5 -17t-12.5 -12.5t-18 -4.5t-17.5 4.5t-12 12.5t-4.5 17q0 10 4.5 17.5zM124 -28q0 5 2 8.5t5 5.5t7 2t7.5 -2t5.5 -5.5t2 -8.5v-19h-29v19zM170 138v-28l-39 14z" />
    <glyph glyph-name="P" unicode="P" horiz-adv-x="644" 
d="M71 700h290q86 0 144 -27.5t86.5 -79.5t28.5 -126q0 -73 -28.5 -125t-86.5 -79.5t-144 -27.5h-121v-235h-169v700zM354 374q32 0 53.5 11t32.5 32t11 50q0 30 -11 51t-32.5 32t-53.5 11h-114v-187h114z" />
    <glyph glyph-name="Thorn" unicode="&#xde;" 
d="M125 -116h86v-24h-86v-30h-22v84h22v-30zM107.5 409.5q7.5 -13.5 20.5 -21t29 -7.5t29 7.5t20.5 21t7.5 29.5t-7.5 29.5t-20.5 21t-29 7.5t-29 -7.5t-20.5 -21t-7.5 -29.5t7.5 -29.5zM211 -70v23h-37v16l37 21v26l-41 -24q-3 6 -7.5 10.5t-10.5 7t-13 2.5q-10 0 -18.5 -5
t-13 -13.5t-4.5 -19.5v-44h108zM103 56h108v-24h-108v24zM211 70v25l-20 7v43l20 8v26l-108 -44v-23zM211 192v66h-21v-42h-87v-24h108zM211 306v23h-41v38h-22v-38h-23v42h-22v-65h108zM211 515v23h-68l68 50v19h-108v-23h66l-66 -47v-22h108zM125 623v30h86v24h-86v30h-22
v-84h22zM127.5 456.5q4.5 7.5 12 12t17.5 4.5t18 -4.5t12.5 -12t4.5 -17.5q0 -9 -4.5 -17t-12.5 -12.5t-18 -4.5t-17.5 4.5t-12 12.5t-4.5 17q0 10 4.5 17.5zM124 -28q0 5 2 8.5t5 5.5t7 2t7.5 -2t5.5 -5.5t2 -8.5v-19h-29v19zM170 138v-28l-39 14z" />
    <glyph glyph-name="Q" unicode="Q" horiz-adv-x="672" 
d="M354.5 -15.5q-4.5 -0.5 -9 -0.5h-9.5q-101 0 -165.5 37t-97 117.5t-32.5 211.5t32.5 211.5t97 117.5t165.5 37t166 -37t97 -117.5t32 -211.5q0 -81 -12 -142t-36.5 -104t-62.5 -70l122 -58l-77 -134l-201 143q-5 0 -9.5 -0.5zM227.5 217q13.5 -48 39.5 -67.5t69 -19.5
t69.5 19.5t40 67.5t13.5 133q0 86 -13.5 134t-40 67t-69.5 19t-69 -19t-39.5 -67t-13.5 -134q0 -85 13.5 -133z" />
    <glyph glyph-name="R" unicode="R" horiz-adv-x="669" 
d="M461 0l-127 251h-94v-251h-169v700h288q88 0 146 -26t86.5 -76.5t28.5 -124.5q0 -49 -13.5 -87.5t-40.5 -66.5t-68 -44l148 -275h-185zM352 386q33 0 55 9.5t33 29t11 48.5q0 30 -11 49.5t-33 29t-55 9.5h-112v-175h112z" />
    <glyph glyph-name="Racute" unicode="&#x154;" 
d="M125 -116h86v-24h-86v-30h-22v84h22v-30zM107.5 409.5q7.5 -13.5 20.5 -21t29 -7.5t29 7.5t20.5 21t7.5 29.5t-7.5 29.5t-20.5 21t-29 7.5t-29 -7.5t-20.5 -21t-7.5 -29.5t7.5 -29.5zM211 -70v23h-37v16l37 21v26l-41 -24q-3 6 -7.5 10.5t-10.5 7t-13 2.5q-10 0 -18.5 -5
t-13 -13.5t-4.5 -19.5v-44h108zM103 56h108v-24h-108v24zM211 70v25l-20 7v43l20 8v26l-108 -44v-23zM211 192v66h-21v-42h-87v-24h108zM211 306v23h-41v38h-22v-38h-23v42h-22v-65h108zM211 515v23h-68l68 50v19h-108v-23h66l-66 -47v-22h108zM125 623v30h86v24h-86v30h-22
v-84h22zM127.5 456.5q4.5 7.5 12 12t17.5 4.5t18 -4.5t12.5 -12t4.5 -17.5q0 -9 -4.5 -17t-12.5 -12.5t-18 -4.5t-17.5 4.5t-12 12.5t-4.5 17q0 10 4.5 17.5zM124 -28q0 5 2 8.5t5 5.5t7 2t7.5 -2t5.5 -5.5t2 -8.5v-19h-29v19zM170 138v-28l-39 14z" />
    <glyph glyph-name="Rcaron" unicode="&#x158;" 
d="M125 -116h86v-24h-86v-30h-22v84h22v-30zM107.5 409.5q7.5 -13.5 20.5 -21t29 -7.5t29 7.5t20.5 21t7.5 29.5t-7.5 29.5t-20.5 21t-29 7.5t-29 -7.5t-20.5 -21t-7.5 -29.5t7.5 -29.5zM211 -70v23h-37v16l37 21v26l-41 -24q-3 6 -7.5 10.5t-10.5 7t-13 2.5q-10 0 -18.5 -5
t-13 -13.5t-4.5 -19.5v-44h108zM103 56h108v-24h-108v24zM211 70v25l-20 7v43l20 8v26l-108 -44v-23zM211 192v66h-21v-42h-87v-24h108zM211 306v23h-41v38h-22v-38h-23v42h-22v-65h108zM211 515v23h-68l68 50v19h-108v-23h66l-66 -47v-22h108zM125 623v30h86v24h-86v30h-22
v-84h22zM127.5 456.5q4.5 7.5 12 12t17.5 4.5t18 -4.5t12.5 -12t4.5 -17.5q0 -9 -4.5 -17t-12.5 -12.5t-18 -4.5t-17.5 4.5t-12 12.5t-4.5 17q0 10 4.5 17.5zM124 -28q0 5 2 8.5t5 5.5t7 2t7.5 -2t5.5 -5.5t2 -8.5v-19h-29v19zM170 138v-28l-39 14z" />
    <glyph glyph-name="uni0156" unicode="&#x156;" 
d="M125 -116h86v-24h-86v-30h-22v84h22v-30zM107.5 409.5q7.5 -13.5 20.5 -21t29 -7.5t29 7.5t20.5 21t7.5 29.5t-7.5 29.5t-20.5 21t-29 7.5t-29 -7.5t-20.5 -21t-7.5 -29.5t7.5 -29.5zM211 -70v23h-37v16l37 21v26l-41 -24q-3 6 -7.5 10.5t-10.5 7t-13 2.5q-10 0 -18.5 -5
t-13 -13.5t-4.5 -19.5v-44h108zM103 56h108v-24h-108v24zM211 70v25l-20 7v43l20 8v26l-108 -44v-23zM211 192v66h-21v-42h-87v-24h108zM211 306v23h-41v38h-22v-38h-23v42h-22v-65h108zM211 515v23h-68l68 50v19h-108v-23h66l-66 -47v-22h108zM125 623v30h86v24h-86v30h-22
v-84h22zM127.5 456.5q4.5 7.5 12 12t17.5 4.5t18 -4.5t12.5 -12t4.5 -17.5q0 -9 -4.5 -17t-12.5 -12.5t-18 -4.5t-17.5 4.5t-12 12.5t-4.5 17q0 10 4.5 17.5zM124 -28q0 5 2 8.5t5 5.5t7 2t7.5 -2t5.5 -5.5t2 -8.5v-19h-29v19zM170 138v-28l-39 14z" />
    <glyph glyph-name="S" unicode="S" horiz-adv-x="605" 
d="M208 -10.5q-46 5.5 -83.5 14t-62.5 16.5l-23 152q30 -10 71.5 -20t88.5 -17t90 -7q41 0 66.5 8.5t37 24.5t11.5 39q0 19 -8.5 32.5t-27 22.5t-50.5 17l-113 28q-56 13 -93 38.5t-55.5 66.5t-18.5 99q0 66 29 113.5t88.5 73t149.5 25.5q47 0 91.5 -5t79 -12.5t55.5 -15.5
l8 -148q-25 9 -61 17.5t-78 14.5t-81 6q-40 0 -63.5 -8t-34 -22t-10.5 -35q0 -20 8.5 -33.5t27 -23.5t51.5 -18l109 -26q57 -13 94.5 -38t57 -65.5t19.5 -100.5q0 -69 -29.5 -118t-91.5 -75t-157 -26q-46 0 -92 5.5z" />
    <glyph glyph-name="Sacute" unicode="&#x15a;" 
d="M125 -116h86v-24h-86v-30h-22v84h22v-30zM107.5 409.5q7.5 -13.5 20.5 -21t29 -7.5t29 7.5t20.5 21t7.5 29.5t-7.5 29.5t-20.5 21t-29 7.5t-29 -7.5t-20.5 -21t-7.5 -29.5t7.5 -29.5zM211 -70v23h-37v16l37 21v26l-41 -24q-3 6 -7.5 10.5t-10.5 7t-13 2.5q-10 0 -18.5 -5
t-13 -13.5t-4.5 -19.5v-44h108zM103 56h108v-24h-108v24zM211 70v25l-20 7v43l20 8v26l-108 -44v-23zM211 192v66h-21v-42h-87v-24h108zM211 306v23h-41v38h-22v-38h-23v42h-22v-65h108zM211 515v23h-68l68 50v19h-108v-23h66l-66 -47v-22h108zM125 623v30h86v24h-86v30h-22
v-84h22zM127.5 456.5q4.5 7.5 12 12t17.5 4.5t18 -4.5t12.5 -12t4.5 -17.5q0 -9 -4.5 -17t-12.5 -12.5t-18 -4.5t-17.5 4.5t-12 12.5t-4.5 17q0 10 4.5 17.5zM124 -28q0 5 2 8.5t5 5.5t7 2t7.5 -2t5.5 -5.5t2 -8.5v-19h-29v19zM170 138v-28l-39 14z" />
    <glyph glyph-name="Scaron" unicode="&#x160;" 
d="M125 -116h86v-24h-86v-30h-22v84h22v-30zM107.5 409.5q7.5 -13.5 20.5 -21t29 -7.5t29 7.5t20.5 21t7.5 29.5t-7.5 29.5t-20.5 21t-29 7.5t-29 -7.5t-20.5 -21t-7.5 -29.5t7.5 -29.5zM211 -70v23h-37v16l37 21v26l-41 -24q-3 6 -7.5 10.5t-10.5 7t-13 2.5q-10 0 -18.5 -5
t-13 -13.5t-4.5 -19.5v-44h108zM103 56h108v-24h-108v24zM211 70v25l-20 7v43l20 8v26l-108 -44v-23zM211 192v66h-21v-42h-87v-24h108zM211 306v23h-41v38h-22v-38h-23v42h-22v-65h108zM211 515v23h-68l68 50v19h-108v-23h66l-66 -47v-22h108zM125 623v30h86v24h-86v30h-22
v-84h22zM127.5 456.5q4.5 7.5 12 12t17.5 4.5t18 -4.5t12.5 -12t4.5 -17.5q0 -9 -4.5 -17t-12.5 -12.5t-18 -4.5t-17.5 4.5t-12 12.5t-4.5 17q0 10 4.5 17.5zM124 -28q0 5 2 8.5t5 5.5t7 2t7.5 -2t5.5 -5.5t2 -8.5v-19h-29v19zM170 138v-28l-39 14z" />
    <glyph glyph-name="Scedilla" unicode="&#x15e;" 
d="M125 -116h86v-24h-86v-30h-22v84h22v-30zM107.5 409.5q7.5 -13.5 20.5 -21t29 -7.5t29 7.5t20.5 21t7.5 29.5t-7.5 29.5t-20.5 21t-29 7.5t-29 -7.5t-20.5 -21t-7.5 -29.5t7.5 -29.5zM211 -70v23h-37v16l37 21v26l-41 -24q-3 6 -7.5 10.5t-10.5 7t-13 2.5q-10 0 -18.5 -5
t-13 -13.5t-4.5 -19.5v-44h108zM103 56h108v-24h-108v24zM211 70v25l-20 7v43l20 8v26l-108 -44v-23zM211 192v66h-21v-42h-87v-24h108zM211 306v23h-41v38h-22v-38h-23v42h-22v-65h108zM211 515v23h-68l68 50v19h-108v-23h66l-66 -47v-22h108zM125 623v30h86v24h-86v30h-22
v-84h22zM127.5 456.5q4.5 7.5 12 12t17.5 4.5t18 -4.5t12.5 -12t4.5 -17.5q0 -9 -4.5 -17t-12.5 -12.5t-18 -4.5t-17.5 4.5t-12 12.5t-4.5 17q0 10 4.5 17.5zM124 -28q0 5 2 8.5t5 5.5t7 2t7.5 -2t5.5 -5.5t2 -8.5v-19h-29v19zM170 138v-28l-39 14z" />
    <glyph glyph-name="Scircumflex" unicode="&#x15c;" 
d="M125 -116h86v-24h-86v-30h-22v84h22v-30zM107.5 409.5q7.5 -13.5 20.5 -21t29 -7.5t29 7.5t20.5 21t7.5 29.5t-7.5 29.5t-20.5 21t-29 7.5t-29 -7.5t-20.5 -21t-7.5 -29.5t7.5 -29.5zM211 -70v23h-37v16l37 21v26l-41 -24q-3 6 -7.5 10.5t-10.5 7t-13 2.5q-10 0 -18.5 -5
t-13 -13.5t-4.5 -19.5v-44h108zM103 56h108v-24h-108v24zM211 70v25l-20 7v43l20 8v26l-108 -44v-23zM211 192v66h-21v-42h-87v-24h108zM211 306v23h-41v38h-22v-38h-23v42h-22v-65h108zM211 515v23h-68l68 50v19h-108v-23h66l-66 -47v-22h108zM125 623v30h86v24h-86v30h-22
v-84h22zM127.5 456.5q4.5 7.5 12 12t17.5 4.5t18 -4.5t12.5 -12t4.5 -17.5q0 -9 -4.5 -17t-12.5 -12.5t-18 -4.5t-17.5 4.5t-12 12.5t-4.5 17q0 10 4.5 17.5zM124 -28q0 5 2 8.5t5 5.5t7 2t7.5 -2t5.5 -5.5t2 -8.5v-19h-29v19zM170 138v-28l-39 14z" />
    <glyph glyph-name="uni0218" unicode="&#x218;" 
d="M125 -116h86v-24h-86v-30h-22v84h22v-30zM107.5 409.5q7.5 -13.5 20.5 -21t29 -7.5t29 7.5t20.5 21t7.5 29.5t-7.5 29.5t-20.5 21t-29 7.5t-29 -7.5t-20.5 -21t-7.5 -29.5t7.5 -29.5zM211 -70v23h-37v16l37 21v26l-41 -24q-3 6 -7.5 10.5t-10.5 7t-13 2.5q-10 0 -18.5 -5
t-13 -13.5t-4.5 -19.5v-44h108zM103 56h108v-24h-108v24zM211 70v25l-20 7v43l20 8v26l-108 -44v-23zM211 192v66h-21v-42h-87v-24h108zM211 306v23h-41v38h-22v-38h-23v42h-22v-65h108zM211 515v23h-68l68 50v19h-108v-23h66l-66 -47v-22h108zM125 623v30h86v24h-86v30h-22
v-84h22zM127.5 456.5q4.5 7.5 12 12t17.5 4.5t18 -4.5t12.5 -12t4.5 -17.5q0 -9 -4.5 -17t-12.5 -12.5t-18 -4.5t-17.5 4.5t-12 12.5t-4.5 17q0 10 4.5 17.5zM124 -28q0 5 2 8.5t5 5.5t7 2t7.5 -2t5.5 -5.5t2 -8.5v-19h-29v19zM170 138v-28l-39 14z" />
    <glyph glyph-name="uni1E9E" unicode="&#x1e9e;" 
d="M125 -116h86v-24h-86v-30h-22v84h22v-30zM107.5 409.5q7.5 -13.5 20.5 -21t29 -7.5t29 7.5t20.5 21t7.5 29.5t-7.5 29.5t-20.5 21t-29 7.5t-29 -7.5t-20.5 -21t-7.5 -29.5t7.5 -29.5zM211 -70v23h-37v16l37 21v26l-41 -24q-3 6 -7.5 10.5t-10.5 7t-13 2.5q-10 0 -18.5 -5
t-13 -13.5t-4.5 -19.5v-44h108zM103 56h108v-24h-108v24zM211 70v25l-20 7v43l20 8v26l-108 -44v-23zM211 192v66h-21v-42h-87v-24h108zM211 306v23h-41v38h-22v-38h-23v42h-22v-65h108zM211 515v23h-68l68 50v19h-108v-23h66l-66 -47v-22h108zM125 623v30h86v24h-86v30h-22
v-84h22zM127.5 456.5q4.5 7.5 12 12t17.5 4.5t18 -4.5t12.5 -12t4.5 -17.5q0 -9 -4.5 -17t-12.5 -12.5t-18 -4.5t-17.5 4.5t-12 12.5t-4.5 17q0 10 4.5 17.5zM124 -28q0 5 2 8.5t5 5.5t7 2t7.5 -2t5.5 -5.5t2 -8.5v-19h-29v19zM170 138v-28l-39 14z" />
    <glyph glyph-name="T" unicode="T" horiz-adv-x="576" 
d="M558 551h-185v-551h-170v551h-185v149h540v-149z" />
    <glyph glyph-name="Tbar" unicode="&#x166;" 
d="M125 -116h86v-24h-86v-30h-22v84h22v-30zM107.5 409.5q7.5 -13.5 20.5 -21t29 -7.5t29 7.5t20.5 21t7.5 29.5t-7.5 29.5t-20.5 21t-29 7.5t-29 -7.5t-20.5 -21t-7.5 -29.5t7.5 -29.5zM211 -70v23h-37v16l37 21v26l-41 -24q-3 6 -7.5 10.5t-10.5 7t-13 2.5q-10 0 -18.5 -5
t-13 -13.5t-4.5 -19.5v-44h108zM103 56h108v-24h-108v24zM211 70v25l-20 7v43l20 8v26l-108 -44v-23zM211 192v66h-21v-42h-87v-24h108zM211 306v23h-41v38h-22v-38h-23v42h-22v-65h108zM211 515v23h-68l68 50v19h-108v-23h66l-66 -47v-22h108zM125 623v30h86v24h-86v30h-22
v-84h22zM127.5 456.5q4.5 7.5 12 12t17.5 4.5t18 -4.5t12.5 -12t4.5 -17.5q0 -9 -4.5 -17t-12.5 -12.5t-18 -4.5t-17.5 4.5t-12 12.5t-4.5 17q0 10 4.5 17.5zM124 -28q0 5 2 8.5t5 5.5t7 2t7.5 -2t5.5 -5.5t2 -8.5v-19h-29v19zM170 138v-28l-39 14z" />
    <glyph glyph-name="Tcaron" unicode="&#x164;" 
d="M125 -116h86v-24h-86v-30h-22v84h22v-30zM107.5 409.5q7.5 -13.5 20.5 -21t29 -7.5t29 7.5t20.5 21t7.5 29.5t-7.5 29.5t-20.5 21t-29 7.5t-29 -7.5t-20.5 -21t-7.5 -29.5t7.5 -29.5zM211 -70v23h-37v16l37 21v26l-41 -24q-3 6 -7.5 10.5t-10.5 7t-13 2.5q-10 0 -18.5 -5
t-13 -13.5t-4.5 -19.5v-44h108zM103 56h108v-24h-108v24zM211 70v25l-20 7v43l20 8v26l-108 -44v-23zM211 192v66h-21v-42h-87v-24h108zM211 306v23h-41v38h-22v-38h-23v42h-22v-65h108zM211 515v23h-68l68 50v19h-108v-23h66l-66 -47v-22h108zM125 623v30h86v24h-86v30h-22
v-84h22zM127.5 456.5q4.5 7.5 12 12t17.5 4.5t18 -4.5t12.5 -12t4.5 -17.5q0 -9 -4.5 -17t-12.5 -12.5t-18 -4.5t-17.5 4.5t-12 12.5t-4.5 17q0 10 4.5 17.5zM124 -28q0 5 2 8.5t5 5.5t7 2t7.5 -2t5.5 -5.5t2 -8.5v-19h-29v19zM170 138v-28l-39 14z" />
    <glyph glyph-name="U" unicode="U" horiz-adv-x="676" 
d="M185.5 13.5q-60.5 29.5 -90.5 90t-30 154.5v442h170v-442q0 -45 11.5 -72t34 -39.5t57.5 -12.5q34 0 57 12.5t34.5 40t11.5 71.5v442h170v-442q0 -94 -30 -154.5t-90.5 -90t-152.5 -29.5t-152.5 29.5z" />
    <glyph glyph-name="Uacute" unicode="&#xda;" 
d="M125 -116h86v-24h-86v-30h-22v84h22v-30zM107.5 409.5q7.5 -13.5 20.5 -21t29 -7.5t29 7.5t20.5 21t7.5 29.5t-7.5 29.5t-20.5 21t-29 7.5t-29 -7.5t-20.5 -21t-7.5 -29.5t7.5 -29.5zM211 -70v23h-37v16l37 21v26l-41 -24q-3 6 -7.5 10.5t-10.5 7t-13 2.5q-10 0 -18.5 -5
t-13 -13.5t-4.5 -19.5v-44h108zM103 56h108v-24h-108v24zM211 70v25l-20 7v43l20 8v26l-108 -44v-23zM211 192v66h-21v-42h-87v-24h108zM211 306v23h-41v38h-22v-38h-23v42h-22v-65h108zM211 515v23h-68l68 50v19h-108v-23h66l-66 -47v-22h108zM125 623v30h86v24h-86v30h-22
v-84h22zM127.5 456.5q4.5 7.5 12 12t17.5 4.5t18 -4.5t12.5 -12t4.5 -17.5q0 -9 -4.5 -17t-12.5 -12.5t-18 -4.5t-17.5 4.5t-12 12.5t-4.5 17q0 10 4.5 17.5zM124 -28q0 5 2 8.5t5 5.5t7 2t7.5 -2t5.5 -5.5t2 -8.5v-19h-29v19zM170 138v-28l-39 14z" />
    <glyph glyph-name="Ucircumflex" unicode="&#xdb;" 
d="M125 -116h86v-24h-86v-30h-22v84h22v-30zM107.5 409.5q7.5 -13.5 20.5 -21t29 -7.5t29 7.5t20.5 21t7.5 29.5t-7.5 29.5t-20.5 21t-29 7.5t-29 -7.5t-20.5 -21t-7.5 -29.5t7.5 -29.5zM211 -70v23h-37v16l37 21v26l-41 -24q-3 6 -7.5 10.5t-10.5 7t-13 2.5q-10 0 -18.5 -5
t-13 -13.5t-4.5 -19.5v-44h108zM103 56h108v-24h-108v24zM211 70v25l-20 7v43l20 8v26l-108 -44v-23zM211 192v66h-21v-42h-87v-24h108zM211 306v23h-41v38h-22v-38h-23v42h-22v-65h108zM211 515v23h-68l68 50v19h-108v-23h66l-66 -47v-22h108zM125 623v30h86v24h-86v30h-22
v-84h22zM127.5 456.5q4.5 7.5 12 12t17.5 4.5t18 -4.5t12.5 -12t4.5 -17.5q0 -9 -4.5 -17t-12.5 -12.5t-18 -4.5t-17.5 4.5t-12 12.5t-4.5 17q0 10 4.5 17.5zM124 -28q0 5 2 8.5t5 5.5t7 2t7.5 -2t5.5 -5.5t2 -8.5v-19h-29v19zM170 138v-28l-39 14z" />
    <glyph glyph-name="Udieresis" unicode="&#xdc;" 
d="M125 -116h86v-24h-86v-30h-22v84h22v-30zM107.5 409.5q7.5 -13.5 20.5 -21t29 -7.5t29 7.5t20.5 21t7.5 29.5t-7.5 29.5t-20.5 21t-29 7.5t-29 -7.5t-20.5 -21t-7.5 -29.5t7.5 -29.5zM211 -70v23h-37v16l37 21v26l-41 -24q-3 6 -7.5 10.5t-10.5 7t-13 2.5q-10 0 -18.5 -5
t-13 -13.5t-4.5 -19.5v-44h108zM103 56h108v-24h-108v24zM211 70v25l-20 7v43l20 8v26l-108 -44v-23zM211 192v66h-21v-42h-87v-24h108zM211 306v23h-41v38h-22v-38h-23v42h-22v-65h108zM211 515v23h-68l68 50v19h-108v-23h66l-66 -47v-22h108zM125 623v30h86v24h-86v30h-22
v-84h22zM127.5 456.5q4.5 7.5 12 12t17.5 4.5t18 -4.5t12.5 -12t4.5 -17.5q0 -9 -4.5 -17t-12.5 -12.5t-18 -4.5t-17.5 4.5t-12 12.5t-4.5 17q0 10 4.5 17.5zM124 -28q0 5 2 8.5t5 5.5t7 2t7.5 -2t5.5 -5.5t2 -8.5v-19h-29v19zM170 138v-28l-39 14z" />
    <glyph glyph-name="Ugrave" unicode="&#xd9;" 
d="M125 -116h86v-24h-86v-30h-22v84h22v-30zM107.5 409.5q7.5 -13.5 20.5 -21t29 -7.5t29 7.5t20.5 21t7.5 29.5t-7.5 29.5t-20.5 21t-29 7.5t-29 -7.5t-20.5 -21t-7.5 -29.5t7.5 -29.5zM211 -70v23h-37v16l37 21v26l-41 -24q-3 6 -7.5 10.5t-10.5 7t-13 2.5q-10 0 -18.5 -5
t-13 -13.5t-4.5 -19.5v-44h108zM103 56h108v-24h-108v24zM211 70v25l-20 7v43l20 8v26l-108 -44v-23zM211 192v66h-21v-42h-87v-24h108zM211 306v23h-41v38h-22v-38h-23v42h-22v-65h108zM211 515v23h-68l68 50v19h-108v-23h66l-66 -47v-22h108zM125 623v30h86v24h-86v30h-22
v-84h22zM127.5 456.5q4.5 7.5 12 12t17.5 4.5t18 -4.5t12.5 -12t4.5 -17.5q0 -9 -4.5 -17t-12.5 -12.5t-18 -4.5t-17.5 4.5t-12 12.5t-4.5 17q0 10 4.5 17.5zM124 -28q0 5 2 8.5t5 5.5t7 2t7.5 -2t5.5 -5.5t2 -8.5v-19h-29v19zM170 138v-28l-39 14z" />
    <glyph glyph-name="Uhungarumlaut" unicode="&#x170;" 
d="M125 -116h86v-24h-86v-30h-22v84h22v-30zM107.5 409.5q7.5 -13.5 20.5 -21t29 -7.5t29 7.5t20.5 21t7.5 29.5t-7.5 29.5t-20.5 21t-29 7.5t-29 -7.5t-20.5 -21t-7.5 -29.5t7.5 -29.5zM211 -70v23h-37v16l37 21v26l-41 -24q-3 6 -7.5 10.5t-10.5 7t-13 2.5q-10 0 -18.5 -5
t-13 -13.5t-4.5 -19.5v-44h108zM103 56h108v-24h-108v24zM211 70v25l-20 7v43l20 8v26l-108 -44v-23zM211 192v66h-21v-42h-87v-24h108zM211 306v23h-41v38h-22v-38h-23v42h-22v-65h108zM211 515v23h-68l68 50v19h-108v-23h66l-66 -47v-22h108zM125 623v30h86v24h-86v30h-22
v-84h22zM127.5 456.5q4.5 7.5 12 12t17.5 4.5t18 -4.5t12.5 -12t4.5 -17.5q0 -9 -4.5 -17t-12.5 -12.5t-18 -4.5t-17.5 4.5t-12 12.5t-4.5 17q0 10 4.5 17.5zM124 -28q0 5 2 8.5t5 5.5t7 2t7.5 -2t5.5 -5.5t2 -8.5v-19h-29v19zM170 138v-28l-39 14z" />
    <glyph glyph-name="Umacron" unicode="&#x16a;" 
d="M125 -116h86v-24h-86v-30h-22v84h22v-30zM107.5 409.5q7.5 -13.5 20.5 -21t29 -7.5t29 7.5t20.5 21t7.5 29.5t-7.5 29.5t-20.5 21t-29 7.5t-29 -7.5t-20.5 -21t-7.5 -29.5t7.5 -29.5zM211 -70v23h-37v16l37 21v26l-41 -24q-3 6 -7.5 10.5t-10.5 7t-13 2.5q-10 0 -18.5 -5
t-13 -13.5t-4.5 -19.5v-44h108zM103 56h108v-24h-108v24zM211 70v25l-20 7v43l20 8v26l-108 -44v-23zM211 192v66h-21v-42h-87v-24h108zM211 306v23h-41v38h-22v-38h-23v42h-22v-65h108zM211 515v23h-68l68 50v19h-108v-23h66l-66 -47v-22h108zM125 623v30h86v24h-86v30h-22
v-84h22zM127.5 456.5q4.5 7.5 12 12t17.5 4.5t18 -4.5t12.5 -12t4.5 -17.5q0 -9 -4.5 -17t-12.5 -12.5t-18 -4.5t-17.5 4.5t-12 12.5t-4.5 17q0 10 4.5 17.5zM124 -28q0 5 2 8.5t5 5.5t7 2t7.5 -2t5.5 -5.5t2 -8.5v-19h-29v19zM170 138v-28l-39 14z" />
    <glyph glyph-name="Uogonek" unicode="&#x172;" 
d="M125 -116h86v-24h-86v-30h-22v84h22v-30zM107.5 409.5q7.5 -13.5 20.5 -21t29 -7.5t29 7.5t20.5 21t7.5 29.5t-7.5 29.5t-20.5 21t-29 7.5t-29 -7.5t-20.5 -21t-7.5 -29.5t7.5 -29.5zM211 -70v23h-37v16l37 21v26l-41 -24q-3 6 -7.5 10.5t-10.5 7t-13 2.5q-10 0 -18.5 -5
t-13 -13.5t-4.5 -19.5v-44h108zM103 56h108v-24h-108v24zM211 70v25l-20 7v43l20 8v26l-108 -44v-23zM211 192v66h-21v-42h-87v-24h108zM211 306v23h-41v38h-22v-38h-23v42h-22v-65h108zM211 515v23h-68l68 50v19h-108v-23h66l-66 -47v-22h108zM125 623v30h86v24h-86v30h-22
v-84h22zM127.5 456.5q4.5 7.5 12 12t17.5 4.5t18 -4.5t12.5 -12t4.5 -17.5q0 -9 -4.5 -17t-12.5 -12.5t-18 -4.5t-17.5 4.5t-12 12.5t-4.5 17q0 10 4.5 17.5zM124 -28q0 5 2 8.5t5 5.5t7 2t7.5 -2t5.5 -5.5t2 -8.5v-19h-29v19zM170 138v-28l-39 14z" />
    <glyph glyph-name="Uring" unicode="&#x16e;" 
d="M125 -116h86v-24h-86v-30h-22v84h22v-30zM107.5 409.5q7.5 -13.5 20.5 -21t29 -7.5t29 7.5t20.5 21t7.5 29.5t-7.5 29.5t-20.5 21t-29 7.5t-29 -7.5t-20.5 -21t-7.5 -29.5t7.5 -29.5zM211 -70v23h-37v16l37 21v26l-41 -24q-3 6 -7.5 10.5t-10.5 7t-13 2.5q-10 0 -18.5 -5
t-13 -13.5t-4.5 -19.5v-44h108zM103 56h108v-24h-108v24zM211 70v25l-20 7v43l20 8v26l-108 -44v-23zM211 192v66h-21v-42h-87v-24h108zM211 306v23h-41v38h-22v-38h-23v42h-22v-65h108zM211 515v23h-68l68 50v19h-108v-23h66l-66 -47v-22h108zM125 623v30h86v24h-86v30h-22
v-84h22zM127.5 456.5q4.5 7.5 12 12t17.5 4.5t18 -4.5t12.5 -12t4.5 -17.5q0 -9 -4.5 -17t-12.5 -12.5t-18 -4.5t-17.5 4.5t-12 12.5t-4.5 17q0 10 4.5 17.5zM124 -28q0 5 2 8.5t5 5.5t7 2t7.5 -2t5.5 -5.5t2 -8.5v-19h-29v19zM170 138v-28l-39 14z" />
    <glyph glyph-name="Utilde" unicode="&#x168;" 
d="M125 -116h86v-24h-86v-30h-22v84h22v-30zM107.5 409.5q7.5 -13.5 20.5 -21t29 -7.5t29 7.5t20.5 21t7.5 29.5t-7.5 29.5t-20.5 21t-29 7.5t-29 -7.5t-20.5 -21t-7.5 -29.5t7.5 -29.5zM211 -70v23h-37v16l37 21v26l-41 -24q-3 6 -7.5 10.5t-10.5 7t-13 2.5q-10 0 -18.5 -5
t-13 -13.5t-4.5 -19.5v-44h108zM103 56h108v-24h-108v24zM211 70v25l-20 7v43l20 8v26l-108 -44v-23zM211 192v66h-21v-42h-87v-24h108zM211 306v23h-41v38h-22v-38h-23v42h-22v-65h108zM211 515v23h-68l68 50v19h-108v-23h66l-66 -47v-22h108zM125 623v30h86v24h-86v30h-22
v-84h22zM127.5 456.5q4.5 7.5 12 12t17.5 4.5t18 -4.5t12.5 -12t4.5 -17.5q0 -9 -4.5 -17t-12.5 -12.5t-18 -4.5t-17.5 4.5t-12 12.5t-4.5 17q0 10 4.5 17.5zM124 -28q0 5 2 8.5t5 5.5t7 2t7.5 -2t5.5 -5.5t2 -8.5v-19h-29v19zM170 138v-28l-39 14z" />
    <glyph glyph-name="V" unicode="V" horiz-adv-x="647" 
d="M643 700l-237 -700h-164l-239 700h183l139 -469l141 469h177z" />
    <glyph glyph-name="W" unicode="W" horiz-adv-x="912" 
d="M895 700l-137 -700h-167l-134 359l-135 -359h-166l-139 700h171l76 -464l178 464h34l177 -464l76 464h166z" />
    <glyph glyph-name="Wacute" unicode="&#x1e82;" 
d="M125 -116h86v-24h-86v-30h-22v84h22v-30zM107.5 409.5q7.5 -13.5 20.5 -21t29 -7.5t29 7.5t20.5 21t7.5 29.5t-7.5 29.5t-20.5 21t-29 7.5t-29 -7.5t-20.5 -21t-7.5 -29.5t7.5 -29.5zM211 -70v23h-37v16l37 21v26l-41 -24q-3 6 -7.5 10.5t-10.5 7t-13 2.5q-10 0 -18.5 -5
t-13 -13.5t-4.5 -19.5v-44h108zM103 56h108v-24h-108v24zM211 70v25l-20 7v43l20 8v26l-108 -44v-23zM211 192v66h-21v-42h-87v-24h108zM211 306v23h-41v38h-22v-38h-23v42h-22v-65h108zM211 515v23h-68l68 50v19h-108v-23h66l-66 -47v-22h108zM125 623v30h86v24h-86v30h-22
v-84h22zM127.5 456.5q4.5 7.5 12 12t17.5 4.5t18 -4.5t12.5 -12t4.5 -17.5q0 -9 -4.5 -17t-12.5 -12.5t-18 -4.5t-17.5 4.5t-12 12.5t-4.5 17q0 10 4.5 17.5zM124 -28q0 5 2 8.5t5 5.5t7 2t7.5 -2t5.5 -5.5t2 -8.5v-19h-29v19zM170 138v-28l-39 14z" />
    <glyph glyph-name="Wcircumflex" unicode="&#x174;" 
d="M125 -116h86v-24h-86v-30h-22v84h22v-30zM107.5 409.5q7.5 -13.5 20.5 -21t29 -7.5t29 7.5t20.5 21t7.5 29.5t-7.5 29.5t-20.5 21t-29 7.5t-29 -7.5t-20.5 -21t-7.5 -29.5t7.5 -29.5zM211 -70v23h-37v16l37 21v26l-41 -24q-3 6 -7.5 10.5t-10.5 7t-13 2.5q-10 0 -18.5 -5
t-13 -13.5t-4.5 -19.5v-44h108zM103 56h108v-24h-108v24zM211 70v25l-20 7v43l20 8v26l-108 -44v-23zM211 192v66h-21v-42h-87v-24h108zM211 306v23h-41v38h-22v-38h-23v42h-22v-65h108zM211 515v23h-68l68 50v19h-108v-23h66l-66 -47v-22h108zM125 623v30h86v24h-86v30h-22
v-84h22zM127.5 456.5q4.5 7.5 12 12t17.5 4.5t18 -4.5t12.5 -12t4.5 -17.5q0 -9 -4.5 -17t-12.5 -12.5t-18 -4.5t-17.5 4.5t-12 12.5t-4.5 17q0 10 4.5 17.5zM124 -28q0 5 2 8.5t5 5.5t7 2t7.5 -2t5.5 -5.5t2 -8.5v-19h-29v19zM170 138v-28l-39 14z" />
    <glyph glyph-name="Wdieresis" unicode="&#x1e84;" 
d="M125 -116h86v-24h-86v-30h-22v84h22v-30zM107.5 409.5q7.5 -13.5 20.5 -21t29 -7.5t29 7.5t20.5 21t7.5 29.5t-7.5 29.5t-20.5 21t-29 7.5t-29 -7.5t-20.5 -21t-7.5 -29.5t7.5 -29.5zM211 -70v23h-37v16l37 21v26l-41 -24q-3 6 -7.5 10.5t-10.5 7t-13 2.5q-10 0 -18.5 -5
t-13 -13.5t-4.5 -19.5v-44h108zM103 56h108v-24h-108v24zM211 70v25l-20 7v43l20 8v26l-108 -44v-23zM211 192v66h-21v-42h-87v-24h108zM211 306v23h-41v38h-22v-38h-23v42h-22v-65h108zM211 515v23h-68l68 50v19h-108v-23h66l-66 -47v-22h108zM125 623v30h86v24h-86v30h-22
v-84h22zM127.5 456.5q4.5 7.5 12 12t17.5 4.5t18 -4.5t12.5 -12t4.5 -17.5q0 -9 -4.5 -17t-12.5 -12.5t-18 -4.5t-17.5 4.5t-12 12.5t-4.5 17q0 10 4.5 17.5zM124 -28q0 5 2 8.5t5 5.5t7 2t7.5 -2t5.5 -5.5t2 -8.5v-19h-29v19zM170 138v-28l-39 14z" />
    <glyph glyph-name="Wgrave" unicode="&#x1e80;" 
d="M125 -116h86v-24h-86v-30h-22v84h22v-30zM107.5 409.5q7.5 -13.5 20.5 -21t29 -7.5t29 7.5t20.5 21t7.5 29.5t-7.5 29.5t-20.5 21t-29 7.5t-29 -7.5t-20.5 -21t-7.5 -29.5t7.5 -29.5zM211 -70v23h-37v16l37 21v26l-41 -24q-3 6 -7.5 10.5t-10.5 7t-13 2.5q-10 0 -18.5 -5
t-13 -13.5t-4.5 -19.5v-44h108zM103 56h108v-24h-108v24zM211 70v25l-20 7v43l20 8v26l-108 -44v-23zM211 192v66h-21v-42h-87v-24h108zM211 306v23h-41v38h-22v-38h-23v42h-22v-65h108zM211 515v23h-68l68 50v19h-108v-23h66l-66 -47v-22h108zM125 623v30h86v24h-86v30h-22
v-84h22zM127.5 456.5q4.5 7.5 12 12t17.5 4.5t18 -4.5t12.5 -12t4.5 -17.5q0 -9 -4.5 -17t-12.5 -12.5t-18 -4.5t-17.5 4.5t-12 12.5t-4.5 17q0 10 4.5 17.5zM124 -28q0 5 2 8.5t5 5.5t7 2t7.5 -2t5.5 -5.5t2 -8.5v-19h-29v19zM170 138v-28l-39 14z" />
    <glyph glyph-name="X" unicode="X" horiz-adv-x="645" 
d="M448 0l-127 236l-130 -236h-192l222 361l-207 339h196l115 -209l115 209h190l-205 -336l220 -364h-197z" />
    <glyph glyph-name="Y" unicode="Y" horiz-adv-x="631" 
d="M401 256v-256h-171v256l-227 444h186l128 -278l127 278h182z" />
    <glyph glyph-name="Yacute" unicode="&#xdd;" 
d="M125 -116h86v-24h-86v-30h-22v84h22v-30zM107.5 409.5q7.5 -13.5 20.5 -21t29 -7.5t29 7.5t20.5 21t7.5 29.5t-7.5 29.5t-20.5 21t-29 7.5t-29 -7.5t-20.5 -21t-7.5 -29.5t7.5 -29.5zM211 -70v23h-37v16l37 21v26l-41 -24q-3 6 -7.5 10.5t-10.5 7t-13 2.5q-10 0 -18.5 -5
t-13 -13.5t-4.5 -19.5v-44h108zM103 56h108v-24h-108v24zM211 70v25l-20 7v43l20 8v26l-108 -44v-23zM211 192v66h-21v-42h-87v-24h108zM211 306v23h-41v38h-22v-38h-23v42h-22v-65h108zM211 515v23h-68l68 50v19h-108v-23h66l-66 -47v-22h108zM125 623v30h86v24h-86v30h-22
v-84h22zM127.5 456.5q4.5 7.5 12 12t17.5 4.5t18 -4.5t12.5 -12t4.5 -17.5q0 -9 -4.5 -17t-12.5 -12.5t-18 -4.5t-17.5 4.5t-12 12.5t-4.5 17q0 10 4.5 17.5zM124 -28q0 5 2 8.5t5 5.5t7 2t7.5 -2t5.5 -5.5t2 -8.5v-19h-29v19zM170 138v-28l-39 14z" />
    <glyph glyph-name="Ycircumflex" unicode="&#x176;" 
d="M125 -116h86v-24h-86v-30h-22v84h22v-30zM107.5 409.5q7.5 -13.5 20.5 -21t29 -7.5t29 7.5t20.5 21t7.5 29.5t-7.5 29.5t-20.5 21t-29 7.5t-29 -7.5t-20.5 -21t-7.5 -29.5t7.5 -29.5zM211 -70v23h-37v16l37 21v26l-41 -24q-3 6 -7.5 10.5t-10.5 7t-13 2.5q-10 0 -18.5 -5
t-13 -13.5t-4.5 -19.5v-44h108zM103 56h108v-24h-108v24zM211 70v25l-20 7v43l20 8v26l-108 -44v-23zM211 192v66h-21v-42h-87v-24h108zM211 306v23h-41v38h-22v-38h-23v42h-22v-65h108zM211 515v23h-68l68 50v19h-108v-23h66l-66 -47v-22h108zM125 623v30h86v24h-86v30h-22
v-84h22zM127.5 456.5q4.5 7.5 12 12t17.5 4.5t18 -4.5t12.5 -12t4.5 -17.5q0 -9 -4.5 -17t-12.5 -12.5t-18 -4.5t-17.5 4.5t-12 12.5t-4.5 17q0 10 4.5 17.5zM124 -28q0 5 2 8.5t5 5.5t7 2t7.5 -2t5.5 -5.5t2 -8.5v-19h-29v19zM170 138v-28l-39 14z" />
    <glyph glyph-name="Ydieresis" unicode="&#x178;" 
d="M125 -116h86v-24h-86v-30h-22v84h22v-30zM107.5 409.5q7.5 -13.5 20.5 -21t29 -7.5t29 7.5t20.5 21t7.5 29.5t-7.5 29.5t-20.5 21t-29 7.5t-29 -7.5t-20.5 -21t-7.5 -29.5t7.5 -29.5zM211 -70v23h-37v16l37 21v26l-41 -24q-3 6 -7.5 10.5t-10.5 7t-13 2.5q-10 0 -18.5 -5
t-13 -13.5t-4.5 -19.5v-44h108zM103 56h108v-24h-108v24zM211 70v25l-20 7v43l20 8v26l-108 -44v-23zM211 192v66h-21v-42h-87v-24h108zM211 306v23h-41v38h-22v-38h-23v42h-22v-65h108zM211 515v23h-68l68 50v19h-108v-23h66l-66 -47v-22h108zM125 623v30h86v24h-86v30h-22
v-84h22zM127.5 456.5q4.5 7.5 12 12t17.5 4.5t18 -4.5t12.5 -12t4.5 -17.5q0 -9 -4.5 -17t-12.5 -12.5t-18 -4.5t-17.5 4.5t-12 12.5t-4.5 17q0 10 4.5 17.5zM124 -28q0 5 2 8.5t5 5.5t7 2t7.5 -2t5.5 -5.5t2 -8.5v-19h-29v19zM170 138v-28l-39 14z" />
    <glyph glyph-name="Ygrave" unicode="&#x1ef2;" 
d="M125 -116h86v-24h-86v-30h-22v84h22v-30zM107.5 409.5q7.5 -13.5 20.5 -21t29 -7.5t29 7.5t20.5 21t7.5 29.5t-7.5 29.5t-20.5 21t-29 7.5t-29 -7.5t-20.5 -21t-7.5 -29.5t7.5 -29.5zM211 -70v23h-37v16l37 21v26l-41 -24q-3 6 -7.5 10.5t-10.5 7t-13 2.5q-10 0 -18.5 -5
t-13 -13.5t-4.5 -19.5v-44h108zM103 56h108v-24h-108v24zM211 70v25l-20 7v43l20 8v26l-108 -44v-23zM211 192v66h-21v-42h-87v-24h108zM211 306v23h-41v38h-22v-38h-23v42h-22v-65h108zM211 515v23h-68l68 50v19h-108v-23h66l-66 -47v-22h108zM125 623v30h86v24h-86v30h-22
v-84h22zM127.5 456.5q4.5 7.5 12 12t17.5 4.5t18 -4.5t12.5 -12t4.5 -17.5q0 -9 -4.5 -17t-12.5 -12.5t-18 -4.5t-17.5 4.5t-12 12.5t-4.5 17q0 10 4.5 17.5zM124 -28q0 5 2 8.5t5 5.5t7 2t7.5 -2t5.5 -5.5t2 -8.5v-19h-29v19zM170 138v-28l-39 14z" />
    <glyph glyph-name="Z" unicode="Z" horiz-adv-x="587" 
d="M555 147l-24 -147h-496v129l304 424h-290v147h493v-129l-303 -424h316z" />
    <glyph glyph-name="Zacute" unicode="&#x179;" 
d="M125 -116h86v-24h-86v-30h-22v84h22v-30zM107.5 409.5q7.5 -13.5 20.5 -21t29 -7.5t29 7.5t20.5 21t7.5 29.5t-7.5 29.5t-20.5 21t-29 7.5t-29 -7.5t-20.5 -21t-7.5 -29.5t7.5 -29.5zM211 -70v23h-37v16l37 21v26l-41 -24q-3 6 -7.5 10.5t-10.5 7t-13 2.5q-10 0 -18.5 -5
t-13 -13.5t-4.5 -19.5v-44h108zM103 56h108v-24h-108v24zM211 70v25l-20 7v43l20 8v26l-108 -44v-23zM211 192v66h-21v-42h-87v-24h108zM211 306v23h-41v38h-22v-38h-23v42h-22v-65h108zM211 515v23h-68l68 50v19h-108v-23h66l-66 -47v-22h108zM125 623v30h86v24h-86v30h-22
v-84h22zM127.5 456.5q4.5 7.5 12 12t17.5 4.5t18 -4.5t12.5 -12t4.5 -17.5q0 -9 -4.5 -17t-12.5 -12.5t-18 -4.5t-17.5 4.5t-12 12.5t-4.5 17q0 10 4.5 17.5zM124 -28q0 5 2 8.5t5 5.5t7 2t7.5 -2t5.5 -5.5t2 -8.5v-19h-29v19zM170 138v-28l-39 14z" />
    <glyph glyph-name="Zcaron" unicode="&#x17d;" 
d="M125 -116h86v-24h-86v-30h-22v84h22v-30zM107.5 409.5q7.5 -13.5 20.5 -21t29 -7.5t29 7.5t20.5 21t7.5 29.5t-7.5 29.5t-20.5 21t-29 7.5t-29 -7.5t-20.5 -21t-7.5 -29.5t7.5 -29.5zM211 -70v23h-37v16l37 21v26l-41 -24q-3 6 -7.5 10.5t-10.5 7t-13 2.5q-10 0 -18.5 -5
t-13 -13.5t-4.5 -19.5v-44h108zM103 56h108v-24h-108v24zM211 70v25l-20 7v43l20 8v26l-108 -44v-23zM211 192v66h-21v-42h-87v-24h108zM211 306v23h-41v38h-22v-38h-23v42h-22v-65h108zM211 515v23h-68l68 50v19h-108v-23h66l-66 -47v-22h108zM125 623v30h86v24h-86v30h-22
v-84h22zM127.5 456.5q4.5 7.5 12 12t17.5 4.5t18 -4.5t12.5 -12t4.5 -17.5q0 -9 -4.5 -17t-12.5 -12.5t-18 -4.5t-17.5 4.5t-12 12.5t-4.5 17q0 10 4.5 17.5zM124 -28q0 5 2 8.5t5 5.5t7 2t7.5 -2t5.5 -5.5t2 -8.5v-19h-29v19zM170 138v-28l-39 14z" />
    <glyph glyph-name="Zdotaccent" unicode="&#x17b;" 
d="M125 -116h86v-24h-86v-30h-22v84h22v-30zM107.5 409.5q7.5 -13.5 20.5 -21t29 -7.5t29 7.5t20.5 21t7.5 29.5t-7.5 29.5t-20.5 21t-29 7.5t-29 -7.5t-20.5 -21t-7.5 -29.5t7.5 -29.5zM211 -70v23h-37v16l37 21v26l-41 -24q-3 6 -7.5 10.5t-10.5 7t-13 2.5q-10 0 -18.5 -5
t-13 -13.5t-4.5 -19.5v-44h108zM103 56h108v-24h-108v24zM211 70v25l-20 7v43l20 8v26l-108 -44v-23zM211 192v66h-21v-42h-87v-24h108zM211 306v23h-41v38h-22v-38h-23v42h-22v-65h108zM211 515v23h-68l68 50v19h-108v-23h66l-66 -47v-22h108zM125 623v30h86v24h-86v30h-22
v-84h22zM127.5 456.5q4.5 7.5 12 12t17.5 4.5t18 -4.5t12.5 -12t4.5 -17.5q0 -9 -4.5 -17t-12.5 -12.5t-18 -4.5t-17.5 4.5t-12 12.5t-4.5 17q0 10 4.5 17.5zM124 -28q0 5 2 8.5t5 5.5t7 2t7.5 -2t5.5 -5.5t2 -8.5v-19h-29v19zM170 138v-28l-39 14z" />
    <glyph glyph-name="uni0162" unicode="&#x162;" 
d="M125 -116h86v-24h-86v-30h-22v84h22v-30zM107.5 409.5q7.5 -13.5 20.5 -21t29 -7.5t29 7.5t20.5 21t7.5 29.5t-7.5 29.5t-20.5 21t-29 7.5t-29 -7.5t-20.5 -21t-7.5 -29.5t7.5 -29.5zM211 -70v23h-37v16l37 21v26l-41 -24q-3 6 -7.5 10.5t-10.5 7t-13 2.5q-10 0 -18.5 -5
t-13 -13.5t-4.5 -19.5v-44h108zM103 56h108v-24h-108v24zM211 70v25l-20 7v43l20 8v26l-108 -44v-23zM211 192v66h-21v-42h-87v-24h108zM211 306v23h-41v38h-22v-38h-23v42h-22v-65h108zM211 515v23h-68l68 50v19h-108v-23h66l-66 -47v-22h108zM125 623v30h86v24h-86v30h-22
v-84h22zM127.5 456.5q4.5 7.5 12 12t17.5 4.5t18 -4.5t12.5 -12t4.5 -17.5q0 -9 -4.5 -17t-12.5 -12.5t-18 -4.5t-17.5 4.5t-12 12.5t-4.5 17q0 10 4.5 17.5zM124 -28q0 5 2 8.5t5 5.5t7 2t7.5 -2t5.5 -5.5t2 -8.5v-19h-29v19zM170 138v-28l-39 14z" />
    <glyph glyph-name="uni021A" unicode="&#x21a;" 
d="M125 -116h86v-24h-86v-30h-22v84h22v-30zM107.5 409.5q7.5 -13.5 20.5 -21t29 -7.5t29 7.5t20.5 21t7.5 29.5t-7.5 29.5t-20.5 21t-29 7.5t-29 -7.5t-20.5 -21t-7.5 -29.5t7.5 -29.5zM211 -70v23h-37v16l37 21v26l-41 -24q-3 6 -7.5 10.5t-10.5 7t-13 2.5q-10 0 -18.5 -5
t-13 -13.5t-4.5 -19.5v-44h108zM103 56h108v-24h-108v24zM211 70v25l-20 7v43l20 8v26l-108 -44v-23zM211 192v66h-21v-42h-87v-24h108zM211 306v23h-41v38h-22v-38h-23v42h-22v-65h108zM211 515v23h-68l68 50v19h-108v-23h66l-66 -47v-22h108zM125 623v30h86v24h-86v30h-22
v-84h22zM127.5 456.5q4.5 7.5 12 12t17.5 4.5t18 -4.5t12.5 -12t4.5 -17.5q0 -9 -4.5 -17t-12.5 -12.5t-18 -4.5t-17.5 4.5t-12 12.5t-4.5 17q0 10 4.5 17.5zM124 -28q0 5 2 8.5t5 5.5t7 2t7.5 -2t5.5 -5.5t2 -8.5v-19h-29v19zM170 138v-28l-39 14z" />
    <glyph glyph-name="a" unicode="a" horiz-adv-x="536" 
d="M102 8.5q-37 19.5 -56 56t-19 87.5q0 49 21 83.5t61.5 53t99.5 18.5h119v17q0 26 -9.5 41.5t-31 22.5t-58.5 7q-28 0 -58.5 -3.5t-57.5 -8.5t-45 -10l23 131q17 4 43.5 8.5t59.5 7t66 2.5q78 0 127.5 -23t73 -67.5t23.5 -108.5v-323h-136l-20 52q-10 -19 -28 -33t-45 -22
t-63 -8q-53 0 -90 19.5zM184 128.5q7 -12.5 21 -18.5t36 -6q31 0 50 7.5t28 25t9 47.5v30h-87q-22 0 -36 -6t-21 -18.5t-7 -30.5t7 -30.5z" />
    <glyph glyph-name="aacute" unicode="&#xe1;" 
d="M125 -116h86v-24h-86v-30h-22v84h22v-30zM107.5 409.5q7.5 -13.5 20.5 -21t29 -7.5t29 7.5t20.5 21t7.5 29.5t-7.5 29.5t-20.5 21t-29 7.5t-29 -7.5t-20.5 -21t-7.5 -29.5t7.5 -29.5zM211 -70v23h-37v16l37 21v26l-41 -24q-3 6 -7.5 10.5t-10.5 7t-13 2.5q-10 0 -18.5 -5
t-13 -13.5t-4.5 -19.5v-44h108zM103 56h108v-24h-108v24zM211 70v25l-20 7v43l20 8v26l-108 -44v-23zM211 192v66h-21v-42h-87v-24h108zM211 306v23h-41v38h-22v-38h-23v42h-22v-65h108zM211 515v23h-68l68 50v19h-108v-23h66l-66 -47v-22h108zM125 623v30h86v24h-86v30h-22
v-84h22zM127.5 456.5q4.5 7.5 12 12t17.5 4.5t18 -4.5t12.5 -12t4.5 -17.5q0 -9 -4.5 -17t-12.5 -12.5t-18 -4.5t-17.5 4.5t-12 12.5t-4.5 17q0 10 4.5 17.5zM124 -28q0 5 2 8.5t5 5.5t7 2t7.5 -2t5.5 -5.5t2 -8.5v-19h-29v19zM170 138v-28l-39 14z" />
    <glyph glyph-name="abreve" unicode="&#x103;" 
d="M125 -116h86v-24h-86v-30h-22v84h22v-30zM107.5 409.5q7.5 -13.5 20.5 -21t29 -7.5t29 7.5t20.5 21t7.5 29.5t-7.5 29.5t-20.5 21t-29 7.5t-29 -7.5t-20.5 -21t-7.5 -29.5t7.5 -29.5zM211 -70v23h-37v16l37 21v26l-41 -24q-3 6 -7.5 10.5t-10.5 7t-13 2.5q-10 0 -18.5 -5
t-13 -13.5t-4.5 -19.5v-44h108zM103 56h108v-24h-108v24zM211 70v25l-20 7v43l20 8v26l-108 -44v-23zM211 192v66h-21v-42h-87v-24h108zM211 306v23h-41v38h-22v-38h-23v42h-22v-65h108zM211 515v23h-68l68 50v19h-108v-23h66l-66 -47v-22h108zM125 623v30h86v24h-86v30h-22
v-84h22zM127.5 456.5q4.5 7.5 12 12t17.5 4.5t18 -4.5t12.5 -12t4.5 -17.5q0 -9 -4.5 -17t-12.5 -12.5t-18 -4.5t-17.5 4.5t-12 12.5t-4.5 17q0 10 4.5 17.5zM124 -28q0 5 2 8.5t5 5.5t7 2t7.5 -2t5.5 -5.5t2 -8.5v-19h-29v19zM170 138v-28l-39 14z" />
    <glyph glyph-name="acircumflex" unicode="&#xe2;" 
d="M125 -116h86v-24h-86v-30h-22v84h22v-30zM107.5 409.5q7.5 -13.5 20.5 -21t29 -7.5t29 7.5t20.5 21t7.5 29.5t-7.5 29.5t-20.5 21t-29 7.5t-29 -7.5t-20.5 -21t-7.5 -29.5t7.5 -29.5zM211 -70v23h-37v16l37 21v26l-41 -24q-3 6 -7.5 10.5t-10.5 7t-13 2.5q-10 0 -18.5 -5
t-13 -13.5t-4.5 -19.5v-44h108zM103 56h108v-24h-108v24zM211 70v25l-20 7v43l20 8v26l-108 -44v-23zM211 192v66h-21v-42h-87v-24h108zM211 306v23h-41v38h-22v-38h-23v42h-22v-65h108zM211 515v23h-68l68 50v19h-108v-23h66l-66 -47v-22h108zM125 623v30h86v24h-86v30h-22
v-84h22zM127.5 456.5q4.5 7.5 12 12t17.5 4.5t18 -4.5t12.5 -12t4.5 -17.5q0 -9 -4.5 -17t-12.5 -12.5t-18 -4.5t-17.5 4.5t-12 12.5t-4.5 17q0 10 4.5 17.5zM124 -28q0 5 2 8.5t5 5.5t7 2t7.5 -2t5.5 -5.5t2 -8.5v-19h-29v19zM170 138v-28l-39 14z" />
    <glyph glyph-name="adieresis" unicode="&#xe4;" 
d="M125 -116h86v-24h-86v-30h-22v84h22v-30zM107.5 409.5q7.5 -13.5 20.5 -21t29 -7.5t29 7.5t20.5 21t7.5 29.5t-7.5 29.5t-20.5 21t-29 7.5t-29 -7.5t-20.5 -21t-7.5 -29.5t7.5 -29.5zM211 -70v23h-37v16l37 21v26l-41 -24q-3 6 -7.5 10.5t-10.5 7t-13 2.5q-10 0 -18.5 -5
t-13 -13.5t-4.5 -19.5v-44h108zM103 56h108v-24h-108v24zM211 70v25l-20 7v43l20 8v26l-108 -44v-23zM211 192v66h-21v-42h-87v-24h108zM211 306v23h-41v38h-22v-38h-23v42h-22v-65h108zM211 515v23h-68l68 50v19h-108v-23h66l-66 -47v-22h108zM125 623v30h86v24h-86v30h-22
v-84h22zM127.5 456.5q4.5 7.5 12 12t17.5 4.5t18 -4.5t12.5 -12t4.5 -17.5q0 -9 -4.5 -17t-12.5 -12.5t-18 -4.5t-17.5 4.5t-12 12.5t-4.5 17q0 10 4.5 17.5zM124 -28q0 5 2 8.5t5 5.5t7 2t7.5 -2t5.5 -5.5t2 -8.5v-19h-29v19zM170 138v-28l-39 14z" />
    <glyph glyph-name="agrave" unicode="&#xe0;" 
d="M125 -116h86v-24h-86v-30h-22v84h22v-30zM107.5 409.5q7.5 -13.5 20.5 -21t29 -7.5t29 7.5t20.5 21t7.5 29.5t-7.5 29.5t-20.5 21t-29 7.5t-29 -7.5t-20.5 -21t-7.5 -29.5t7.5 -29.5zM211 -70v23h-37v16l37 21v26l-41 -24q-3 6 -7.5 10.5t-10.5 7t-13 2.5q-10 0 -18.5 -5
t-13 -13.5t-4.5 -19.5v-44h108zM103 56h108v-24h-108v24zM211 70v25l-20 7v43l20 8v26l-108 -44v-23zM211 192v66h-21v-42h-87v-24h108zM211 306v23h-41v38h-22v-38h-23v42h-22v-65h108zM211 515v23h-68l68 50v19h-108v-23h66l-66 -47v-22h108zM125 623v30h86v24h-86v30h-22
v-84h22zM127.5 456.5q4.5 7.5 12 12t17.5 4.5t18 -4.5t12.5 -12t4.5 -17.5q0 -9 -4.5 -17t-12.5 -12.5t-18 -4.5t-17.5 4.5t-12 12.5t-4.5 17q0 10 4.5 17.5zM124 -28q0 5 2 8.5t5 5.5t7 2t7.5 -2t5.5 -5.5t2 -8.5v-19h-29v19zM170 138v-28l-39 14z" />
    <glyph glyph-name="amacron" unicode="&#x101;" 
d="M125 -116h86v-24h-86v-30h-22v84h22v-30zM107.5 409.5q7.5 -13.5 20.5 -21t29 -7.5t29 7.5t20.5 21t7.5 29.5t-7.5 29.5t-20.5 21t-29 7.5t-29 -7.5t-20.5 -21t-7.5 -29.5t7.5 -29.5zM211 -70v23h-37v16l37 21v26l-41 -24q-3 6 -7.5 10.5t-10.5 7t-13 2.5q-10 0 -18.5 -5
t-13 -13.5t-4.5 -19.5v-44h108zM103 56h108v-24h-108v24zM211 70v25l-20 7v43l20 8v26l-108 -44v-23zM211 192v66h-21v-42h-87v-24h108zM211 306v23h-41v38h-22v-38h-23v42h-22v-65h108zM211 515v23h-68l68 50v19h-108v-23h66l-66 -47v-22h108zM125 623v30h86v24h-86v30h-22
v-84h22zM127.5 456.5q4.5 7.5 12 12t17.5 4.5t18 -4.5t12.5 -12t4.5 -17.5q0 -9 -4.5 -17t-12.5 -12.5t-18 -4.5t-17.5 4.5t-12 12.5t-4.5 17q0 10 4.5 17.5zM124 -28q0 5 2 8.5t5 5.5t7 2t7.5 -2t5.5 -5.5t2 -8.5v-19h-29v19zM170 138v-28l-39 14z" />
    <glyph glyph-name="aogonek" unicode="&#x105;" 
d="M125 -116h86v-24h-86v-30h-22v84h22v-30zM107.5 409.5q7.5 -13.5 20.5 -21t29 -7.5t29 7.5t20.5 21t7.5 29.5t-7.5 29.5t-20.5 21t-29 7.5t-29 -7.5t-20.5 -21t-7.5 -29.5t7.5 -29.5zM211 -70v23h-37v16l37 21v26l-41 -24q-3 6 -7.5 10.5t-10.5 7t-13 2.5q-10 0 -18.5 -5
t-13 -13.5t-4.5 -19.5v-44h108zM103 56h108v-24h-108v24zM211 70v25l-20 7v43l20 8v26l-108 -44v-23zM211 192v66h-21v-42h-87v-24h108zM211 306v23h-41v38h-22v-38h-23v42h-22v-65h108zM211 515v23h-68l68 50v19h-108v-23h66l-66 -47v-22h108zM125 623v30h86v24h-86v30h-22
v-84h22zM127.5 456.5q4.5 7.5 12 12t17.5 4.5t18 -4.5t12.5 -12t4.5 -17.5q0 -9 -4.5 -17t-12.5 -12.5t-18 -4.5t-17.5 4.5t-12 12.5t-4.5 17q0 10 4.5 17.5zM124 -28q0 5 2 8.5t5 5.5t7 2t7.5 -2t5.5 -5.5t2 -8.5v-19h-29v19zM170 138v-28l-39 14z" />
    <glyph glyph-name="aring" unicode="&#xe5;" 
d="M125 -116h86v-24h-86v-30h-22v84h22v-30zM107.5 409.5q7.5 -13.5 20.5 -21t29 -7.5t29 7.5t20.5 21t7.5 29.5t-7.5 29.5t-20.5 21t-29 7.5t-29 -7.5t-20.5 -21t-7.5 -29.5t7.5 -29.5zM211 -70v23h-37v16l37 21v26l-41 -24q-3 6 -7.5 10.5t-10.5 7t-13 2.5q-10 0 -18.5 -5
t-13 -13.5t-4.5 -19.5v-44h108zM103 56h108v-24h-108v24zM211 70v25l-20 7v43l20 8v26l-108 -44v-23zM211 192v66h-21v-42h-87v-24h108zM211 306v23h-41v38h-22v-38h-23v42h-22v-65h108zM211 515v23h-68l68 50v19h-108v-23h66l-66 -47v-22h108zM125 623v30h86v24h-86v30h-22
v-84h22zM127.5 456.5q4.5 7.5 12 12t17.5 4.5t18 -4.5t12.5 -12t4.5 -17.5q0 -9 -4.5 -17t-12.5 -12.5t-18 -4.5t-17.5 4.5t-12 12.5t-4.5 17q0 10 4.5 17.5zM124 -28q0 5 2 8.5t5 5.5t7 2t7.5 -2t5.5 -5.5t2 -8.5v-19h-29v19zM170 138v-28l-39 14z" />
    <glyph glyph-name="aringacute" unicode="&#x1fb;" 
d="M125 -116h86v-24h-86v-30h-22v84h22v-30zM107.5 409.5q7.5 -13.5 20.5 -21t29 -7.5t29 7.5t20.5 21t7.5 29.5t-7.5 29.5t-20.5 21t-29 7.5t-29 -7.5t-20.5 -21t-7.5 -29.5t7.5 -29.5zM211 -70v23h-37v16l37 21v26l-41 -24q-3 6 -7.5 10.5t-10.5 7t-13 2.5q-10 0 -18.5 -5
t-13 -13.5t-4.5 -19.5v-44h108zM103 56h108v-24h-108v24zM211 70v25l-20 7v43l20 8v26l-108 -44v-23zM211 192v66h-21v-42h-87v-24h108zM211 306v23h-41v38h-22v-38h-23v42h-22v-65h108zM211 515v23h-68l68 50v19h-108v-23h66l-66 -47v-22h108zM125 623v30h86v24h-86v30h-22
v-84h22zM127.5 456.5q4.5 7.5 12 12t17.5 4.5t18 -4.5t12.5 -12t4.5 -17.5q0 -9 -4.5 -17t-12.5 -12.5t-18 -4.5t-17.5 4.5t-12 12.5t-4.5 17q0 10 4.5 17.5zM124 -28q0 5 2 8.5t5 5.5t7 2t7.5 -2t5.5 -5.5t2 -8.5v-19h-29v19zM170 138v-28l-39 14z" />
    <glyph glyph-name="atilde" unicode="&#xe3;" 
d="M125 -116h86v-24h-86v-30h-22v84h22v-30zM107.5 409.5q7.5 -13.5 20.5 -21t29 -7.5t29 7.5t20.5 21t7.5 29.5t-7.5 29.5t-20.5 21t-29 7.5t-29 -7.5t-20.5 -21t-7.5 -29.5t7.5 -29.5zM211 -70v23h-37v16l37 21v26l-41 -24q-3 6 -7.5 10.5t-10.5 7t-13 2.5q-10 0 -18.5 -5
t-13 -13.5t-4.5 -19.5v-44h108zM103 56h108v-24h-108v24zM211 70v25l-20 7v43l20 8v26l-108 -44v-23zM211 192v66h-21v-42h-87v-24h108zM211 306v23h-41v38h-22v-38h-23v42h-22v-65h108zM211 515v23h-68l68 50v19h-108v-23h66l-66 -47v-22h108zM125 623v30h86v24h-86v30h-22
v-84h22zM127.5 456.5q4.5 7.5 12 12t17.5 4.5t18 -4.5t12.5 -12t4.5 -17.5q0 -9 -4.5 -17t-12.5 -12.5t-18 -4.5t-17.5 4.5t-12 12.5t-4.5 17q0 10 4.5 17.5zM124 -28q0 5 2 8.5t5 5.5t7 2t7.5 -2t5.5 -5.5t2 -8.5v-19h-29v19zM170 138v-28l-39 14z" />
    <glyph glyph-name="ae" unicode="&#xe6;" 
d="M125 -116h86v-24h-86v-30h-22v84h22v-30zM107.5 409.5q7.5 -13.5 20.5 -21t29 -7.5t29 7.5t20.5 21t7.5 29.5t-7.5 29.5t-20.5 21t-29 7.5t-29 -7.5t-20.5 -21t-7.5 -29.5t7.5 -29.5zM211 -70v23h-37v16l37 21v26l-41 -24q-3 6 -7.5 10.5t-10.5 7t-13 2.5q-10 0 -18.5 -5
t-13 -13.5t-4.5 -19.5v-44h108zM103 56h108v-24h-108v24zM211 70v25l-20 7v43l20 8v26l-108 -44v-23zM211 192v66h-21v-42h-87v-24h108zM211 306v23h-41v38h-22v-38h-23v42h-22v-65h108zM211 515v23h-68l68 50v19h-108v-23h66l-66 -47v-22h108zM125 623v30h86v24h-86v30h-22
v-84h22zM127.5 456.5q4.5 7.5 12 12t17.5 4.5t18 -4.5t12.5 -12t4.5 -17.5q0 -9 -4.5 -17t-12.5 -12.5t-18 -4.5t-17.5 4.5t-12 12.5t-4.5 17q0 10 4.5 17.5zM124 -28q0 5 2 8.5t5 5.5t7 2t7.5 -2t5.5 -5.5t2 -8.5v-19h-29v19zM170 138v-28l-39 14z" />
    <glyph glyph-name="aeacute" unicode="&#x1fd;" 
d="M125 -116h86v-24h-86v-30h-22v84h22v-30zM107.5 409.5q7.5 -13.5 20.5 -21t29 -7.5t29 7.5t20.5 21t7.5 29.5t-7.5 29.5t-20.5 21t-29 7.5t-29 -7.5t-20.5 -21t-7.5 -29.5t7.5 -29.5zM211 -70v23h-37v16l37 21v26l-41 -24q-3 6 -7.5 10.5t-10.5 7t-13 2.5q-10 0 -18.5 -5
t-13 -13.5t-4.5 -19.5v-44h108zM103 56h108v-24h-108v24zM211 70v25l-20 7v43l20 8v26l-108 -44v-23zM211 192v66h-21v-42h-87v-24h108zM211 306v23h-41v38h-22v-38h-23v42h-22v-65h108zM211 515v23h-68l68 50v19h-108v-23h66l-66 -47v-22h108zM125 623v30h86v24h-86v30h-22
v-84h22zM127.5 456.5q4.5 7.5 12 12t17.5 4.5t18 -4.5t12.5 -12t4.5 -17.5q0 -9 -4.5 -17t-12.5 -12.5t-18 -4.5t-17.5 4.5t-12 12.5t-4.5 17q0 10 4.5 17.5zM124 -28q0 5 2 8.5t5 5.5t7 2t7.5 -2t5.5 -5.5t2 -8.5v-19h-29v19zM170 138v-28l-39 14z" />
    <glyph glyph-name="b" unicode="b" horiz-adv-x="573" 
d="M456.5 496q40.5 -28 60.5 -86.5t20 -152.5t-20 -153t-60.5 -87t-104.5 -28q-39 0 -67.5 11.5t-44.5 25.5t-24 26l-20 -52h-138v687l158 24v-250q7 12 23.5 26t45 25.5t67.5 11.5q64 0 104.5 -28zM224 175q8 -30 25.5 -43t47.5 -13t47.5 13t25.5 43t8 82t-8 82t-25.5 43
t-47.5 13t-47.5 -13t-25.5 -43t-8 -82t8 -82z" />
    <glyph glyph-name="c" unicode="c" horiz-adv-x="464" 
d="M140.5 18q-54.5 29 -81 88t-26.5 150t26.5 150t81 88.5t138.5 29.5q30 0 57.5 -4t48 -10t33.5 -12l8 -130q-15 7 -35.5 13t-44 10.5t-45.5 4.5q-38 0 -61.5 -14t-35 -44.5t-11.5 -81.5q0 -49 11.5 -79.5t35.5 -44t63 -13.5q24 0 50 4.5t48.5 11.5t37.5 14l-23 -134
q-11 -6 -32 -12t-48 -10t-57 -4q-84 0 -138.5 29z" />
    <glyph glyph-name="cacute" unicode="&#x107;" 
d="M125 -116h86v-24h-86v-30h-22v84h22v-30zM107.5 409.5q7.5 -13.5 20.5 -21t29 -7.5t29 7.5t20.5 21t7.5 29.5t-7.5 29.5t-20.5 21t-29 7.5t-29 -7.5t-20.5 -21t-7.5 -29.5t7.5 -29.5zM211 -70v23h-37v16l37 21v26l-41 -24q-3 6 -7.5 10.5t-10.5 7t-13 2.5q-10 0 -18.5 -5
t-13 -13.5t-4.5 -19.5v-44h108zM103 56h108v-24h-108v24zM211 70v25l-20 7v43l20 8v26l-108 -44v-23zM211 192v66h-21v-42h-87v-24h108zM211 306v23h-41v38h-22v-38h-23v42h-22v-65h108zM211 515v23h-68l68 50v19h-108v-23h66l-66 -47v-22h108zM125 623v30h86v24h-86v30h-22
v-84h22zM127.5 456.5q4.5 7.5 12 12t17.5 4.5t18 -4.5t12.5 -12t4.5 -17.5q0 -9 -4.5 -17t-12.5 -12.5t-18 -4.5t-17.5 4.5t-12 12.5t-4.5 17q0 10 4.5 17.5zM124 -28q0 5 2 8.5t5 5.5t7 2t7.5 -2t5.5 -5.5t2 -8.5v-19h-29v19zM170 138v-28l-39 14z" />
    <glyph glyph-name="ccaron" unicode="&#x10d;" 
d="M125 -116h86v-24h-86v-30h-22v84h22v-30zM107.5 409.5q7.5 -13.5 20.5 -21t29 -7.5t29 7.5t20.5 21t7.5 29.5t-7.5 29.5t-20.5 21t-29 7.5t-29 -7.5t-20.5 -21t-7.5 -29.5t7.5 -29.5zM211 -70v23h-37v16l37 21v26l-41 -24q-3 6 -7.5 10.5t-10.5 7t-13 2.5q-10 0 -18.5 -5
t-13 -13.5t-4.5 -19.5v-44h108zM103 56h108v-24h-108v24zM211 70v25l-20 7v43l20 8v26l-108 -44v-23zM211 192v66h-21v-42h-87v-24h108zM211 306v23h-41v38h-22v-38h-23v42h-22v-65h108zM211 515v23h-68l68 50v19h-108v-23h66l-66 -47v-22h108zM125 623v30h86v24h-86v30h-22
v-84h22zM127.5 456.5q4.5 7.5 12 12t17.5 4.5t18 -4.5t12.5 -12t4.5 -17.5q0 -9 -4.5 -17t-12.5 -12.5t-18 -4.5t-17.5 4.5t-12 12.5t-4.5 17q0 10 4.5 17.5zM124 -28q0 5 2 8.5t5 5.5t7 2t7.5 -2t5.5 -5.5t2 -8.5v-19h-29v19zM170 138v-28l-39 14z" />
    <glyph glyph-name="ccedilla" unicode="&#xe7;" 
d="M125 -116h86v-24h-86v-30h-22v84h22v-30zM107.5 409.5q7.5 -13.5 20.5 -21t29 -7.5t29 7.5t20.5 21t7.5 29.5t-7.5 29.5t-20.5 21t-29 7.5t-29 -7.5t-20.5 -21t-7.5 -29.5t7.5 -29.5zM211 -70v23h-37v16l37 21v26l-41 -24q-3 6 -7.5 10.5t-10.5 7t-13 2.5q-10 0 -18.5 -5
t-13 -13.5t-4.5 -19.5v-44h108zM103 56h108v-24h-108v24zM211 70v25l-20 7v43l20 8v26l-108 -44v-23zM211 192v66h-21v-42h-87v-24h108zM211 306v23h-41v38h-22v-38h-23v42h-22v-65h108zM211 515v23h-68l68 50v19h-108v-23h66l-66 -47v-22h108zM125 623v30h86v24h-86v30h-22
v-84h22zM127.5 456.5q4.5 7.5 12 12t17.5 4.5t18 -4.5t12.5 -12t4.5 -17.5q0 -9 -4.5 -17t-12.5 -12.5t-18 -4.5t-17.5 4.5t-12 12.5t-4.5 17q0 10 4.5 17.5zM124 -28q0 5 2 8.5t5 5.5t7 2t7.5 -2t5.5 -5.5t2 -8.5v-19h-29v19zM170 138v-28l-39 14z" />
    <glyph glyph-name="ccircumflex" unicode="&#x109;" 
d="M125 -116h86v-24h-86v-30h-22v84h22v-30zM107.5 409.5q7.5 -13.5 20.5 -21t29 -7.5t29 7.5t20.5 21t7.5 29.5t-7.5 29.5t-20.5 21t-29 7.5t-29 -7.5t-20.5 -21t-7.5 -29.5t7.5 -29.5zM211 -70v23h-37v16l37 21v26l-41 -24q-3 6 -7.5 10.5t-10.5 7t-13 2.5q-10 0 -18.5 -5
t-13 -13.5t-4.5 -19.5v-44h108zM103 56h108v-24h-108v24zM211 70v25l-20 7v43l20 8v26l-108 -44v-23zM211 192v66h-21v-42h-87v-24h108zM211 306v23h-41v38h-22v-38h-23v42h-22v-65h108zM211 515v23h-68l68 50v19h-108v-23h66l-66 -47v-22h108zM125 623v30h86v24h-86v30h-22
v-84h22zM127.5 456.5q4.5 7.5 12 12t17.5 4.5t18 -4.5t12.5 -12t4.5 -17.5q0 -9 -4.5 -17t-12.5 -12.5t-18 -4.5t-17.5 4.5t-12 12.5t-4.5 17q0 10 4.5 17.5zM124 -28q0 5 2 8.5t5 5.5t7 2t7.5 -2t5.5 -5.5t2 -8.5v-19h-29v19zM170 138v-28l-39 14z" />
    <glyph glyph-name="cdotaccent" unicode="&#x10b;" 
d="M125 -116h86v-24h-86v-30h-22v84h22v-30zM107.5 409.5q7.5 -13.5 20.5 -21t29 -7.5t29 7.5t20.5 21t7.5 29.5t-7.5 29.5t-20.5 21t-29 7.5t-29 -7.5t-20.5 -21t-7.5 -29.5t7.5 -29.5zM211 -70v23h-37v16l37 21v26l-41 -24q-3 6 -7.5 10.5t-10.5 7t-13 2.5q-10 0 -18.5 -5
t-13 -13.5t-4.5 -19.5v-44h108zM103 56h108v-24h-108v24zM211 70v25l-20 7v43l20 8v26l-108 -44v-23zM211 192v66h-21v-42h-87v-24h108zM211 306v23h-41v38h-22v-38h-23v42h-22v-65h108zM211 515v23h-68l68 50v19h-108v-23h66l-66 -47v-22h108zM125 623v30h86v24h-86v30h-22
v-84h22zM127.5 456.5q4.5 7.5 12 12t17.5 4.5t18 -4.5t12.5 -12t4.5 -17.5q0 -9 -4.5 -17t-12.5 -12.5t-18 -4.5t-17.5 4.5t-12 12.5t-4.5 17q0 10 4.5 17.5zM124 -28q0 5 2 8.5t5 5.5t7 2t7.5 -2t5.5 -5.5t2 -8.5v-19h-29v19zM170 138v-28l-39 14z" />
    <glyph glyph-name="d" unicode="d" horiz-adv-x="573" 
d="M515 711v-711h-138l-20 52q-9 -13 -24.5 -26.5t-44 -25t-67.5 -11.5q-64 0 -104.5 28t-60.5 87t-20 153q0 93 20 152t60.5 87t104.5 28q39 0 67.5 -11.5t44 -25.5t24.5 -26v226zM203 175q8 -30 25.5 -43t47.5 -13t47.5 13t25.5 43t8 82t-8 82t-25.5 43t-47.5 13
t-47.5 -13t-25.5 -43t-8 -82t8 -82z" />
    <glyph glyph-name="eth" unicode="&#xf0;" 
d="M125 -116h86v-24h-86v-30h-22v84h22v-30zM107.5 409.5q7.5 -13.5 20.5 -21t29 -7.5t29 7.5t20.5 21t7.5 29.5t-7.5 29.5t-20.5 21t-29 7.5t-29 -7.5t-20.5 -21t-7.5 -29.5t7.5 -29.5zM211 -70v23h-37v16l37 21v26l-41 -24q-3 6 -7.5 10.5t-10.5 7t-13 2.5q-10 0 -18.5 -5
t-13 -13.5t-4.5 -19.5v-44h108zM103 56h108v-24h-108v24zM211 70v25l-20 7v43l20 8v26l-108 -44v-23zM211 192v66h-21v-42h-87v-24h108zM211 306v23h-41v38h-22v-38h-23v42h-22v-65h108zM211 515v23h-68l68 50v19h-108v-23h66l-66 -47v-22h108zM125 623v30h86v24h-86v30h-22
v-84h22zM127.5 456.5q4.5 7.5 12 12t17.5 4.5t18 -4.5t12.5 -12t4.5 -17.5q0 -9 -4.5 -17t-12.5 -12.5t-18 -4.5t-17.5 4.5t-12 12.5t-4.5 17q0 10 4.5 17.5zM124 -28q0 5 2 8.5t5 5.5t7 2t7.5 -2t5.5 -5.5t2 -8.5v-19h-29v19zM170 138v-28l-39 14z" />
    <glyph glyph-name="dcaron" unicode="&#x10f;" 
d="M125 -116h86v-24h-86v-30h-22v84h22v-30zM107.5 409.5q7.5 -13.5 20.5 -21t29 -7.5t29 7.5t20.5 21t7.5 29.5t-7.5 29.5t-20.5 21t-29 7.5t-29 -7.5t-20.5 -21t-7.5 -29.5t7.5 -29.5zM211 -70v23h-37v16l37 21v26l-41 -24q-3 6 -7.5 10.5t-10.5 7t-13 2.5q-10 0 -18.5 -5
t-13 -13.5t-4.5 -19.5v-44h108zM103 56h108v-24h-108v24zM211 70v25l-20 7v43l20 8v26l-108 -44v-23zM211 192v66h-21v-42h-87v-24h108zM211 306v23h-41v38h-22v-38h-23v42h-22v-65h108zM211 515v23h-68l68 50v19h-108v-23h66l-66 -47v-22h108zM125 623v30h86v24h-86v30h-22
v-84h22zM127.5 456.5q4.5 7.5 12 12t17.5 4.5t18 -4.5t12.5 -12t4.5 -17.5q0 -9 -4.5 -17t-12.5 -12.5t-18 -4.5t-17.5 4.5t-12 12.5t-4.5 17q0 10 4.5 17.5zM124 -28q0 5 2 8.5t5 5.5t7 2t7.5 -2t5.5 -5.5t2 -8.5v-19h-29v19zM170 138v-28l-39 14z" />
    <glyph glyph-name="dcroat" unicode="&#x111;" 
d="M125 -116h86v-24h-86v-30h-22v84h22v-30zM107.5 409.5q7.5 -13.5 20.5 -21t29 -7.5t29 7.5t20.5 21t7.5 29.5t-7.5 29.5t-20.5 21t-29 7.5t-29 -7.5t-20.5 -21t-7.5 -29.5t7.5 -29.5zM211 -70v23h-37v16l37 21v26l-41 -24q-3 6 -7.5 10.5t-10.5 7t-13 2.5q-10 0 -18.5 -5
t-13 -13.5t-4.5 -19.5v-44h108zM103 56h108v-24h-108v24zM211 70v25l-20 7v43l20 8v26l-108 -44v-23zM211 192v66h-21v-42h-87v-24h108zM211 306v23h-41v38h-22v-38h-23v42h-22v-65h108zM211 515v23h-68l68 50v19h-108v-23h66l-66 -47v-22h108zM125 623v30h86v24h-86v30h-22
v-84h22zM127.5 456.5q4.5 7.5 12 12t17.5 4.5t18 -4.5t12.5 -12t4.5 -17.5q0 -9 -4.5 -17t-12.5 -12.5t-18 -4.5t-17.5 4.5t-12 12.5t-4.5 17q0 10 4.5 17.5zM124 -28q0 5 2 8.5t5 5.5t7 2t7.5 -2t5.5 -5.5t2 -8.5v-19h-29v19zM170 138v-28l-39 14z" />
    <glyph glyph-name="e" unicode="e" horiz-adv-x="539" 
d="M149.5 19q-59.5 30 -88 89t-28.5 147t27.5 148t81.5 90.5t133 30.5q75 0 126.5 -27.5t78.5 -86.5t27 -151v-46h-319q3 -33 17 -54.5t42 -32t72 -10.5q29 0 60.5 4t59 10.5t45.5 12.5l-22 -131q-18 -5 -43.5 -10.5t-55.5 -9t-59 -3.5q-95 0 -154.5 30zM366 309
q-2 34 -13 56t-29.5 32.5t-45.5 10.5t-46 -11t-30.5 -33.5t-13.5 -54.5h178z" />
    <glyph glyph-name="eacute" unicode="&#xe9;" 
d="M125 -116h86v-24h-86v-30h-22v84h22v-30zM107.5 409.5q7.5 -13.5 20.5 -21t29 -7.5t29 7.5t20.5 21t7.5 29.5t-7.5 29.5t-20.5 21t-29 7.5t-29 -7.5t-20.5 -21t-7.5 -29.5t7.5 -29.5zM211 -70v23h-37v16l37 21v26l-41 -24q-3 6 -7.5 10.5t-10.5 7t-13 2.5q-10 0 -18.5 -5
t-13 -13.5t-4.5 -19.5v-44h108zM103 56h108v-24h-108v24zM211 70v25l-20 7v43l20 8v26l-108 -44v-23zM211 192v66h-21v-42h-87v-24h108zM211 306v23h-41v38h-22v-38h-23v42h-22v-65h108zM211 515v23h-68l68 50v19h-108v-23h66l-66 -47v-22h108zM125 623v30h86v24h-86v30h-22
v-84h22zM127.5 456.5q4.5 7.5 12 12t17.5 4.5t18 -4.5t12.5 -12t4.5 -17.5q0 -9 -4.5 -17t-12.5 -12.5t-18 -4.5t-17.5 4.5t-12 12.5t-4.5 17q0 10 4.5 17.5zM124 -28q0 5 2 8.5t5 5.5t7 2t7.5 -2t5.5 -5.5t2 -8.5v-19h-29v19zM170 138v-28l-39 14z" />
    <glyph glyph-name="ebreve" unicode="&#x115;" 
d="M125 -116h86v-24h-86v-30h-22v84h22v-30zM107.5 409.5q7.5 -13.5 20.5 -21t29 -7.5t29 7.5t20.5 21t7.5 29.5t-7.5 29.5t-20.5 21t-29 7.5t-29 -7.5t-20.5 -21t-7.5 -29.5t7.5 -29.5zM211 -70v23h-37v16l37 21v26l-41 -24q-3 6 -7.5 10.5t-10.5 7t-13 2.5q-10 0 -18.5 -5
t-13 -13.5t-4.5 -19.5v-44h108zM103 56h108v-24h-108v24zM211 70v25l-20 7v43l20 8v26l-108 -44v-23zM211 192v66h-21v-42h-87v-24h108zM211 306v23h-41v38h-22v-38h-23v42h-22v-65h108zM211 515v23h-68l68 50v19h-108v-23h66l-66 -47v-22h108zM125 623v30h86v24h-86v30h-22
v-84h22zM127.5 456.5q4.5 7.5 12 12t17.5 4.5t18 -4.5t12.5 -12t4.5 -17.5q0 -9 -4.5 -17t-12.5 -12.5t-18 -4.5t-17.5 4.5t-12 12.5t-4.5 17q0 10 4.5 17.5zM124 -28q0 5 2 8.5t5 5.5t7 2t7.5 -2t5.5 -5.5t2 -8.5v-19h-29v19zM170 138v-28l-39 14z" />
    <glyph glyph-name="ecaron" unicode="&#x11b;" 
d="M125 -116h86v-24h-86v-30h-22v84h22v-30zM107.5 409.5q7.5 -13.5 20.5 -21t29 -7.5t29 7.5t20.5 21t7.5 29.5t-7.5 29.5t-20.5 21t-29 7.5t-29 -7.5t-20.5 -21t-7.5 -29.5t7.5 -29.5zM211 -70v23h-37v16l37 21v26l-41 -24q-3 6 -7.5 10.5t-10.5 7t-13 2.5q-10 0 -18.5 -5
t-13 -13.5t-4.5 -19.5v-44h108zM103 56h108v-24h-108v24zM211 70v25l-20 7v43l20 8v26l-108 -44v-23zM211 192v66h-21v-42h-87v-24h108zM211 306v23h-41v38h-22v-38h-23v42h-22v-65h108zM211 515v23h-68l68 50v19h-108v-23h66l-66 -47v-22h108zM125 623v30h86v24h-86v30h-22
v-84h22zM127.5 456.5q4.5 7.5 12 12t17.5 4.5t18 -4.5t12.5 -12t4.5 -17.5q0 -9 -4.5 -17t-12.5 -12.5t-18 -4.5t-17.5 4.5t-12 12.5t-4.5 17q0 10 4.5 17.5zM124 -28q0 5 2 8.5t5 5.5t7 2t7.5 -2t5.5 -5.5t2 -8.5v-19h-29v19zM170 138v-28l-39 14z" />
    <glyph glyph-name="ecircumflex" unicode="&#xea;" 
d="M125 -116h86v-24h-86v-30h-22v84h22v-30zM107.5 409.5q7.5 -13.5 20.5 -21t29 -7.5t29 7.5t20.5 21t7.5 29.5t-7.5 29.5t-20.5 21t-29 7.5t-29 -7.5t-20.5 -21t-7.5 -29.5t7.5 -29.5zM211 -70v23h-37v16l37 21v26l-41 -24q-3 6 -7.5 10.5t-10.5 7t-13 2.5q-10 0 -18.5 -5
t-13 -13.5t-4.5 -19.5v-44h108zM103 56h108v-24h-108v24zM211 70v25l-20 7v43l20 8v26l-108 -44v-23zM211 192v66h-21v-42h-87v-24h108zM211 306v23h-41v38h-22v-38h-23v42h-22v-65h108zM211 515v23h-68l68 50v19h-108v-23h66l-66 -47v-22h108zM125 623v30h86v24h-86v30h-22
v-84h22zM127.5 456.5q4.5 7.5 12 12t17.5 4.5t18 -4.5t12.5 -12t4.5 -17.5q0 -9 -4.5 -17t-12.5 -12.5t-18 -4.5t-17.5 4.5t-12 12.5t-4.5 17q0 10 4.5 17.5zM124 -28q0 5 2 8.5t5 5.5t7 2t7.5 -2t5.5 -5.5t2 -8.5v-19h-29v19zM170 138v-28l-39 14z" />
    <glyph glyph-name="edieresis" unicode="&#xeb;" 
d="M125 -116h86v-24h-86v-30h-22v84h22v-30zM107.5 409.5q7.5 -13.5 20.5 -21t29 -7.5t29 7.5t20.5 21t7.5 29.5t-7.5 29.5t-20.5 21t-29 7.5t-29 -7.5t-20.5 -21t-7.5 -29.5t7.5 -29.5zM211 -70v23h-37v16l37 21v26l-41 -24q-3 6 -7.5 10.5t-10.5 7t-13 2.5q-10 0 -18.5 -5
t-13 -13.5t-4.5 -19.5v-44h108zM103 56h108v-24h-108v24zM211 70v25l-20 7v43l20 8v26l-108 -44v-23zM211 192v66h-21v-42h-87v-24h108zM211 306v23h-41v38h-22v-38h-23v42h-22v-65h108zM211 515v23h-68l68 50v19h-108v-23h66l-66 -47v-22h108zM125 623v30h86v24h-86v30h-22
v-84h22zM127.5 456.5q4.5 7.5 12 12t17.5 4.5t18 -4.5t12.5 -12t4.5 -17.5q0 -9 -4.5 -17t-12.5 -12.5t-18 -4.5t-17.5 4.5t-12 12.5t-4.5 17q0 10 4.5 17.5zM124 -28q0 5 2 8.5t5 5.5t7 2t7.5 -2t5.5 -5.5t2 -8.5v-19h-29v19zM170 138v-28l-39 14z" />
    <glyph glyph-name="edotaccent" unicode="&#x117;" 
d="M125 -116h86v-24h-86v-30h-22v84h22v-30zM107.5 409.5q7.5 -13.5 20.5 -21t29 -7.5t29 7.5t20.5 21t7.5 29.5t-7.5 29.5t-20.5 21t-29 7.5t-29 -7.5t-20.5 -21t-7.5 -29.5t7.5 -29.5zM211 -70v23h-37v16l37 21v26l-41 -24q-3 6 -7.5 10.5t-10.5 7t-13 2.5q-10 0 -18.5 -5
t-13 -13.5t-4.5 -19.5v-44h108zM103 56h108v-24h-108v24zM211 70v25l-20 7v43l20 8v26l-108 -44v-23zM211 192v66h-21v-42h-87v-24h108zM211 306v23h-41v38h-22v-38h-23v42h-22v-65h108zM211 515v23h-68l68 50v19h-108v-23h66l-66 -47v-22h108zM125 623v30h86v24h-86v30h-22
v-84h22zM127.5 456.5q4.5 7.5 12 12t17.5 4.5t18 -4.5t12.5 -12t4.5 -17.5q0 -9 -4.5 -17t-12.5 -12.5t-18 -4.5t-17.5 4.5t-12 12.5t-4.5 17q0 10 4.5 17.5zM124 -28q0 5 2 8.5t5 5.5t7 2t7.5 -2t5.5 -5.5t2 -8.5v-19h-29v19zM170 138v-28l-39 14z" />
    <glyph glyph-name="egrave" unicode="&#xe8;" 
d="M125 -116h86v-24h-86v-30h-22v84h22v-30zM107.5 409.5q7.5 -13.5 20.5 -21t29 -7.5t29 7.5t20.5 21t7.5 29.5t-7.5 29.5t-20.5 21t-29 7.5t-29 -7.5t-20.5 -21t-7.5 -29.5t7.5 -29.5zM211 -70v23h-37v16l37 21v26l-41 -24q-3 6 -7.5 10.5t-10.5 7t-13 2.5q-10 0 -18.5 -5
t-13 -13.5t-4.5 -19.5v-44h108zM103 56h108v-24h-108v24zM211 70v25l-20 7v43l20 8v26l-108 -44v-23zM211 192v66h-21v-42h-87v-24h108zM211 306v23h-41v38h-22v-38h-23v42h-22v-65h108zM211 515v23h-68l68 50v19h-108v-23h66l-66 -47v-22h108zM125 623v30h86v24h-86v30h-22
v-84h22zM127.5 456.5q4.5 7.5 12 12t17.5 4.5t18 -4.5t12.5 -12t4.5 -17.5q0 -9 -4.5 -17t-12.5 -12.5t-18 -4.5t-17.5 4.5t-12 12.5t-4.5 17q0 10 4.5 17.5zM124 -28q0 5 2 8.5t5 5.5t7 2t7.5 -2t5.5 -5.5t2 -8.5v-19h-29v19zM170 138v-28l-39 14z" />
    <glyph glyph-name="emacron" unicode="&#x113;" 
d="M125 -116h86v-24h-86v-30h-22v84h22v-30zM107.5 409.5q7.5 -13.5 20.5 -21t29 -7.5t29 7.5t20.5 21t7.5 29.5t-7.5 29.5t-20.5 21t-29 7.5t-29 -7.5t-20.5 -21t-7.5 -29.5t7.5 -29.5zM211 -70v23h-37v16l37 21v26l-41 -24q-3 6 -7.5 10.5t-10.5 7t-13 2.5q-10 0 -18.5 -5
t-13 -13.5t-4.5 -19.5v-44h108zM103 56h108v-24h-108v24zM211 70v25l-20 7v43l20 8v26l-108 -44v-23zM211 192v66h-21v-42h-87v-24h108zM211 306v23h-41v38h-22v-38h-23v42h-22v-65h108zM211 515v23h-68l68 50v19h-108v-23h66l-66 -47v-22h108zM125 623v30h86v24h-86v30h-22
v-84h22zM127.5 456.5q4.5 7.5 12 12t17.5 4.5t18 -4.5t12.5 -12t4.5 -17.5q0 -9 -4.5 -17t-12.5 -12.5t-18 -4.5t-17.5 4.5t-12 12.5t-4.5 17q0 10 4.5 17.5zM124 -28q0 5 2 8.5t5 5.5t7 2t7.5 -2t5.5 -5.5t2 -8.5v-19h-29v19zM170 138v-28l-39 14z" />
    <glyph glyph-name="eogonek" unicode="&#x119;" 
d="M125 -116h86v-24h-86v-30h-22v84h22v-30zM107.5 409.5q7.5 -13.5 20.5 -21t29 -7.5t29 7.5t20.5 21t7.5 29.5t-7.5 29.5t-20.5 21t-29 7.5t-29 -7.5t-20.5 -21t-7.5 -29.5t7.5 -29.5zM211 -70v23h-37v16l37 21v26l-41 -24q-3 6 -7.5 10.5t-10.5 7t-13 2.5q-10 0 -18.5 -5
t-13 -13.5t-4.5 -19.5v-44h108zM103 56h108v-24h-108v24zM211 70v25l-20 7v43l20 8v26l-108 -44v-23zM211 192v66h-21v-42h-87v-24h108zM211 306v23h-41v38h-22v-38h-23v42h-22v-65h108zM211 515v23h-68l68 50v19h-108v-23h66l-66 -47v-22h108zM125 623v30h86v24h-86v30h-22
v-84h22zM127.5 456.5q4.5 7.5 12 12t17.5 4.5t18 -4.5t12.5 -12t4.5 -17.5q0 -9 -4.5 -17t-12.5 -12.5t-18 -4.5t-17.5 4.5t-12 12.5t-4.5 17q0 10 4.5 17.5zM124 -28q0 5 2 8.5t5 5.5t7 2t7.5 -2t5.5 -5.5t2 -8.5v-19h-29v19zM170 138v-28l-39 14z" />
    <glyph glyph-name="f" unicode="f" horiz-adv-x="401" 
d="M99 395h-78v119h78v2q0 68 23.5 112.5t67.5 66t106 21.5q20 0 40.5 -2t36.5 -5.5t28 -6.5l8 -118q-9 3 -21.5 6t-28.5 5t-33 2q-23 0 -38 -8.5t-23 -26t-8 -46.5v-2h133v-119h-133v-395h-158v395z" />
    <glyph glyph-name="g" unicode="g" horiz-adv-x="573" 
d="M188.5 -197q-29.5 4 -53.5 9.5t-39 11.5l-23 134q18 -7 42.5 -14.5t54 -12.5t57.5 -5q45 0 73 12.5t42.5 40.5t14.5 75v9q-8 -11 -24 -23.5t-44.5 -22.5t-67.5 -10q-64 0 -104.5 26.5t-60.5 83t-20 145.5q0 92 20 149.5t60.5 85t104.5 27.5q39 0 67.5 -11.5t44 -25.5
t24.5 -26l20 53h138v-454q0 -89 -30.5 -147t-89.5 -86t-147 -28q-30 0 -59.5 4zM203 185q8 -28 25.5 -40t47.5 -12t47.5 12t25.5 40t8 76q0 50 -8 79t-25.5 42t-47.5 13t-47.5 -13t-25.5 -42t-8 -79q0 -48 8 -76z" />
    <glyph glyph-name="gbreve" unicode="&#x11f;" 
d="M125 -116h86v-24h-86v-30h-22v84h22v-30zM107.5 409.5q7.5 -13.5 20.5 -21t29 -7.5t29 7.5t20.5 21t7.5 29.5t-7.5 29.5t-20.5 21t-29 7.5t-29 -7.5t-20.5 -21t-7.5 -29.5t7.5 -29.5zM211 -70v23h-37v16l37 21v26l-41 -24q-3 6 -7.5 10.5t-10.5 7t-13 2.5q-10 0 -18.5 -5
t-13 -13.5t-4.5 -19.5v-44h108zM103 56h108v-24h-108v24zM211 70v25l-20 7v43l20 8v26l-108 -44v-23zM211 192v66h-21v-42h-87v-24h108zM211 306v23h-41v38h-22v-38h-23v42h-22v-65h108zM211 515v23h-68l68 50v19h-108v-23h66l-66 -47v-22h108zM125 623v30h86v24h-86v30h-22
v-84h22zM127.5 456.5q4.5 7.5 12 12t17.5 4.5t18 -4.5t12.5 -12t4.5 -17.5q0 -9 -4.5 -17t-12.5 -12.5t-18 -4.5t-17.5 4.5t-12 12.5t-4.5 17q0 10 4.5 17.5zM124 -28q0 5 2 8.5t5 5.5t7 2t7.5 -2t5.5 -5.5t2 -8.5v-19h-29v19zM170 138v-28l-39 14z" />
    <glyph glyph-name="gcircumflex" unicode="&#x11d;" 
d="M125 -116h86v-24h-86v-30h-22v84h22v-30zM107.5 409.5q7.5 -13.5 20.5 -21t29 -7.5t29 7.5t20.5 21t7.5 29.5t-7.5 29.5t-20.5 21t-29 7.5t-29 -7.5t-20.5 -21t-7.5 -29.5t7.5 -29.5zM211 -70v23h-37v16l37 21v26l-41 -24q-3 6 -7.5 10.5t-10.5 7t-13 2.5q-10 0 -18.5 -5
t-13 -13.5t-4.5 -19.5v-44h108zM103 56h108v-24h-108v24zM211 70v25l-20 7v43l20 8v26l-108 -44v-23zM211 192v66h-21v-42h-87v-24h108zM211 306v23h-41v38h-22v-38h-23v42h-22v-65h108zM211 515v23h-68l68 50v19h-108v-23h66l-66 -47v-22h108zM125 623v30h86v24h-86v30h-22
v-84h22zM127.5 456.5q4.5 7.5 12 12t17.5 4.5t18 -4.5t12.5 -12t4.5 -17.5q0 -9 -4.5 -17t-12.5 -12.5t-18 -4.5t-17.5 4.5t-12 12.5t-4.5 17q0 10 4.5 17.5zM124 -28q0 5 2 8.5t5 5.5t7 2t7.5 -2t5.5 -5.5t2 -8.5v-19h-29v19zM170 138v-28l-39 14z" />
    <glyph glyph-name="uni0123" unicode="&#x123;" 
d="M125 -116h86v-24h-86v-30h-22v84h22v-30zM107.5 409.5q7.5 -13.5 20.5 -21t29 -7.5t29 7.5t20.5 21t7.5 29.5t-7.5 29.5t-20.5 21t-29 7.5t-29 -7.5t-20.5 -21t-7.5 -29.5t7.5 -29.5zM211 -70v23h-37v16l37 21v26l-41 -24q-3 6 -7.5 10.5t-10.5 7t-13 2.5q-10 0 -18.5 -5
t-13 -13.5t-4.5 -19.5v-44h108zM103 56h108v-24h-108v24zM211 70v25l-20 7v43l20 8v26l-108 -44v-23zM211 192v66h-21v-42h-87v-24h108zM211 306v23h-41v38h-22v-38h-23v42h-22v-65h108zM211 515v23h-68l68 50v19h-108v-23h66l-66 -47v-22h108zM125 623v30h86v24h-86v30h-22
v-84h22zM127.5 456.5q4.5 7.5 12 12t17.5 4.5t18 -4.5t12.5 -12t4.5 -17.5q0 -9 -4.5 -17t-12.5 -12.5t-18 -4.5t-17.5 4.5t-12 12.5t-4.5 17q0 10 4.5 17.5zM124 -28q0 5 2 8.5t5 5.5t7 2t7.5 -2t5.5 -5.5t2 -8.5v-19h-29v19zM170 138v-28l-39 14z" />
    <glyph glyph-name="gdotaccent" unicode="&#x121;" 
d="M125 -116h86v-24h-86v-30h-22v84h22v-30zM107.5 409.5q7.5 -13.5 20.5 -21t29 -7.5t29 7.5t20.5 21t7.5 29.5t-7.5 29.5t-20.5 21t-29 7.5t-29 -7.5t-20.5 -21t-7.5 -29.5t7.5 -29.5zM211 -70v23h-37v16l37 21v26l-41 -24q-3 6 -7.5 10.5t-10.5 7t-13 2.5q-10 0 -18.5 -5
t-13 -13.5t-4.5 -19.5v-44h108zM103 56h108v-24h-108v24zM211 70v25l-20 7v43l20 8v26l-108 -44v-23zM211 192v66h-21v-42h-87v-24h108zM211 306v23h-41v38h-22v-38h-23v42h-22v-65h108zM211 515v23h-68l68 50v19h-108v-23h66l-66 -47v-22h108zM125 623v30h86v24h-86v30h-22
v-84h22zM127.5 456.5q4.5 7.5 12 12t17.5 4.5t18 -4.5t12.5 -12t4.5 -17.5q0 -9 -4.5 -17t-12.5 -12.5t-18 -4.5t-17.5 4.5t-12 12.5t-4.5 17q0 10 4.5 17.5zM124 -28q0 5 2 8.5t5 5.5t7 2t7.5 -2t5.5 -5.5t2 -8.5v-19h-29v19zM170 138v-28l-39 14z" />
    <glyph glyph-name="h" unicode="h" horiz-adv-x="581" 
d="M451 500.5q38 -23.5 57 -65t19 -96.5v-339h-158v298q0 32 -7 53t-23.5 32t-43.5 11q-29 0 -46 -11t-25 -32t-8 -53v-298h-158v687l158 24v-252q17 21 37 35.5t46 22t59 7.5q55 0 93 -23.5z" />
    <glyph glyph-name="hbar" unicode="&#x127;" 
d="M125 -116h86v-24h-86v-30h-22v84h22v-30zM107.5 409.5q7.5 -13.5 20.5 -21t29 -7.5t29 7.5t20.5 21t7.5 29.5t-7.5 29.5t-20.5 21t-29 7.5t-29 -7.5t-20.5 -21t-7.5 -29.5t7.5 -29.5zM211 -70v23h-37v16l37 21v26l-41 -24q-3 6 -7.5 10.5t-10.5 7t-13 2.5q-10 0 -18.5 -5
t-13 -13.5t-4.5 -19.5v-44h108zM103 56h108v-24h-108v24zM211 70v25l-20 7v43l20 8v26l-108 -44v-23zM211 192v66h-21v-42h-87v-24h108zM211 306v23h-41v38h-22v-38h-23v42h-22v-65h108zM211 515v23h-68l68 50v19h-108v-23h66l-66 -47v-22h108zM125 623v30h86v24h-86v30h-22
v-84h22zM127.5 456.5q4.5 7.5 12 12t17.5 4.5t18 -4.5t12.5 -12t4.5 -17.5q0 -9 -4.5 -17t-12.5 -12.5t-18 -4.5t-17.5 4.5t-12 12.5t-4.5 17q0 10 4.5 17.5zM124 -28q0 5 2 8.5t5 5.5t7 2t7.5 -2t5.5 -5.5t2 -8.5v-19h-29v19zM170 138v-28l-39 14z" />
    <glyph glyph-name="hcircumflex" unicode="&#x125;" 
d="M125 -116h86v-24h-86v-30h-22v84h22v-30zM107.5 409.5q7.5 -13.5 20.5 -21t29 -7.5t29 7.5t20.5 21t7.5 29.5t-7.5 29.5t-20.5 21t-29 7.5t-29 -7.5t-20.5 -21t-7.5 -29.5t7.5 -29.5zM211 -70v23h-37v16l37 21v26l-41 -24q-3 6 -7.5 10.5t-10.5 7t-13 2.5q-10 0 -18.5 -5
t-13 -13.5t-4.5 -19.5v-44h108zM103 56h108v-24h-108v24zM211 70v25l-20 7v43l20 8v26l-108 -44v-23zM211 192v66h-21v-42h-87v-24h108zM211 306v23h-41v38h-22v-38h-23v42h-22v-65h108zM211 515v23h-68l68 50v19h-108v-23h66l-66 -47v-22h108zM125 623v30h86v24h-86v30h-22
v-84h22zM127.5 456.5q4.5 7.5 12 12t17.5 4.5t18 -4.5t12.5 -12t4.5 -17.5q0 -9 -4.5 -17t-12.5 -12.5t-18 -4.5t-17.5 4.5t-12 12.5t-4.5 17q0 10 4.5 17.5zM124 -28q0 5 2 8.5t5 5.5t7 2t7.5 -2t5.5 -5.5t2 -8.5v-19h-29v19zM170 138v-28l-39 14z" />
    <glyph glyph-name="i" unicode="i" horiz-adv-x="274" 
d="M58 699h158v-119h-158v119zM58 514h158v-514h-158v514z" />
    <glyph glyph-name="dotlessi" unicode="&#x131;" 
d="M125 -116h86v-24h-86v-30h-22v84h22v-30zM107.5 409.5q7.5 -13.5 20.5 -21t29 -7.5t29 7.5t20.5 21t7.5 29.5t-7.5 29.5t-20.5 21t-29 7.5t-29 -7.5t-20.5 -21t-7.5 -29.5t7.5 -29.5zM211 -70v23h-37v16l37 21v26l-41 -24q-3 6 -7.5 10.5t-10.5 7t-13 2.5q-10 0 -18.5 -5
t-13 -13.5t-4.5 -19.5v-44h108zM103 56h108v-24h-108v24zM211 70v25l-20 7v43l20 8v26l-108 -44v-23zM211 192v66h-21v-42h-87v-24h108zM211 306v23h-41v38h-22v-38h-23v42h-22v-65h108zM211 515v23h-68l68 50v19h-108v-23h66l-66 -47v-22h108zM125 623v30h86v24h-86v30h-22
v-84h22zM127.5 456.5q4.5 7.5 12 12t17.5 4.5t18 -4.5t12.5 -12t4.5 -17.5q0 -9 -4.5 -17t-12.5 -12.5t-18 -4.5t-17.5 4.5t-12 12.5t-4.5 17q0 10 4.5 17.5zM124 -28q0 5 2 8.5t5 5.5t7 2t7.5 -2t5.5 -5.5t2 -8.5v-19h-29v19zM170 138v-28l-39 14z" />
    <glyph glyph-name="iacute" unicode="&#xed;" 
d="M125 -116h86v-24h-86v-30h-22v84h22v-30zM107.5 409.5q7.5 -13.5 20.5 -21t29 -7.5t29 7.5t20.5 21t7.5 29.5t-7.5 29.5t-20.5 21t-29 7.5t-29 -7.5t-20.5 -21t-7.5 -29.5t7.5 -29.5zM211 -70v23h-37v16l37 21v26l-41 -24q-3 6 -7.5 10.5t-10.5 7t-13 2.5q-10 0 -18.5 -5
t-13 -13.5t-4.5 -19.5v-44h108zM103 56h108v-24h-108v24zM211 70v25l-20 7v43l20 8v26l-108 -44v-23zM211 192v66h-21v-42h-87v-24h108zM211 306v23h-41v38h-22v-38h-23v42h-22v-65h108zM211 515v23h-68l68 50v19h-108v-23h66l-66 -47v-22h108zM125 623v30h86v24h-86v30h-22
v-84h22zM127.5 456.5q4.5 7.5 12 12t17.5 4.5t18 -4.5t12.5 -12t4.5 -17.5q0 -9 -4.5 -17t-12.5 -12.5t-18 -4.5t-17.5 4.5t-12 12.5t-4.5 17q0 10 4.5 17.5zM124 -28q0 5 2 8.5t5 5.5t7 2t7.5 -2t5.5 -5.5t2 -8.5v-19h-29v19zM170 138v-28l-39 14z" />
    <glyph glyph-name="ibreve" unicode="&#x12d;" 
d="M125 -116h86v-24h-86v-30h-22v84h22v-30zM107.5 409.5q7.5 -13.5 20.5 -21t29 -7.5t29 7.5t20.5 21t7.5 29.5t-7.5 29.5t-20.5 21t-29 7.5t-29 -7.5t-20.5 -21t-7.5 -29.5t7.5 -29.5zM211 -70v23h-37v16l37 21v26l-41 -24q-3 6 -7.5 10.5t-10.5 7t-13 2.5q-10 0 -18.5 -5
t-13 -13.5t-4.5 -19.5v-44h108zM103 56h108v-24h-108v24zM211 70v25l-20 7v43l20 8v26l-108 -44v-23zM211 192v66h-21v-42h-87v-24h108zM211 306v23h-41v38h-22v-38h-23v42h-22v-65h108zM211 515v23h-68l68 50v19h-108v-23h66l-66 -47v-22h108zM125 623v30h86v24h-86v30h-22
v-84h22zM127.5 456.5q4.5 7.5 12 12t17.5 4.5t18 -4.5t12.5 -12t4.5 -17.5q0 -9 -4.5 -17t-12.5 -12.5t-18 -4.5t-17.5 4.5t-12 12.5t-4.5 17q0 10 4.5 17.5zM124 -28q0 5 2 8.5t5 5.5t7 2t7.5 -2t5.5 -5.5t2 -8.5v-19h-29v19zM170 138v-28l-39 14z" />
    <glyph glyph-name="icircumflex" unicode="&#xee;" 
d="M125 -116h86v-24h-86v-30h-22v84h22v-30zM107.5 409.5q7.5 -13.5 20.5 -21t29 -7.5t29 7.5t20.5 21t7.5 29.5t-7.5 29.5t-20.5 21t-29 7.5t-29 -7.5t-20.5 -21t-7.5 -29.5t7.5 -29.5zM211 -70v23h-37v16l37 21v26l-41 -24q-3 6 -7.5 10.5t-10.5 7t-13 2.5q-10 0 -18.5 -5
t-13 -13.5t-4.5 -19.5v-44h108zM103 56h108v-24h-108v24zM211 70v25l-20 7v43l20 8v26l-108 -44v-23zM211 192v66h-21v-42h-87v-24h108zM211 306v23h-41v38h-22v-38h-23v42h-22v-65h108zM211 515v23h-68l68 50v19h-108v-23h66l-66 -47v-22h108zM125 623v30h86v24h-86v30h-22
v-84h22zM127.5 456.5q4.5 7.5 12 12t17.5 4.5t18 -4.5t12.5 -12t4.5 -17.5q0 -9 -4.5 -17t-12.5 -12.5t-18 -4.5t-17.5 4.5t-12 12.5t-4.5 17q0 10 4.5 17.5zM124 -28q0 5 2 8.5t5 5.5t7 2t7.5 -2t5.5 -5.5t2 -8.5v-19h-29v19zM170 138v-28l-39 14z" />
    <glyph glyph-name="idieresis" unicode="&#xef;" 
d="M125 -116h86v-24h-86v-30h-22v84h22v-30zM107.5 409.5q7.5 -13.5 20.5 -21t29 -7.5t29 7.5t20.5 21t7.5 29.5t-7.5 29.5t-20.5 21t-29 7.5t-29 -7.5t-20.5 -21t-7.5 -29.5t7.5 -29.5zM211 -70v23h-37v16l37 21v26l-41 -24q-3 6 -7.5 10.5t-10.5 7t-13 2.5q-10 0 -18.5 -5
t-13 -13.5t-4.5 -19.5v-44h108zM103 56h108v-24h-108v24zM211 70v25l-20 7v43l20 8v26l-108 -44v-23zM211 192v66h-21v-42h-87v-24h108zM211 306v23h-41v38h-22v-38h-23v42h-22v-65h108zM211 515v23h-68l68 50v19h-108v-23h66l-66 -47v-22h108zM125 623v30h86v24h-86v30h-22
v-84h22zM127.5 456.5q4.5 7.5 12 12t17.5 4.5t18 -4.5t12.5 -12t4.5 -17.5q0 -9 -4.5 -17t-12.5 -12.5t-18 -4.5t-17.5 4.5t-12 12.5t-4.5 17q0 10 4.5 17.5zM124 -28q0 5 2 8.5t5 5.5t7 2t7.5 -2t5.5 -5.5t2 -8.5v-19h-29v19zM170 138v-28l-39 14z" />
    <glyph glyph-name="igrave" unicode="&#xec;" 
d="M125 -116h86v-24h-86v-30h-22v84h22v-30zM107.5 409.5q7.5 -13.5 20.5 -21t29 -7.5t29 7.5t20.5 21t7.5 29.5t-7.5 29.5t-20.5 21t-29 7.5t-29 -7.5t-20.5 -21t-7.5 -29.5t7.5 -29.5zM211 -70v23h-37v16l37 21v26l-41 -24q-3 6 -7.5 10.5t-10.5 7t-13 2.5q-10 0 -18.5 -5
t-13 -13.5t-4.5 -19.5v-44h108zM103 56h108v-24h-108v24zM211 70v25l-20 7v43l20 8v26l-108 -44v-23zM211 192v66h-21v-42h-87v-24h108zM211 306v23h-41v38h-22v-38h-23v42h-22v-65h108zM211 515v23h-68l68 50v19h-108v-23h66l-66 -47v-22h108zM125 623v30h86v24h-86v30h-22
v-84h22zM127.5 456.5q4.5 7.5 12 12t17.5 4.5t18 -4.5t12.5 -12t4.5 -17.5q0 -9 -4.5 -17t-12.5 -12.5t-18 -4.5t-17.5 4.5t-12 12.5t-4.5 17q0 10 4.5 17.5zM124 -28q0 5 2 8.5t5 5.5t7 2t7.5 -2t5.5 -5.5t2 -8.5v-19h-29v19zM170 138v-28l-39 14z" />
    <glyph glyph-name="ij" unicode="&#x133;" 
d="M125 -116h86v-24h-86v-30h-22v84h22v-30zM107.5 409.5q7.5 -13.5 20.5 -21t29 -7.5t29 7.5t20.5 21t7.5 29.5t-7.5 29.5t-20.5 21t-29 7.5t-29 -7.5t-20.5 -21t-7.5 -29.5t7.5 -29.5zM211 -70v23h-37v16l37 21v26l-41 -24q-3 6 -7.5 10.5t-10.5 7t-13 2.5q-10 0 -18.5 -5
t-13 -13.5t-4.5 -19.5v-44h108zM103 56h108v-24h-108v24zM211 70v25l-20 7v43l20 8v26l-108 -44v-23zM211 192v66h-21v-42h-87v-24h108zM211 306v23h-41v38h-22v-38h-23v42h-22v-65h108zM211 515v23h-68l68 50v19h-108v-23h66l-66 -47v-22h108zM125 623v30h86v24h-86v30h-22
v-84h22zM127.5 456.5q4.5 7.5 12 12t17.5 4.5t18 -4.5t12.5 -12t4.5 -17.5q0 -9 -4.5 -17t-12.5 -12.5t-18 -4.5t-17.5 4.5t-12 12.5t-4.5 17q0 10 4.5 17.5zM124 -28q0 5 2 8.5t5 5.5t7 2t7.5 -2t5.5 -5.5t2 -8.5v-19h-29v19zM170 138v-28l-39 14z" />
    <glyph glyph-name="imacron" unicode="&#x12b;" 
d="M125 -116h86v-24h-86v-30h-22v84h22v-30zM107.5 409.5q7.5 -13.5 20.5 -21t29 -7.5t29 7.5t20.5 21t7.5 29.5t-7.5 29.5t-20.5 21t-29 7.5t-29 -7.5t-20.5 -21t-7.5 -29.5t7.5 -29.5zM211 -70v23h-37v16l37 21v26l-41 -24q-3 6 -7.5 10.5t-10.5 7t-13 2.5q-10 0 -18.5 -5
t-13 -13.5t-4.5 -19.5v-44h108zM103 56h108v-24h-108v24zM211 70v25l-20 7v43l20 8v26l-108 -44v-23zM211 192v66h-21v-42h-87v-24h108zM211 306v23h-41v38h-22v-38h-23v42h-22v-65h108zM211 515v23h-68l68 50v19h-108v-23h66l-66 -47v-22h108zM125 623v30h86v24h-86v30h-22
v-84h22zM127.5 456.5q4.5 7.5 12 12t17.5 4.5t18 -4.5t12.5 -12t4.5 -17.5q0 -9 -4.5 -17t-12.5 -12.5t-18 -4.5t-17.5 4.5t-12 12.5t-4.5 17q0 10 4.5 17.5zM124 -28q0 5 2 8.5t5 5.5t7 2t7.5 -2t5.5 -5.5t2 -8.5v-19h-29v19zM170 138v-28l-39 14z" />
    <glyph glyph-name="iogonek" unicode="&#x12f;" 
d="M125 -116h86v-24h-86v-30h-22v84h22v-30zM107.5 409.5q7.5 -13.5 20.5 -21t29 -7.5t29 7.5t20.5 21t7.5 29.5t-7.5 29.5t-20.5 21t-29 7.5t-29 -7.5t-20.5 -21t-7.5 -29.5t7.5 -29.5zM211 -70v23h-37v16l37 21v26l-41 -24q-3 6 -7.5 10.5t-10.5 7t-13 2.5q-10 0 -18.5 -5
t-13 -13.5t-4.5 -19.5v-44h108zM103 56h108v-24h-108v24zM211 70v25l-20 7v43l20 8v26l-108 -44v-23zM211 192v66h-21v-42h-87v-24h108zM211 306v23h-41v38h-22v-38h-23v42h-22v-65h108zM211 515v23h-68l68 50v19h-108v-23h66l-66 -47v-22h108zM125 623v30h86v24h-86v30h-22
v-84h22zM127.5 456.5q4.5 7.5 12 12t17.5 4.5t18 -4.5t12.5 -12t4.5 -17.5q0 -9 -4.5 -17t-12.5 -12.5t-18 -4.5t-17.5 4.5t-12 12.5t-4.5 17q0 10 4.5 17.5zM124 -28q0 5 2 8.5t5 5.5t7 2t7.5 -2t5.5 -5.5t2 -8.5v-19h-29v19zM170 138v-28l-39 14z" />
    <glyph glyph-name="itilde" unicode="&#x129;" 
d="M125 -116h86v-24h-86v-30h-22v84h22v-30zM107.5 409.5q7.5 -13.5 20.5 -21t29 -7.5t29 7.5t20.5 21t7.5 29.5t-7.5 29.5t-20.5 21t-29 7.5t-29 -7.5t-20.5 -21t-7.5 -29.5t7.5 -29.5zM211 -70v23h-37v16l37 21v26l-41 -24q-3 6 -7.5 10.5t-10.5 7t-13 2.5q-10 0 -18.5 -5
t-13 -13.5t-4.5 -19.5v-44h108zM103 56h108v-24h-108v24zM211 70v25l-20 7v43l20 8v26l-108 -44v-23zM211 192v66h-21v-42h-87v-24h108zM211 306v23h-41v38h-22v-38h-23v42h-22v-65h108zM211 515v23h-68l68 50v19h-108v-23h66l-66 -47v-22h108zM125 623v30h86v24h-86v30h-22
v-84h22zM127.5 456.5q4.5 7.5 12 12t17.5 4.5t18 -4.5t12.5 -12t4.5 -17.5q0 -9 -4.5 -17t-12.5 -12.5t-18 -4.5t-17.5 4.5t-12 12.5t-4.5 17q0 10 4.5 17.5zM124 -28q0 5 2 8.5t5 5.5t7 2t7.5 -2t5.5 -5.5t2 -8.5v-19h-29v19zM170 138v-28l-39 14z" />
    <glyph glyph-name="j" unicode="j" horiz-adv-x="282" 
d="M-2 -198q-16 3 -29.5 7t-23.5 8l-23 132q8 -4 19.5 -8.5t25 -7t26.5 -2.5q24 0 40 9t24.5 30.5t8.5 56.5v487h158v-487q0 -78 -23 -128.5t-66.5 -75t-104.5 -24.5q-16 0 -32 3zM66 699h158v-119h-158v119z" />
    <glyph glyph-name="uni0237" unicode="&#x237;" 
d="M125 -116h86v-24h-86v-30h-22v84h22v-30zM107.5 409.5q7.5 -13.5 20.5 -21t29 -7.5t29 7.5t20.5 21t7.5 29.5t-7.5 29.5t-20.5 21t-29 7.5t-29 -7.5t-20.5 -21t-7.5 -29.5t7.5 -29.5zM211 -70v23h-37v16l37 21v26l-41 -24q-3 6 -7.5 10.5t-10.5 7t-13 2.5q-10 0 -18.5 -5
t-13 -13.5t-4.5 -19.5v-44h108zM103 56h108v-24h-108v24zM211 70v25l-20 7v43l20 8v26l-108 -44v-23zM211 192v66h-21v-42h-87v-24h108zM211 306v23h-41v38h-22v-38h-23v42h-22v-65h108zM211 515v23h-68l68 50v19h-108v-23h66l-66 -47v-22h108zM125 623v30h86v24h-86v30h-22
v-84h22zM127.5 456.5q4.5 7.5 12 12t17.5 4.5t18 -4.5t12.5 -12t4.5 -17.5q0 -9 -4.5 -17t-12.5 -12.5t-18 -4.5t-17.5 4.5t-12 12.5t-4.5 17q0 10 4.5 17.5zM124 -28q0 5 2 8.5t5 5.5t7 2t7.5 -2t5.5 -5.5t2 -8.5v-19h-29v19zM170 138v-28l-39 14z" />
    <glyph glyph-name="jcircumflex" unicode="&#x135;" 
d="M125 -116h86v-24h-86v-30h-22v84h22v-30zM107.5 409.5q7.5 -13.5 20.5 -21t29 -7.5t29 7.5t20.5 21t7.5 29.5t-7.5 29.5t-20.5 21t-29 7.5t-29 -7.5t-20.5 -21t-7.5 -29.5t7.5 -29.5zM211 -70v23h-37v16l37 21v26l-41 -24q-3 6 -7.5 10.5t-10.5 7t-13 2.5q-10 0 -18.5 -5
t-13 -13.5t-4.5 -19.5v-44h108zM103 56h108v-24h-108v24zM211 70v25l-20 7v43l20 8v26l-108 -44v-23zM211 192v66h-21v-42h-87v-24h108zM211 306v23h-41v38h-22v-38h-23v42h-22v-65h108zM211 515v23h-68l68 50v19h-108v-23h66l-66 -47v-22h108zM125 623v30h86v24h-86v30h-22
v-84h22zM127.5 456.5q4.5 7.5 12 12t17.5 4.5t18 -4.5t12.5 -12t4.5 -17.5q0 -9 -4.5 -17t-12.5 -12.5t-18 -4.5t-17.5 4.5t-12 12.5t-4.5 17q0 10 4.5 17.5zM124 -28q0 5 2 8.5t5 5.5t7 2t7.5 -2t5.5 -5.5t2 -8.5v-19h-29v19zM170 138v-28l-39 14z" />
    <glyph glyph-name="k" unicode="k" horiz-adv-x="554" 
d="M262 201h-49v-201h-155v687l155 24v-389h46l108 192h172l-152 -245l165 -269h-178z" />
    <glyph glyph-name="uni0137" unicode="&#x137;" 
d="M125 -116h86v-24h-86v-30h-22v84h22v-30zM107.5 409.5q7.5 -13.5 20.5 -21t29 -7.5t29 7.5t20.5 21t7.5 29.5t-7.5 29.5t-20.5 21t-29 7.5t-29 -7.5t-20.5 -21t-7.5 -29.5t7.5 -29.5zM211 -70v23h-37v16l37 21v26l-41 -24q-3 6 -7.5 10.5t-10.5 7t-13 2.5q-10 0 -18.5 -5
t-13 -13.5t-4.5 -19.5v-44h108zM103 56h108v-24h-108v24zM211 70v25l-20 7v43l20 8v26l-108 -44v-23zM211 192v66h-21v-42h-87v-24h108zM211 306v23h-41v38h-22v-38h-23v42h-22v-65h108zM211 515v23h-68l68 50v19h-108v-23h66l-66 -47v-22h108zM125 623v30h86v24h-86v30h-22
v-84h22zM127.5 456.5q4.5 7.5 12 12t17.5 4.5t18 -4.5t12.5 -12t4.5 -17.5q0 -9 -4.5 -17t-12.5 -12.5t-18 -4.5t-17.5 4.5t-12 12.5t-4.5 17q0 10 4.5 17.5zM124 -28q0 5 2 8.5t5 5.5t7 2t7.5 -2t5.5 -5.5t2 -8.5v-19h-29v19zM170 138v-28l-39 14z" />
    <glyph glyph-name="kgreenlandic" unicode="&#x138;" 
d="M125 -116h86v-24h-86v-30h-22v84h22v-30zM107.5 409.5q7.5 -13.5 20.5 -21t29 -7.5t29 7.5t20.5 21t7.5 29.5t-7.5 29.5t-20.5 21t-29 7.5t-29 -7.5t-20.5 -21t-7.5 -29.5t7.5 -29.5zM211 -70v23h-37v16l37 21v26l-41 -24q-3 6 -7.5 10.5t-10.5 7t-13 2.5q-10 0 -18.5 -5
t-13 -13.5t-4.5 -19.5v-44h108zM103 56h108v-24h-108v24zM211 70v25l-20 7v43l20 8v26l-108 -44v-23zM211 192v66h-21v-42h-87v-24h108zM211 306v23h-41v38h-22v-38h-23v42h-22v-65h108zM211 515v23h-68l68 50v19h-108v-23h66l-66 -47v-22h108zM125 623v30h86v24h-86v30h-22
v-84h22zM127.5 456.5q4.5 7.5 12 12t17.5 4.5t18 -4.5t12.5 -12t4.5 -17.5q0 -9 -4.5 -17t-12.5 -12.5t-18 -4.5t-17.5 4.5t-12 12.5t-4.5 17q0 10 4.5 17.5zM124 -28q0 5 2 8.5t5 5.5t7 2t7.5 -2t5.5 -5.5t2 -8.5v-19h-29v19zM170 138v-28l-39 14z" />
    <glyph glyph-name="l" unicode="l" horiz-adv-x="274" 
d="M58 687l158 24v-711h-158v687z" />
    <glyph glyph-name="lacute" unicode="&#x13a;" 
d="M125 -116h86v-24h-86v-30h-22v84h22v-30zM107.5 409.5q7.5 -13.5 20.5 -21t29 -7.5t29 7.5t20.5 21t7.5 29.5t-7.5 29.5t-20.5 21t-29 7.5t-29 -7.5t-20.5 -21t-7.5 -29.5t7.5 -29.5zM211 -70v23h-37v16l37 21v26l-41 -24q-3 6 -7.5 10.5t-10.5 7t-13 2.5q-10 0 -18.5 -5
t-13 -13.5t-4.5 -19.5v-44h108zM103 56h108v-24h-108v24zM211 70v25l-20 7v43l20 8v26l-108 -44v-23zM211 192v66h-21v-42h-87v-24h108zM211 306v23h-41v38h-22v-38h-23v42h-22v-65h108zM211 515v23h-68l68 50v19h-108v-23h66l-66 -47v-22h108zM125 623v30h86v24h-86v30h-22
v-84h22zM127.5 456.5q4.5 7.5 12 12t17.5 4.5t18 -4.5t12.5 -12t4.5 -17.5q0 -9 -4.5 -17t-12.5 -12.5t-18 -4.5t-17.5 4.5t-12 12.5t-4.5 17q0 10 4.5 17.5zM124 -28q0 5 2 8.5t5 5.5t7 2t7.5 -2t5.5 -5.5t2 -8.5v-19h-29v19zM170 138v-28l-39 14z" />
    <glyph glyph-name="lcaron" unicode="&#x13e;" 
d="M125 -116h86v-24h-86v-30h-22v84h22v-30zM107.5 409.5q7.5 -13.5 20.5 -21t29 -7.5t29 7.5t20.5 21t7.5 29.5t-7.5 29.5t-20.5 21t-29 7.5t-29 -7.5t-20.5 -21t-7.5 -29.5t7.5 -29.5zM211 -70v23h-37v16l37 21v26l-41 -24q-3 6 -7.5 10.5t-10.5 7t-13 2.5q-10 0 -18.5 -5
t-13 -13.5t-4.5 -19.5v-44h108zM103 56h108v-24h-108v24zM211 70v25l-20 7v43l20 8v26l-108 -44v-23zM211 192v66h-21v-42h-87v-24h108zM211 306v23h-41v38h-22v-38h-23v42h-22v-65h108zM211 515v23h-68l68 50v19h-108v-23h66l-66 -47v-22h108zM125 623v30h86v24h-86v30h-22
v-84h22zM127.5 456.5q4.5 7.5 12 12t17.5 4.5t18 -4.5t12.5 -12t4.5 -17.5q0 -9 -4.5 -17t-12.5 -12.5t-18 -4.5t-17.5 4.5t-12 12.5t-4.5 17q0 10 4.5 17.5zM124 -28q0 5 2 8.5t5 5.5t7 2t7.5 -2t5.5 -5.5t2 -8.5v-19h-29v19zM170 138v-28l-39 14z" />
    <glyph glyph-name="uni013C" unicode="&#x13c;" 
d="M125 -116h86v-24h-86v-30h-22v84h22v-30zM107.5 409.5q7.5 -13.5 20.5 -21t29 -7.5t29 7.5t20.5 21t7.5 29.5t-7.5 29.5t-20.5 21t-29 7.5t-29 -7.5t-20.5 -21t-7.5 -29.5t7.5 -29.5zM211 -70v23h-37v16l37 21v26l-41 -24q-3 6 -7.5 10.5t-10.5 7t-13 2.5q-10 0 -18.5 -5
t-13 -13.5t-4.5 -19.5v-44h108zM103 56h108v-24h-108v24zM211 70v25l-20 7v43l20 8v26l-108 -44v-23zM211 192v66h-21v-42h-87v-24h108zM211 306v23h-41v38h-22v-38h-23v42h-22v-65h108zM211 515v23h-68l68 50v19h-108v-23h66l-66 -47v-22h108zM125 623v30h86v24h-86v30h-22
v-84h22zM127.5 456.5q4.5 7.5 12 12t17.5 4.5t18 -4.5t12.5 -12t4.5 -17.5q0 -9 -4.5 -17t-12.5 -12.5t-18 -4.5t-17.5 4.5t-12 12.5t-4.5 17q0 10 4.5 17.5zM124 -28q0 5 2 8.5t5 5.5t7 2t7.5 -2t5.5 -5.5t2 -8.5v-19h-29v19zM170 138v-28l-39 14z" />
    <glyph glyph-name="ldot" unicode="&#x140;" 
d="M125 -116h86v-24h-86v-30h-22v84h22v-30zM107.5 409.5q7.5 -13.5 20.5 -21t29 -7.5t29 7.5t20.5 21t7.5 29.5t-7.5 29.5t-20.5 21t-29 7.5t-29 -7.5t-20.5 -21t-7.5 -29.5t7.5 -29.5zM211 -70v23h-37v16l37 21v26l-41 -24q-3 6 -7.5 10.5t-10.5 7t-13 2.5q-10 0 -18.5 -5
t-13 -13.5t-4.5 -19.5v-44h108zM103 56h108v-24h-108v24zM211 70v25l-20 7v43l20 8v26l-108 -44v-23zM211 192v66h-21v-42h-87v-24h108zM211 306v23h-41v38h-22v-38h-23v42h-22v-65h108zM211 515v23h-68l68 50v19h-108v-23h66l-66 -47v-22h108zM125 623v30h86v24h-86v30h-22
v-84h22zM127.5 456.5q4.5 7.5 12 12t17.5 4.5t18 -4.5t12.5 -12t4.5 -17.5q0 -9 -4.5 -17t-12.5 -12.5t-18 -4.5t-17.5 4.5t-12 12.5t-4.5 17q0 10 4.5 17.5zM124 -28q0 5 2 8.5t5 5.5t7 2t7.5 -2t5.5 -5.5t2 -8.5v-19h-29v19zM170 138v-28l-39 14z" />
    <glyph glyph-name="lslash" unicode="&#x142;" 
d="M125 -116h86v-24h-86v-30h-22v84h22v-30zM107.5 409.5q7.5 -13.5 20.5 -21t29 -7.5t29 7.5t20.5 21t7.5 29.5t-7.5 29.5t-20.5 21t-29 7.5t-29 -7.5t-20.5 -21t-7.5 -29.5t7.5 -29.5zM211 -70v23h-37v16l37 21v26l-41 -24q-3 6 -7.5 10.5t-10.5 7t-13 2.5q-10 0 -18.5 -5
t-13 -13.5t-4.5 -19.5v-44h108zM103 56h108v-24h-108v24zM211 70v25l-20 7v43l20 8v26l-108 -44v-23zM211 192v66h-21v-42h-87v-24h108zM211 306v23h-41v38h-22v-38h-23v42h-22v-65h108zM211 515v23h-68l68 50v19h-108v-23h66l-66 -47v-22h108zM125 623v30h86v24h-86v30h-22
v-84h22zM127.5 456.5q4.5 7.5 12 12t17.5 4.5t18 -4.5t12.5 -12t4.5 -17.5q0 -9 -4.5 -17t-12.5 -12.5t-18 -4.5t-17.5 4.5t-12 12.5t-4.5 17q0 10 4.5 17.5zM124 -28q0 5 2 8.5t5 5.5t7 2t7.5 -2t5.5 -5.5t2 -8.5v-19h-29v19zM170 138v-28l-39 14z" />
    <glyph glyph-name="m" unicode="m" horiz-adv-x="878" 
d="M746.5 501q38.5 -23 58 -64.5t19.5 -95.5v-341h-158v302q0 30 -7 50.5t-22.5 31t-40.5 10.5q-27 0 -44 -10.5t-24.5 -31t-7.5 -50.5v-302h-158v302q0 31 -7 51t-22 30.5t-41 10.5q-27 0 -44 -10.5t-24.5 -31t-7.5 -50.5v-302h-158v514h138l20 -55q16 21 35.5 35.5t45 22
t57.5 7.5q33 0 59.5 -8.5t46 -25t32.5 -39.5q21 25 44.5 41t52 24t63.5 8q56 0 94.5 -23z" />
    <glyph glyph-name="n" unicode="n" horiz-adv-x="581" 
d="M58 514h138l20 -55q17 21 37 35.5t46 22t59 7.5q55 0 93 -23.5t57 -65.5t19 -97v-338h-158v299q0 32 -7 52.5t-23.5 31.5t-43.5 11q-28 0 -45.5 -11t-25.5 -32t-8 -52v-299h-158v514z" />
    <glyph glyph-name="nacute" unicode="&#x144;" 
d="M125 -116h86v-24h-86v-30h-22v84h22v-30zM107.5 409.5q7.5 -13.5 20.5 -21t29 -7.5t29 7.5t20.5 21t7.5 29.5t-7.5 29.5t-20.5 21t-29 7.5t-29 -7.5t-20.5 -21t-7.5 -29.5t7.5 -29.5zM211 -70v23h-37v16l37 21v26l-41 -24q-3 6 -7.5 10.5t-10.5 7t-13 2.5q-10 0 -18.5 -5
t-13 -13.5t-4.5 -19.5v-44h108zM103 56h108v-24h-108v24zM211 70v25l-20 7v43l20 8v26l-108 -44v-23zM211 192v66h-21v-42h-87v-24h108zM211 306v23h-41v38h-22v-38h-23v42h-22v-65h108zM211 515v23h-68l68 50v19h-108v-23h66l-66 -47v-22h108zM125 623v30h86v24h-86v30h-22
v-84h22zM127.5 456.5q4.5 7.5 12 12t17.5 4.5t18 -4.5t12.5 -12t4.5 -17.5q0 -9 -4.5 -17t-12.5 -12.5t-18 -4.5t-17.5 4.5t-12 12.5t-4.5 17q0 10 4.5 17.5zM124 -28q0 5 2 8.5t5 5.5t7 2t7.5 -2t5.5 -5.5t2 -8.5v-19h-29v19zM170 138v-28l-39 14z" />
    <glyph glyph-name="napostrophe" unicode="&#x149;" 
d="M125 -116h86v-24h-86v-30h-22v84h22v-30zM107.5 409.5q7.5 -13.5 20.5 -21t29 -7.5t29 7.5t20.5 21t7.5 29.5t-7.5 29.5t-20.5 21t-29 7.5t-29 -7.5t-20.5 -21t-7.5 -29.5t7.5 -29.5zM211 -70v23h-37v16l37 21v26l-41 -24q-3 6 -7.5 10.5t-10.5 7t-13 2.5q-10 0 -18.5 -5
t-13 -13.5t-4.5 -19.5v-44h108zM103 56h108v-24h-108v24zM211 70v25l-20 7v43l20 8v26l-108 -44v-23zM211 192v66h-21v-42h-87v-24h108zM211 306v23h-41v38h-22v-38h-23v42h-22v-65h108zM211 515v23h-68l68 50v19h-108v-23h66l-66 -47v-22h108zM125 623v30h86v24h-86v30h-22
v-84h22zM127.5 456.5q4.5 7.5 12 12t17.5 4.5t18 -4.5t12.5 -12t4.5 -17.5q0 -9 -4.5 -17t-12.5 -12.5t-18 -4.5t-17.5 4.5t-12 12.5t-4.5 17q0 10 4.5 17.5zM124 -28q0 5 2 8.5t5 5.5t7 2t7.5 -2t5.5 -5.5t2 -8.5v-19h-29v19zM170 138v-28l-39 14z" />
    <glyph glyph-name="ncaron" unicode="&#x148;" 
d="M125 -116h86v-24h-86v-30h-22v84h22v-30zM107.5 409.5q7.5 -13.5 20.5 -21t29 -7.5t29 7.5t20.5 21t7.5 29.5t-7.5 29.5t-20.5 21t-29 7.5t-29 -7.5t-20.5 -21t-7.5 -29.5t7.5 -29.5zM211 -70v23h-37v16l37 21v26l-41 -24q-3 6 -7.5 10.5t-10.5 7t-13 2.5q-10 0 -18.5 -5
t-13 -13.5t-4.5 -19.5v-44h108zM103 56h108v-24h-108v24zM211 70v25l-20 7v43l20 8v26l-108 -44v-23zM211 192v66h-21v-42h-87v-24h108zM211 306v23h-41v38h-22v-38h-23v42h-22v-65h108zM211 515v23h-68l68 50v19h-108v-23h66l-66 -47v-22h108zM125 623v30h86v24h-86v30h-22
v-84h22zM127.5 456.5q4.5 7.5 12 12t17.5 4.5t18 -4.5t12.5 -12t4.5 -17.5q0 -9 -4.5 -17t-12.5 -12.5t-18 -4.5t-17.5 4.5t-12 12.5t-4.5 17q0 10 4.5 17.5zM124 -28q0 5 2 8.5t5 5.5t7 2t7.5 -2t5.5 -5.5t2 -8.5v-19h-29v19zM170 138v-28l-39 14z" />
    <glyph glyph-name="uni0146" unicode="&#x146;" 
d="M125 -116h86v-24h-86v-30h-22v84h22v-30zM107.5 409.5q7.5 -13.5 20.5 -21t29 -7.5t29 7.5t20.5 21t7.5 29.5t-7.5 29.5t-20.5 21t-29 7.5t-29 -7.5t-20.5 -21t-7.5 -29.5t7.5 -29.5zM211 -70v23h-37v16l37 21v26l-41 -24q-3 6 -7.5 10.5t-10.5 7t-13 2.5q-10 0 -18.5 -5
t-13 -13.5t-4.5 -19.5v-44h108zM103 56h108v-24h-108v24zM211 70v25l-20 7v43l20 8v26l-108 -44v-23zM211 192v66h-21v-42h-87v-24h108zM211 306v23h-41v38h-22v-38h-23v42h-22v-65h108zM211 515v23h-68l68 50v19h-108v-23h66l-66 -47v-22h108zM125 623v30h86v24h-86v30h-22
v-84h22zM127.5 456.5q4.5 7.5 12 12t17.5 4.5t18 -4.5t12.5 -12t4.5 -17.5q0 -9 -4.5 -17t-12.5 -12.5t-18 -4.5t-17.5 4.5t-12 12.5t-4.5 17q0 10 4.5 17.5zM124 -28q0 5 2 8.5t5 5.5t7 2t7.5 -2t5.5 -5.5t2 -8.5v-19h-29v19zM170 138v-28l-39 14z" />
    <glyph glyph-name="ntilde" unicode="&#xf1;" 
d="M125 -116h86v-24h-86v-30h-22v84h22v-30zM107.5 409.5q7.5 -13.5 20.5 -21t29 -7.5t29 7.5t20.5 21t7.5 29.5t-7.5 29.5t-20.5 21t-29 7.5t-29 -7.5t-20.5 -21t-7.5 -29.5t7.5 -29.5zM211 -70v23h-37v16l37 21v26l-41 -24q-3 6 -7.5 10.5t-10.5 7t-13 2.5q-10 0 -18.5 -5
t-13 -13.5t-4.5 -19.5v-44h108zM103 56h108v-24h-108v24zM211 70v25l-20 7v43l20 8v26l-108 -44v-23zM211 192v66h-21v-42h-87v-24h108zM211 306v23h-41v38h-22v-38h-23v42h-22v-65h108zM211 515v23h-68l68 50v19h-108v-23h66l-66 -47v-22h108zM125 623v30h86v24h-86v30h-22
v-84h22zM127.5 456.5q4.5 7.5 12 12t17.5 4.5t18 -4.5t12.5 -12t4.5 -17.5q0 -9 -4.5 -17t-12.5 -12.5t-18 -4.5t-17.5 4.5t-12 12.5t-4.5 17q0 10 4.5 17.5zM124 -28q0 5 2 8.5t5 5.5t7 2t7.5 -2t5.5 -5.5t2 -8.5v-19h-29v19zM170 138v-28l-39 14z" />
    <glyph glyph-name="eng" unicode="&#x14b;" 
d="M125 -116h86v-24h-86v-30h-22v84h22v-30zM107.5 409.5q7.5 -13.5 20.5 -21t29 -7.5t29 7.5t20.5 21t7.5 29.5t-7.5 29.5t-20.5 21t-29 7.5t-29 -7.5t-20.5 -21t-7.5 -29.5t7.5 -29.5zM211 -70v23h-37v16l37 21v26l-41 -24q-3 6 -7.5 10.5t-10.5 7t-13 2.5q-10 0 -18.5 -5
t-13 -13.5t-4.5 -19.5v-44h108zM103 56h108v-24h-108v24zM211 70v25l-20 7v43l20 8v26l-108 -44v-23zM211 192v66h-21v-42h-87v-24h108zM211 306v23h-41v38h-22v-38h-23v42h-22v-65h108zM211 515v23h-68l68 50v19h-108v-23h66l-66 -47v-22h108zM125 623v30h86v24h-86v30h-22
v-84h22zM127.5 456.5q4.5 7.5 12 12t17.5 4.5t18 -4.5t12.5 -12t4.5 -17.5q0 -9 -4.5 -17t-12.5 -12.5t-18 -4.5t-17.5 4.5t-12 12.5t-4.5 17q0 10 4.5 17.5zM124 -28q0 5 2 8.5t5 5.5t7 2t7.5 -2t5.5 -5.5t2 -8.5v-19h-29v19zM170 138v-28l-39 14z" />
    <glyph glyph-name="o" unicode="o" horiz-adv-x="548" 
d="M137.5 17.5q-52.5 28.5 -78 87t-25.5 152.5q0 93 25.5 152t78 87t136.5 28t136.5 -28t78 -87t25.5 -152q0 -94 -25.5 -152.5t-78 -87t-136.5 -28.5t-136.5 28.5zM201.5 174.5q7.5 -29.5 25 -42.5t47.5 -13t47.5 13t25 42.5t7.5 82.5q0 52 -7.5 82t-25 43t-47.5 13
t-47.5 -13t-25 -43t-7.5 -82q0 -53 7.5 -82.5z" />
    <glyph glyph-name="oacute" unicode="&#xf3;" 
d="M125 -116h86v-24h-86v-30h-22v84h22v-30zM107.5 409.5q7.5 -13.5 20.5 -21t29 -7.5t29 7.5t20.5 21t7.5 29.5t-7.5 29.5t-20.5 21t-29 7.5t-29 -7.5t-20.5 -21t-7.5 -29.5t7.5 -29.5zM211 -70v23h-37v16l37 21v26l-41 -24q-3 6 -7.5 10.5t-10.5 7t-13 2.5q-10 0 -18.5 -5
t-13 -13.5t-4.5 -19.5v-44h108zM103 56h108v-24h-108v24zM211 70v25l-20 7v43l20 8v26l-108 -44v-23zM211 192v66h-21v-42h-87v-24h108zM211 306v23h-41v38h-22v-38h-23v42h-22v-65h108zM211 515v23h-68l68 50v19h-108v-23h66l-66 -47v-22h108zM125 623v30h86v24h-86v30h-22
v-84h22zM127.5 456.5q4.5 7.5 12 12t17.5 4.5t18 -4.5t12.5 -12t4.5 -17.5q0 -9 -4.5 -17t-12.5 -12.5t-18 -4.5t-17.5 4.5t-12 12.5t-4.5 17q0 10 4.5 17.5zM124 -28q0 5 2 8.5t5 5.5t7 2t7.5 -2t5.5 -5.5t2 -8.5v-19h-29v19zM170 138v-28l-39 14z" />
    <glyph glyph-name="obreve" unicode="&#x14f;" 
d="M125 -116h86v-24h-86v-30h-22v84h22v-30zM107.5 409.5q7.5 -13.5 20.5 -21t29 -7.5t29 7.5t20.5 21t7.5 29.5t-7.5 29.5t-20.5 21t-29 7.5t-29 -7.5t-20.5 -21t-7.5 -29.5t7.5 -29.5zM211 -70v23h-37v16l37 21v26l-41 -24q-3 6 -7.5 10.5t-10.5 7t-13 2.5q-10 0 -18.5 -5
t-13 -13.5t-4.5 -19.5v-44h108zM103 56h108v-24h-108v24zM211 70v25l-20 7v43l20 8v26l-108 -44v-23zM211 192v66h-21v-42h-87v-24h108zM211 306v23h-41v38h-22v-38h-23v42h-22v-65h108zM211 515v23h-68l68 50v19h-108v-23h66l-66 -47v-22h108zM125 623v30h86v24h-86v30h-22
v-84h22zM127.5 456.5q4.5 7.5 12 12t17.5 4.5t18 -4.5t12.5 -12t4.5 -17.5q0 -9 -4.5 -17t-12.5 -12.5t-18 -4.5t-17.5 4.5t-12 12.5t-4.5 17q0 10 4.5 17.5zM124 -28q0 5 2 8.5t5 5.5t7 2t7.5 -2t5.5 -5.5t2 -8.5v-19h-29v19zM170 138v-28l-39 14z" />
    <glyph glyph-name="ocircumflex" unicode="&#xf4;" 
d="M125 -116h86v-24h-86v-30h-22v84h22v-30zM107.5 409.5q7.5 -13.5 20.5 -21t29 -7.5t29 7.5t20.5 21t7.5 29.5t-7.5 29.5t-20.5 21t-29 7.5t-29 -7.5t-20.5 -21t-7.5 -29.5t7.5 -29.5zM211 -70v23h-37v16l37 21v26l-41 -24q-3 6 -7.5 10.5t-10.5 7t-13 2.5q-10 0 -18.5 -5
t-13 -13.5t-4.5 -19.5v-44h108zM103 56h108v-24h-108v24zM211 70v25l-20 7v43l20 8v26l-108 -44v-23zM211 192v66h-21v-42h-87v-24h108zM211 306v23h-41v38h-22v-38h-23v42h-22v-65h108zM211 515v23h-68l68 50v19h-108v-23h66l-66 -47v-22h108zM125 623v30h86v24h-86v30h-22
v-84h22zM127.5 456.5q4.5 7.5 12 12t17.5 4.5t18 -4.5t12.5 -12t4.5 -17.5q0 -9 -4.5 -17t-12.5 -12.5t-18 -4.5t-17.5 4.5t-12 12.5t-4.5 17q0 10 4.5 17.5zM124 -28q0 5 2 8.5t5 5.5t7 2t7.5 -2t5.5 -5.5t2 -8.5v-19h-29v19zM170 138v-28l-39 14z" />
    <glyph glyph-name="odieresis" unicode="&#xf6;" 
d="M125 -116h86v-24h-86v-30h-22v84h22v-30zM107.5 409.5q7.5 -13.5 20.5 -21t29 -7.5t29 7.5t20.5 21t7.5 29.5t-7.5 29.5t-20.5 21t-29 7.5t-29 -7.5t-20.5 -21t-7.5 -29.5t7.5 -29.5zM211 -70v23h-37v16l37 21v26l-41 -24q-3 6 -7.5 10.5t-10.5 7t-13 2.5q-10 0 -18.5 -5
t-13 -13.5t-4.5 -19.5v-44h108zM103 56h108v-24h-108v24zM211 70v25l-20 7v43l20 8v26l-108 -44v-23zM211 192v66h-21v-42h-87v-24h108zM211 306v23h-41v38h-22v-38h-23v42h-22v-65h108zM211 515v23h-68l68 50v19h-108v-23h66l-66 -47v-22h108zM125 623v30h86v24h-86v30h-22
v-84h22zM127.5 456.5q4.5 7.5 12 12t17.5 4.5t18 -4.5t12.5 -12t4.5 -17.5q0 -9 -4.5 -17t-12.5 -12.5t-18 -4.5t-17.5 4.5t-12 12.5t-4.5 17q0 10 4.5 17.5zM124 -28q0 5 2 8.5t5 5.5t7 2t7.5 -2t5.5 -5.5t2 -8.5v-19h-29v19zM170 138v-28l-39 14z" />
    <glyph glyph-name="ograve" unicode="&#xf2;" 
d="M125 -116h86v-24h-86v-30h-22v84h22v-30zM107.5 409.5q7.5 -13.5 20.5 -21t29 -7.5t29 7.5t20.5 21t7.5 29.5t-7.5 29.5t-20.5 21t-29 7.5t-29 -7.5t-20.5 -21t-7.5 -29.5t7.5 -29.5zM211 -70v23h-37v16l37 21v26l-41 -24q-3 6 -7.5 10.5t-10.5 7t-13 2.5q-10 0 -18.5 -5
t-13 -13.5t-4.5 -19.5v-44h108zM103 56h108v-24h-108v24zM211 70v25l-20 7v43l20 8v26l-108 -44v-23zM211 192v66h-21v-42h-87v-24h108zM211 306v23h-41v38h-22v-38h-23v42h-22v-65h108zM211 515v23h-68l68 50v19h-108v-23h66l-66 -47v-22h108zM125 623v30h86v24h-86v30h-22
v-84h22zM127.5 456.5q4.5 7.5 12 12t17.5 4.5t18 -4.5t12.5 -12t4.5 -17.5q0 -9 -4.5 -17t-12.5 -12.5t-18 -4.5t-17.5 4.5t-12 12.5t-4.5 17q0 10 4.5 17.5zM124 -28q0 5 2 8.5t5 5.5t7 2t7.5 -2t5.5 -5.5t2 -8.5v-19h-29v19zM170 138v-28l-39 14z" />
    <glyph glyph-name="ohungarumlaut" unicode="&#x151;" 
d="M125 -116h86v-24h-86v-30h-22v84h22v-30zM107.5 409.5q7.5 -13.5 20.5 -21t29 -7.5t29 7.5t20.5 21t7.5 29.5t-7.5 29.5t-20.5 21t-29 7.5t-29 -7.5t-20.5 -21t-7.5 -29.5t7.5 -29.5zM211 -70v23h-37v16l37 21v26l-41 -24q-3 6 -7.5 10.5t-10.5 7t-13 2.5q-10 0 -18.5 -5
t-13 -13.5t-4.5 -19.5v-44h108zM103 56h108v-24h-108v24zM211 70v25l-20 7v43l20 8v26l-108 -44v-23zM211 192v66h-21v-42h-87v-24h108zM211 306v23h-41v38h-22v-38h-23v42h-22v-65h108zM211 515v23h-68l68 50v19h-108v-23h66l-66 -47v-22h108zM125 623v30h86v24h-86v30h-22
v-84h22zM127.5 456.5q4.5 7.5 12 12t17.5 4.5t18 -4.5t12.5 -12t4.5 -17.5q0 -9 -4.5 -17t-12.5 -12.5t-18 -4.5t-17.5 4.5t-12 12.5t-4.5 17q0 10 4.5 17.5zM124 -28q0 5 2 8.5t5 5.5t7 2t7.5 -2t5.5 -5.5t2 -8.5v-19h-29v19zM170 138v-28l-39 14z" />
    <glyph glyph-name="omacron" unicode="&#x14d;" 
d="M125 -116h86v-24h-86v-30h-22v84h22v-30zM107.5 409.5q7.5 -13.5 20.5 -21t29 -7.5t29 7.5t20.5 21t7.5 29.5t-7.5 29.5t-20.5 21t-29 7.5t-29 -7.5t-20.5 -21t-7.5 -29.5t7.5 -29.5zM211 -70v23h-37v16l37 21v26l-41 -24q-3 6 -7.5 10.5t-10.5 7t-13 2.5q-10 0 -18.5 -5
t-13 -13.5t-4.5 -19.5v-44h108zM103 56h108v-24h-108v24zM211 70v25l-20 7v43l20 8v26l-108 -44v-23zM211 192v66h-21v-42h-87v-24h108zM211 306v23h-41v38h-22v-38h-23v42h-22v-65h108zM211 515v23h-68l68 50v19h-108v-23h66l-66 -47v-22h108zM125 623v30h86v24h-86v30h-22
v-84h22zM127.5 456.5q4.5 7.5 12 12t17.5 4.5t18 -4.5t12.5 -12t4.5 -17.5q0 -9 -4.5 -17t-12.5 -12.5t-18 -4.5t-17.5 4.5t-12 12.5t-4.5 17q0 10 4.5 17.5zM124 -28q0 5 2 8.5t5 5.5t7 2t7.5 -2t5.5 -5.5t2 -8.5v-19h-29v19zM170 138v-28l-39 14z" />
    <glyph glyph-name="oslash" unicode="&#xf8;" 
d="M125 -116h86v-24h-86v-30h-22v84h22v-30zM107.5 409.5q7.5 -13.5 20.5 -21t29 -7.5t29 7.5t20.5 21t7.5 29.5t-7.5 29.5t-20.5 21t-29 7.5t-29 -7.5t-20.5 -21t-7.5 -29.5t7.5 -29.5zM211 -70v23h-37v16l37 21v26l-41 -24q-3 6 -7.5 10.5t-10.5 7t-13 2.5q-10 0 -18.5 -5
t-13 -13.5t-4.5 -19.5v-44h108zM103 56h108v-24h-108v24zM211 70v25l-20 7v43l20 8v26l-108 -44v-23zM211 192v66h-21v-42h-87v-24h108zM211 306v23h-41v38h-22v-38h-23v42h-22v-65h108zM211 515v23h-68l68 50v19h-108v-23h66l-66 -47v-22h108zM125 623v30h86v24h-86v30h-22
v-84h22zM127.5 456.5q4.5 7.5 12 12t17.5 4.5t18 -4.5t12.5 -12t4.5 -17.5q0 -9 -4.5 -17t-12.5 -12.5t-18 -4.5t-17.5 4.5t-12 12.5t-4.5 17q0 10 4.5 17.5zM124 -28q0 5 2 8.5t5 5.5t7 2t7.5 -2t5.5 -5.5t2 -8.5v-19h-29v19zM170 138v-28l-39 14z" />
    <glyph glyph-name="oslashacute" unicode="&#x1ff;" 
d="M125 -116h86v-24h-86v-30h-22v84h22v-30zM107.5 409.5q7.5 -13.5 20.5 -21t29 -7.5t29 7.5t20.5 21t7.5 29.5t-7.5 29.5t-20.5 21t-29 7.5t-29 -7.5t-20.5 -21t-7.5 -29.5t7.5 -29.5zM211 -70v23h-37v16l37 21v26l-41 -24q-3 6 -7.5 10.5t-10.5 7t-13 2.5q-10 0 -18.5 -5
t-13 -13.5t-4.5 -19.5v-44h108zM103 56h108v-24h-108v24zM211 70v25l-20 7v43l20 8v26l-108 -44v-23zM211 192v66h-21v-42h-87v-24h108zM211 306v23h-41v38h-22v-38h-23v42h-22v-65h108zM211 515v23h-68l68 50v19h-108v-23h66l-66 -47v-22h108zM125 623v30h86v24h-86v30h-22
v-84h22zM127.5 456.5q4.5 7.5 12 12t17.5 4.5t18 -4.5t12.5 -12t4.5 -17.5q0 -9 -4.5 -17t-12.5 -12.5t-18 -4.5t-17.5 4.5t-12 12.5t-4.5 17q0 10 4.5 17.5zM124 -28q0 5 2 8.5t5 5.5t7 2t7.5 -2t5.5 -5.5t2 -8.5v-19h-29v19zM170 138v-28l-39 14z" />
    <glyph glyph-name="otilde" unicode="&#xf5;" 
d="M125 -116h86v-24h-86v-30h-22v84h22v-30zM107.5 409.5q7.5 -13.5 20.5 -21t29 -7.5t29 7.5t20.5 21t7.5 29.5t-7.5 29.5t-20.5 21t-29 7.5t-29 -7.5t-20.5 -21t-7.5 -29.5t7.5 -29.5zM211 -70v23h-37v16l37 21v26l-41 -24q-3 6 -7.5 10.5t-10.5 7t-13 2.5q-10 0 -18.5 -5
t-13 -13.5t-4.5 -19.5v-44h108zM103 56h108v-24h-108v24zM211 70v25l-20 7v43l20 8v26l-108 -44v-23zM211 192v66h-21v-42h-87v-24h108zM211 306v23h-41v38h-22v-38h-23v42h-22v-65h108zM211 515v23h-68l68 50v19h-108v-23h66l-66 -47v-22h108zM125 623v30h86v24h-86v30h-22
v-84h22zM127.5 456.5q4.5 7.5 12 12t17.5 4.5t18 -4.5t12.5 -12t4.5 -17.5q0 -9 -4.5 -17t-12.5 -12.5t-18 -4.5t-17.5 4.5t-12 12.5t-4.5 17q0 10 4.5 17.5zM124 -28q0 5 2 8.5t5 5.5t7 2t7.5 -2t5.5 -5.5t2 -8.5v-19h-29v19zM170 138v-28l-39 14z" />
    <glyph glyph-name="oe" unicode="&#x153;" 
d="M125 -116h86v-24h-86v-30h-22v84h22v-30zM107.5 409.5q7.5 -13.5 20.5 -21t29 -7.5t29 7.5t20.5 21t7.5 29.5t-7.5 29.5t-20.5 21t-29 7.5t-29 -7.5t-20.5 -21t-7.5 -29.5t7.5 -29.5zM211 -70v23h-37v16l37 21v26l-41 -24q-3 6 -7.5 10.5t-10.5 7t-13 2.5q-10 0 -18.5 -5
t-13 -13.5t-4.5 -19.5v-44h108zM103 56h108v-24h-108v24zM211 70v25l-20 7v43l20 8v26l-108 -44v-23zM211 192v66h-21v-42h-87v-24h108zM211 306v23h-41v38h-22v-38h-23v42h-22v-65h108zM211 515v23h-68l68 50v19h-108v-23h66l-66 -47v-22h108zM125 623v30h86v24h-86v30h-22
v-84h22zM127.5 456.5q4.5 7.5 12 12t17.5 4.5t18 -4.5t12.5 -12t4.5 -17.5q0 -9 -4.5 -17t-12.5 -12.5t-18 -4.5t-17.5 4.5t-12 12.5t-4.5 17q0 10 4.5 17.5zM124 -28q0 5 2 8.5t5 5.5t7 2t7.5 -2t5.5 -5.5t2 -8.5v-19h-29v19zM170 138v-28l-39 14z" />
    <glyph glyph-name="p" unicode="p" horiz-adv-x="573" 
d="M456.5 496q40.5 -28 60.5 -86.5t20 -152.5t-20 -153t-60.5 -87t-104.5 -28q-39 0 -67.5 11.5t-44.5 25.5t-24 26v-229l-158 -23v714h138l20 -53q7 12 23.5 26t45 25.5t67.5 11.5q64 0 104.5 -28zM224 175q8 -30 25.5 -43t47.5 -13t47.5 13t25.5 43t8 82t-8 82t-25.5 43
t-47.5 13t-47.5 -13t-25.5 -43t-8 -82t8 -82z" />
    <glyph glyph-name="thorn" unicode="&#xfe;" 
d="M125 -116h86v-24h-86v-30h-22v84h22v-30zM107.5 409.5q7.5 -13.5 20.5 -21t29 -7.5t29 7.5t20.5 21t7.5 29.5t-7.5 29.5t-20.5 21t-29 7.5t-29 -7.5t-20.5 -21t-7.5 -29.5t7.5 -29.5zM211 -70v23h-37v16l37 21v26l-41 -24q-3 6 -7.5 10.5t-10.5 7t-13 2.5q-10 0 -18.5 -5
t-13 -13.5t-4.5 -19.5v-44h108zM103 56h108v-24h-108v24zM211 70v25l-20 7v43l20 8v26l-108 -44v-23zM211 192v66h-21v-42h-87v-24h108zM211 306v23h-41v38h-22v-38h-23v42h-22v-65h108zM211 515v23h-68l68 50v19h-108v-23h66l-66 -47v-22h108zM125 623v30h86v24h-86v30h-22
v-84h22zM127.5 456.5q4.5 7.5 12 12t17.5 4.5t18 -4.5t12.5 -12t4.5 -17.5q0 -9 -4.5 -17t-12.5 -12.5t-18 -4.5t-17.5 4.5t-12 12.5t-4.5 17q0 10 4.5 17.5zM124 -28q0 5 2 8.5t5 5.5t7 2t7.5 -2t5.5 -5.5t2 -8.5v-19h-29v19zM170 138v-28l-39 14z" />
    <glyph glyph-name="q" unicode="q" horiz-adv-x="573" 
d="M515 514v-691l-158 -23v252q-9 -13 -24.5 -26.5t-44 -25t-67.5 -11.5q-64 0 -104.5 28t-60.5 87t-20 153q0 93 20 152t60.5 87t104.5 28q39 0 67.5 -11.5t44 -25.5t24.5 -26l20 53h138zM203 175q8 -30 25.5 -43t47.5 -13t47.5 13t25.5 43t8 82t-8 82t-25.5 43t-47.5 13
t-47.5 -13t-25.5 -43t-8 -82t8 -82z" />
    <glyph glyph-name="r" unicode="r" horiz-adv-x="417" 
d="M58 514h138l20 -54q15 21 33 35.5t39.5 21.5t47.5 7q13 0 25.5 -2t21.5 -5t14 -6l9 -140q-7 5 -19.5 10t-29.5 8t-36 3q-31 0 -54.5 -12t-37 -36t-13.5 -59v-285h-158v514z" />
    <glyph glyph-name="racute" unicode="&#x155;" 
d="M125 -116h86v-24h-86v-30h-22v84h22v-30zM107.5 409.5q7.5 -13.5 20.5 -21t29 -7.5t29 7.5t20.5 21t7.5 29.5t-7.5 29.5t-20.5 21t-29 7.5t-29 -7.5t-20.5 -21t-7.5 -29.5t7.5 -29.5zM211 -70v23h-37v16l37 21v26l-41 -24q-3 6 -7.5 10.5t-10.5 7t-13 2.5q-10 0 -18.5 -5
t-13 -13.5t-4.5 -19.5v-44h108zM103 56h108v-24h-108v24zM211 70v25l-20 7v43l20 8v26l-108 -44v-23zM211 192v66h-21v-42h-87v-24h108zM211 306v23h-41v38h-22v-38h-23v42h-22v-65h108zM211 515v23h-68l68 50v19h-108v-23h66l-66 -47v-22h108zM125 623v30h86v24h-86v30h-22
v-84h22zM127.5 456.5q4.5 7.5 12 12t17.5 4.5t18 -4.5t12.5 -12t4.5 -17.5q0 -9 -4.5 -17t-12.5 -12.5t-18 -4.5t-17.5 4.5t-12 12.5t-4.5 17q0 10 4.5 17.5zM124 -28q0 5 2 8.5t5 5.5t7 2t7.5 -2t5.5 -5.5t2 -8.5v-19h-29v19zM170 138v-28l-39 14z" />
    <glyph glyph-name="rcaron" unicode="&#x159;" 
d="M125 -116h86v-24h-86v-30h-22v84h22v-30zM107.5 409.5q7.5 -13.5 20.5 -21t29 -7.5t29 7.5t20.5 21t7.5 29.5t-7.5 29.5t-20.5 21t-29 7.5t-29 -7.5t-20.5 -21t-7.5 -29.5t7.5 -29.5zM211 -70v23h-37v16l37 21v26l-41 -24q-3 6 -7.5 10.5t-10.5 7t-13 2.5q-10 0 -18.5 -5
t-13 -13.5t-4.5 -19.5v-44h108zM103 56h108v-24h-108v24zM211 70v25l-20 7v43l20 8v26l-108 -44v-23zM211 192v66h-21v-42h-87v-24h108zM211 306v23h-41v38h-22v-38h-23v42h-22v-65h108zM211 515v23h-68l68 50v19h-108v-23h66l-66 -47v-22h108zM125 623v30h86v24h-86v30h-22
v-84h22zM127.5 456.5q4.5 7.5 12 12t17.5 4.5t18 -4.5t12.5 -12t4.5 -17.5q0 -9 -4.5 -17t-12.5 -12.5t-18 -4.5t-17.5 4.5t-12 12.5t-4.5 17q0 10 4.5 17.5zM124 -28q0 5 2 8.5t5 5.5t7 2t7.5 -2t5.5 -5.5t2 -8.5v-19h-29v19zM170 138v-28l-39 14z" />
    <glyph glyph-name="uni0157" unicode="&#x157;" 
d="M125 -116h86v-24h-86v-30h-22v84h22v-30zM107.5 409.5q7.5 -13.5 20.5 -21t29 -7.5t29 7.5t20.5 21t7.5 29.5t-7.5 29.5t-20.5 21t-29 7.5t-29 -7.5t-20.5 -21t-7.5 -29.5t7.5 -29.5zM211 -70v23h-37v16l37 21v26l-41 -24q-3 6 -7.5 10.5t-10.5 7t-13 2.5q-10 0 -18.5 -5
t-13 -13.5t-4.5 -19.5v-44h108zM103 56h108v-24h-108v24zM211 70v25l-20 7v43l20 8v26l-108 -44v-23zM211 192v66h-21v-42h-87v-24h108zM211 306v23h-41v38h-22v-38h-23v42h-22v-65h108zM211 515v23h-68l68 50v19h-108v-23h66l-66 -47v-22h108zM125 623v30h86v24h-86v30h-22
v-84h22zM127.5 456.5q4.5 7.5 12 12t17.5 4.5t18 -4.5t12.5 -12t4.5 -17.5q0 -9 -4.5 -17t-12.5 -12.5t-18 -4.5t-17.5 4.5t-12 12.5t-4.5 17q0 10 4.5 17.5zM124 -28q0 5 2 8.5t5 5.5t7 2t7.5 -2t5.5 -5.5t2 -8.5v-19h-29v19zM170 138v-28l-39 14z" />
    <glyph glyph-name="s" unicode="s" horiz-adv-x="488" 
d="M164 -5.5q-34 4.5 -62 10.5t-47 13l-22 132q20 -9 51 -17.5t68.5 -14.5t74.5 -6q29 0 47 5t26 13.5t8 20.5t-4 19t-15.5 12t-32.5 9l-79 16q-51 10 -81.5 29.5t-44.5 50t-14 76.5q0 51 24 87t73 55t123 19q34 0 66.5 -4t58.5 -10t43 -12l8 -126q-17 7 -42 14t-56.5 11.5
t-64.5 4.5q-30 0 -47.5 -4.5t-25.5 -12t-8 -18.5t4.5 -18t16 -12.5t33.5 -9.5l76 -14q51 -11 81.5 -30.5t44.5 -51t14 -78.5q0 -54 -23.5 -90t-74 -54.5t-130.5 -18.5q-33 0 -67 4.5z" />
    <glyph glyph-name="sacute" unicode="&#x15b;" 
d="M125 -116h86v-24h-86v-30h-22v84h22v-30zM107.5 409.5q7.5 -13.5 20.5 -21t29 -7.5t29 7.5t20.5 21t7.5 29.5t-7.5 29.5t-20.5 21t-29 7.5t-29 -7.5t-20.5 -21t-7.5 -29.5t7.5 -29.5zM211 -70v23h-37v16l37 21v26l-41 -24q-3 6 -7.5 10.5t-10.5 7t-13 2.5q-10 0 -18.5 -5
t-13 -13.5t-4.5 -19.5v-44h108zM103 56h108v-24h-108v24zM211 70v25l-20 7v43l20 8v26l-108 -44v-23zM211 192v66h-21v-42h-87v-24h108zM211 306v23h-41v38h-22v-38h-23v42h-22v-65h108zM211 515v23h-68l68 50v19h-108v-23h66l-66 -47v-22h108zM125 623v30h86v24h-86v30h-22
v-84h22zM127.5 456.5q4.5 7.5 12 12t17.5 4.5t18 -4.5t12.5 -12t4.5 -17.5q0 -9 -4.5 -17t-12.5 -12.5t-18 -4.5t-17.5 4.5t-12 12.5t-4.5 17q0 10 4.5 17.5zM124 -28q0 5 2 8.5t5 5.5t7 2t7.5 -2t5.5 -5.5t2 -8.5v-19h-29v19zM170 138v-28l-39 14z" />
    <glyph glyph-name="scaron" unicode="&#x161;" 
d="M125 -116h86v-24h-86v-30h-22v84h22v-30zM107.5 409.5q7.5 -13.5 20.5 -21t29 -7.5t29 7.5t20.5 21t7.5 29.5t-7.5 29.5t-20.5 21t-29 7.5t-29 -7.5t-20.5 -21t-7.5 -29.5t7.5 -29.5zM211 -70v23h-37v16l37 21v26l-41 -24q-3 6 -7.5 10.5t-10.5 7t-13 2.5q-10 0 -18.5 -5
t-13 -13.5t-4.5 -19.5v-44h108zM103 56h108v-24h-108v24zM211 70v25l-20 7v43l20 8v26l-108 -44v-23zM211 192v66h-21v-42h-87v-24h108zM211 306v23h-41v38h-22v-38h-23v42h-22v-65h108zM211 515v23h-68l68 50v19h-108v-23h66l-66 -47v-22h108zM125 623v30h86v24h-86v30h-22
v-84h22zM127.5 456.5q4.5 7.5 12 12t17.5 4.5t18 -4.5t12.5 -12t4.5 -17.5q0 -9 -4.5 -17t-12.5 -12.5t-18 -4.5t-17.5 4.5t-12 12.5t-4.5 17q0 10 4.5 17.5zM124 -28q0 5 2 8.5t5 5.5t7 2t7.5 -2t5.5 -5.5t2 -8.5v-19h-29v19zM170 138v-28l-39 14z" />
    <glyph glyph-name="scedilla" unicode="&#x15f;" 
d="M125 -116h86v-24h-86v-30h-22v84h22v-30zM107.5 409.5q7.5 -13.5 20.5 -21t29 -7.5t29 7.5t20.5 21t7.5 29.5t-7.5 29.5t-20.5 21t-29 7.5t-29 -7.5t-20.5 -21t-7.5 -29.5t7.5 -29.5zM211 -70v23h-37v16l37 21v26l-41 -24q-3 6 -7.5 10.5t-10.5 7t-13 2.5q-10 0 -18.5 -5
t-13 -13.5t-4.5 -19.5v-44h108zM103 56h108v-24h-108v24zM211 70v25l-20 7v43l20 8v26l-108 -44v-23zM211 192v66h-21v-42h-87v-24h108zM211 306v23h-41v38h-22v-38h-23v42h-22v-65h108zM211 515v23h-68l68 50v19h-108v-23h66l-66 -47v-22h108zM125 623v30h86v24h-86v30h-22
v-84h22zM127.5 456.5q4.5 7.5 12 12t17.5 4.5t18 -4.5t12.5 -12t4.5 -17.5q0 -9 -4.5 -17t-12.5 -12.5t-18 -4.5t-17.5 4.5t-12 12.5t-4.5 17q0 10 4.5 17.5zM124 -28q0 5 2 8.5t5 5.5t7 2t7.5 -2t5.5 -5.5t2 -8.5v-19h-29v19zM170 138v-28l-39 14z" />
    <glyph glyph-name="scircumflex" unicode="&#x15d;" 
d="M125 -116h86v-24h-86v-30h-22v84h22v-30zM107.5 409.5q7.5 -13.5 20.5 -21t29 -7.5t29 7.5t20.5 21t7.5 29.5t-7.5 29.5t-20.5 21t-29 7.5t-29 -7.5t-20.5 -21t-7.5 -29.5t7.5 -29.5zM211 -70v23h-37v16l37 21v26l-41 -24q-3 6 -7.5 10.5t-10.5 7t-13 2.5q-10 0 -18.5 -5
t-13 -13.5t-4.5 -19.5v-44h108zM103 56h108v-24h-108v24zM211 70v25l-20 7v43l20 8v26l-108 -44v-23zM211 192v66h-21v-42h-87v-24h108zM211 306v23h-41v38h-22v-38h-23v42h-22v-65h108zM211 515v23h-68l68 50v19h-108v-23h66l-66 -47v-22h108zM125 623v30h86v24h-86v30h-22
v-84h22zM127.5 456.5q4.5 7.5 12 12t17.5 4.5t18 -4.5t12.5 -12t4.5 -17.5q0 -9 -4.5 -17t-12.5 -12.5t-18 -4.5t-17.5 4.5t-12 12.5t-4.5 17q0 10 4.5 17.5zM124 -28q0 5 2 8.5t5 5.5t7 2t7.5 -2t5.5 -5.5t2 -8.5v-19h-29v19zM170 138v-28l-39 14z" />
    <glyph glyph-name="uni0219" unicode="&#x219;" 
d="M125 -116h86v-24h-86v-30h-22v84h22v-30zM107.5 409.5q7.5 -13.5 20.5 -21t29 -7.5t29 7.5t20.5 21t7.5 29.5t-7.5 29.5t-20.5 21t-29 7.5t-29 -7.5t-20.5 -21t-7.5 -29.5t7.5 -29.5zM211 -70v23h-37v16l37 21v26l-41 -24q-3 6 -7.5 10.5t-10.5 7t-13 2.5q-10 0 -18.5 -5
t-13 -13.5t-4.5 -19.5v-44h108zM103 56h108v-24h-108v24zM211 70v25l-20 7v43l20 8v26l-108 -44v-23zM211 192v66h-21v-42h-87v-24h108zM211 306v23h-41v38h-22v-38h-23v42h-22v-65h108zM211 515v23h-68l68 50v19h-108v-23h66l-66 -47v-22h108zM125 623v30h86v24h-86v30h-22
v-84h22zM127.5 456.5q4.5 7.5 12 12t17.5 4.5t18 -4.5t12.5 -12t4.5 -17.5q0 -9 -4.5 -17t-12.5 -12.5t-18 -4.5t-17.5 4.5t-12 12.5t-4.5 17q0 10 4.5 17.5zM124 -28q0 5 2 8.5t5 5.5t7 2t7.5 -2t5.5 -5.5t2 -8.5v-19h-29v19zM170 138v-28l-39 14z" />
    <glyph glyph-name="germandbls" unicode="&#xdf;" horiz-adv-x="573" 
d="M306.5 -7.5q-17.5 2.5 -30 5.5t-20.5 7v118q6 -3 15 -6.5t20 -5.5t21 -2q21 0 34 7t19.5 24t6.5 47v70q0 32 -7.5 50.5t-24 27t-44.5 8.5h-40v117h35q25 0 41 7t23 22t7 39q0 23 -7.5 37.5t-23 21.5t-42.5 7t-43 -9.5t-23 -30t-7 -54.5v-500h-158v500q0 72 25.5 120
t77 71.5t130.5 23.5q76 0 127 -20t76.5 -59t25.5 -96q0 -32 -5 -57.5t-18 -46t-35 -33.5q26 -14 41 -36.5t21 -51t6 -65.5v-56q0 -70 -22.5 -115.5t-64 -67t-100.5 -21.5q-19 0 -36.5 2.5z" />
    <glyph glyph-name="longs" unicode="&#x17f;" 
d="M125 -116h86v-24h-86v-30h-22v84h22v-30zM107.5 409.5q7.5 -13.5 20.5 -21t29 -7.5t29 7.5t20.5 21t7.5 29.5t-7.5 29.5t-20.5 21t-29 7.5t-29 -7.5t-20.5 -21t-7.5 -29.5t7.5 -29.5zM211 -70v23h-37v16l37 21v26l-41 -24q-3 6 -7.5 10.5t-10.5 7t-13 2.5q-10 0 -18.5 -5
t-13 -13.5t-4.5 -19.5v-44h108zM103 56h108v-24h-108v24zM211 70v25l-20 7v43l20 8v26l-108 -44v-23zM211 192v66h-21v-42h-87v-24h108zM211 306v23h-41v38h-22v-38h-23v42h-22v-65h108zM211 515v23h-68l68 50v19h-108v-23h66l-66 -47v-22h108zM125 623v30h86v24h-86v30h-22
v-84h22zM127.5 456.5q4.5 7.5 12 12t17.5 4.5t18 -4.5t12.5 -12t4.5 -17.5q0 -9 -4.5 -17t-12.5 -12.5t-18 -4.5t-17.5 4.5t-12 12.5t-4.5 17q0 10 4.5 17.5zM124 -28q0 5 2 8.5t5 5.5t7 2t7.5 -2t5.5 -5.5t2 -8.5v-19h-29v19zM170 138v-28l-39 14z" />
    <glyph glyph-name="t" unicode="t" horiz-adv-x="426" 
d="M357 123.5q17 2.5 31 6.5t24 7l-23 -127q-9 -5 -25 -9.5t-37 -7.5t-44 -3q-60 0 -102.5 23t-65.5 70.5t-23 121.5v190h-78v119h78v103l158 33v-136h150v-119h-150v-187q0 -32 8.5 -51.5t25 -27.5t41.5 -8q15 0 32 2.5z" />
    <glyph glyph-name="tbar" unicode="&#x167;" 
d="M125 -116h86v-24h-86v-30h-22v84h22v-30zM107.5 409.5q7.5 -13.5 20.5 -21t29 -7.5t29 7.5t20.5 21t7.5 29.5t-7.5 29.5t-20.5 21t-29 7.5t-29 -7.5t-20.5 -21t-7.5 -29.5t7.5 -29.5zM211 -70v23h-37v16l37 21v26l-41 -24q-3 6 -7.5 10.5t-10.5 7t-13 2.5q-10 0 -18.5 -5
t-13 -13.5t-4.5 -19.5v-44h108zM103 56h108v-24h-108v24zM211 70v25l-20 7v43l20 8v26l-108 -44v-23zM211 192v66h-21v-42h-87v-24h108zM211 306v23h-41v38h-22v-38h-23v42h-22v-65h108zM211 515v23h-68l68 50v19h-108v-23h66l-66 -47v-22h108zM125 623v30h86v24h-86v30h-22
v-84h22zM127.5 456.5q4.5 7.5 12 12t17.5 4.5t18 -4.5t12.5 -12t4.5 -17.5q0 -9 -4.5 -17t-12.5 -12.5t-18 -4.5t-17.5 4.5t-12 12.5t-4.5 17q0 10 4.5 17.5zM124 -28q0 5 2 8.5t5 5.5t7 2t7.5 -2t5.5 -5.5t2 -8.5v-19h-29v19zM170 138v-28l-39 14z" />
    <glyph glyph-name="tcaron" unicode="&#x165;" 
d="M125 -116h86v-24h-86v-30h-22v84h22v-30zM107.5 409.5q7.5 -13.5 20.5 -21t29 -7.5t29 7.5t20.5 21t7.5 29.5t-7.5 29.5t-20.5 21t-29 7.5t-29 -7.5t-20.5 -21t-7.5 -29.5t7.5 -29.5zM211 -70v23h-37v16l37 21v26l-41 -24q-3 6 -7.5 10.5t-10.5 7t-13 2.5q-10 0 -18.5 -5
t-13 -13.5t-4.5 -19.5v-44h108zM103 56h108v-24h-108v24zM211 70v25l-20 7v43l20 8v26l-108 -44v-23zM211 192v66h-21v-42h-87v-24h108zM211 306v23h-41v38h-22v-38h-23v42h-22v-65h108zM211 515v23h-68l68 50v19h-108v-23h66l-66 -47v-22h108zM125 623v30h86v24h-86v30h-22
v-84h22zM127.5 456.5q4.5 7.5 12 12t17.5 4.5t18 -4.5t12.5 -12t4.5 -17.5q0 -9 -4.5 -17t-12.5 -12.5t-18 -4.5t-17.5 4.5t-12 12.5t-4.5 17q0 10 4.5 17.5zM124 -28q0 5 2 8.5t5 5.5t7 2t7.5 -2t5.5 -5.5t2 -8.5v-19h-29v19zM170 138v-28l-39 14z" />
    <glyph glyph-name="u" unicode="u" horiz-adv-x="581" 
d="M130 12.5q-38 23.5 -57 65.5t-19 97v339h158v-299q0 -32 7 -53t23.5 -31.5t43.5 -10.5q29 0 46 10.5t25 31.5t8 53v299h158v-514h-138l-20 54q-17 -21 -37 -35t-46 -22t-59 -8q-55 0 -93 23.5z" />
    <glyph glyph-name="uacute" unicode="&#xfa;" 
d="M125 -116h86v-24h-86v-30h-22v84h22v-30zM107.5 409.5q7.5 -13.5 20.5 -21t29 -7.5t29 7.5t20.5 21t7.5 29.5t-7.5 29.5t-20.5 21t-29 7.5t-29 -7.5t-20.5 -21t-7.5 -29.5t7.5 -29.5zM211 -70v23h-37v16l37 21v26l-41 -24q-3 6 -7.5 10.5t-10.5 7t-13 2.5q-10 0 -18.5 -5
t-13 -13.5t-4.5 -19.5v-44h108zM103 56h108v-24h-108v24zM211 70v25l-20 7v43l20 8v26l-108 -44v-23zM211 192v66h-21v-42h-87v-24h108zM211 306v23h-41v38h-22v-38h-23v42h-22v-65h108zM211 515v23h-68l68 50v19h-108v-23h66l-66 -47v-22h108zM125 623v30h86v24h-86v30h-22
v-84h22zM127.5 456.5q4.5 7.5 12 12t17.5 4.5t18 -4.5t12.5 -12t4.5 -17.5q0 -9 -4.5 -17t-12.5 -12.5t-18 -4.5t-17.5 4.5t-12 12.5t-4.5 17q0 10 4.5 17.5zM124 -28q0 5 2 8.5t5 5.5t7 2t7.5 -2t5.5 -5.5t2 -8.5v-19h-29v19zM170 138v-28l-39 14z" />
    <glyph glyph-name="ucircumflex" unicode="&#xfb;" 
d="M125 -116h86v-24h-86v-30h-22v84h22v-30zM107.5 409.5q7.5 -13.5 20.5 -21t29 -7.5t29 7.5t20.5 21t7.5 29.5t-7.5 29.5t-20.5 21t-29 7.5t-29 -7.5t-20.5 -21t-7.5 -29.5t7.5 -29.5zM211 -70v23h-37v16l37 21v26l-41 -24q-3 6 -7.5 10.5t-10.5 7t-13 2.5q-10 0 -18.5 -5
t-13 -13.5t-4.5 -19.5v-44h108zM103 56h108v-24h-108v24zM211 70v25l-20 7v43l20 8v26l-108 -44v-23zM211 192v66h-21v-42h-87v-24h108zM211 306v23h-41v38h-22v-38h-23v42h-22v-65h108zM211 515v23h-68l68 50v19h-108v-23h66l-66 -47v-22h108zM125 623v30h86v24h-86v30h-22
v-84h22zM127.5 456.5q4.5 7.5 12 12t17.5 4.5t18 -4.5t12.5 -12t4.5 -17.5q0 -9 -4.5 -17t-12.5 -12.5t-18 -4.5t-17.5 4.5t-12 12.5t-4.5 17q0 10 4.5 17.5zM124 -28q0 5 2 8.5t5 5.5t7 2t7.5 -2t5.5 -5.5t2 -8.5v-19h-29v19zM170 138v-28l-39 14z" />
    <glyph glyph-name="udieresis" unicode="&#xfc;" 
d="M125 -116h86v-24h-86v-30h-22v84h22v-30zM107.5 409.5q7.5 -13.5 20.5 -21t29 -7.5t29 7.5t20.5 21t7.5 29.5t-7.5 29.5t-20.5 21t-29 7.5t-29 -7.5t-20.5 -21t-7.5 -29.5t7.5 -29.5zM211 -70v23h-37v16l37 21v26l-41 -24q-3 6 -7.5 10.5t-10.5 7t-13 2.5q-10 0 -18.5 -5
t-13 -13.5t-4.5 -19.5v-44h108zM103 56h108v-24h-108v24zM211 70v25l-20 7v43l20 8v26l-108 -44v-23zM211 192v66h-21v-42h-87v-24h108zM211 306v23h-41v38h-22v-38h-23v42h-22v-65h108zM211 515v23h-68l68 50v19h-108v-23h66l-66 -47v-22h108zM125 623v30h86v24h-86v30h-22
v-84h22zM127.5 456.5q4.5 7.5 12 12t17.5 4.5t18 -4.5t12.5 -12t4.5 -17.5q0 -9 -4.5 -17t-12.5 -12.5t-18 -4.5t-17.5 4.5t-12 12.5t-4.5 17q0 10 4.5 17.5zM124 -28q0 5 2 8.5t5 5.5t7 2t7.5 -2t5.5 -5.5t2 -8.5v-19h-29v19zM170 138v-28l-39 14z" />
    <glyph glyph-name="ugrave" unicode="&#xf9;" 
d="M125 -116h86v-24h-86v-30h-22v84h22v-30zM107.5 409.5q7.5 -13.5 20.5 -21t29 -7.5t29 7.5t20.5 21t7.5 29.5t-7.5 29.5t-20.5 21t-29 7.5t-29 -7.5t-20.5 -21t-7.5 -29.5t7.5 -29.5zM211 -70v23h-37v16l37 21v26l-41 -24q-3 6 -7.5 10.5t-10.5 7t-13 2.5q-10 0 -18.5 -5
t-13 -13.5t-4.5 -19.5v-44h108zM103 56h108v-24h-108v24zM211 70v25l-20 7v43l20 8v26l-108 -44v-23zM211 192v66h-21v-42h-87v-24h108zM211 306v23h-41v38h-22v-38h-23v42h-22v-65h108zM211 515v23h-68l68 50v19h-108v-23h66l-66 -47v-22h108zM125 623v30h86v24h-86v30h-22
v-84h22zM127.5 456.5q4.5 7.5 12 12t17.5 4.5t18 -4.5t12.5 -12t4.5 -17.5q0 -9 -4.5 -17t-12.5 -12.5t-18 -4.5t-17.5 4.5t-12 12.5t-4.5 17q0 10 4.5 17.5zM124 -28q0 5 2 8.5t5 5.5t7 2t7.5 -2t5.5 -5.5t2 -8.5v-19h-29v19zM170 138v-28l-39 14z" />
    <glyph glyph-name="uhungarumlaut" unicode="&#x171;" 
d="M125 -116h86v-24h-86v-30h-22v84h22v-30zM107.5 409.5q7.5 -13.5 20.5 -21t29 -7.5t29 7.5t20.5 21t7.5 29.5t-7.5 29.5t-20.5 21t-29 7.5t-29 -7.5t-20.5 -21t-7.5 -29.5t7.5 -29.5zM211 -70v23h-37v16l37 21v26l-41 -24q-3 6 -7.5 10.5t-10.5 7t-13 2.5q-10 0 -18.5 -5
t-13 -13.5t-4.5 -19.5v-44h108zM103 56h108v-24h-108v24zM211 70v25l-20 7v43l20 8v26l-108 -44v-23zM211 192v66h-21v-42h-87v-24h108zM211 306v23h-41v38h-22v-38h-23v42h-22v-65h108zM211 515v23h-68l68 50v19h-108v-23h66l-66 -47v-22h108zM125 623v30h86v24h-86v30h-22
v-84h22zM127.5 456.5q4.5 7.5 12 12t17.5 4.5t18 -4.5t12.5 -12t4.5 -17.5q0 -9 -4.5 -17t-12.5 -12.5t-18 -4.5t-17.5 4.5t-12 12.5t-4.5 17q0 10 4.5 17.5zM124 -28q0 5 2 8.5t5 5.5t7 2t7.5 -2t5.5 -5.5t2 -8.5v-19h-29v19zM170 138v-28l-39 14z" />
    <glyph glyph-name="umacron" unicode="&#x16b;" 
d="M125 -116h86v-24h-86v-30h-22v84h22v-30zM107.5 409.5q7.5 -13.5 20.5 -21t29 -7.5t29 7.5t20.5 21t7.5 29.5t-7.5 29.5t-20.5 21t-29 7.5t-29 -7.5t-20.5 -21t-7.5 -29.5t7.5 -29.5zM211 -70v23h-37v16l37 21v26l-41 -24q-3 6 -7.5 10.5t-10.5 7t-13 2.5q-10 0 -18.5 -5
t-13 -13.5t-4.5 -19.5v-44h108zM103 56h108v-24h-108v24zM211 70v25l-20 7v43l20 8v26l-108 -44v-23zM211 192v66h-21v-42h-87v-24h108zM211 306v23h-41v38h-22v-38h-23v42h-22v-65h108zM211 515v23h-68l68 50v19h-108v-23h66l-66 -47v-22h108zM125 623v30h86v24h-86v30h-22
v-84h22zM127.5 456.5q4.5 7.5 12 12t17.5 4.5t18 -4.5t12.5 -12t4.5 -17.5q0 -9 -4.5 -17t-12.5 -12.5t-18 -4.5t-17.5 4.5t-12 12.5t-4.5 17q0 10 4.5 17.5zM124 -28q0 5 2 8.5t5 5.5t7 2t7.5 -2t5.5 -5.5t2 -8.5v-19h-29v19zM170 138v-28l-39 14z" />
    <glyph glyph-name="uni0163" unicode="&#x163;" 
d="M125 -116h86v-24h-86v-30h-22v84h22v-30zM107.5 409.5q7.5 -13.5 20.5 -21t29 -7.5t29 7.5t20.5 21t7.5 29.5t-7.5 29.5t-20.5 21t-29 7.5t-29 -7.5t-20.5 -21t-7.5 -29.5t7.5 -29.5zM211 -70v23h-37v16l37 21v26l-41 -24q-3 6 -7.5 10.5t-10.5 7t-13 2.5q-10 0 -18.5 -5
t-13 -13.5t-4.5 -19.5v-44h108zM103 56h108v-24h-108v24zM211 70v25l-20 7v43l20 8v26l-108 -44v-23zM211 192v66h-21v-42h-87v-24h108zM211 306v23h-41v38h-22v-38h-23v42h-22v-65h108zM211 515v23h-68l68 50v19h-108v-23h66l-66 -47v-22h108zM125 623v30h86v24h-86v30h-22
v-84h22zM127.5 456.5q4.5 7.5 12 12t17.5 4.5t18 -4.5t12.5 -12t4.5 -17.5q0 -9 -4.5 -17t-12.5 -12.5t-18 -4.5t-17.5 4.5t-12 12.5t-4.5 17q0 10 4.5 17.5zM124 -28q0 5 2 8.5t5 5.5t7 2t7.5 -2t5.5 -5.5t2 -8.5v-19h-29v19zM170 138v-28l-39 14z" />
    <glyph glyph-name="uni021B" unicode="&#x21b;" 
d="M125 -116h86v-24h-86v-30h-22v84h22v-30zM107.5 409.5q7.5 -13.5 20.5 -21t29 -7.5t29 7.5t20.5 21t7.5 29.5t-7.5 29.5t-20.5 21t-29 7.5t-29 -7.5t-20.5 -21t-7.5 -29.5t7.5 -29.5zM211 -70v23h-37v16l37 21v26l-41 -24q-3 6 -7.5 10.5t-10.5 7t-13 2.5q-10 0 -18.5 -5
t-13 -13.5t-4.5 -19.5v-44h108zM103 56h108v-24h-108v24zM211 70v25l-20 7v43l20 8v26l-108 -44v-23zM211 192v66h-21v-42h-87v-24h108zM211 306v23h-41v38h-22v-38h-23v42h-22v-65h108zM211 515v23h-68l68 50v19h-108v-23h66l-66 -47v-22h108zM125 623v30h86v24h-86v30h-22
v-84h22zM127.5 456.5q4.5 7.5 12 12t17.5 4.5t18 -4.5t12.5 -12t4.5 -17.5q0 -9 -4.5 -17t-12.5 -12.5t-18 -4.5t-17.5 4.5t-12 12.5t-4.5 17q0 10 4.5 17.5zM124 -28q0 5 2 8.5t5 5.5t7 2t7.5 -2t5.5 -5.5t2 -8.5v-19h-29v19zM170 138v-28l-39 14z" />
    <glyph glyph-name="uogonek" unicode="&#x173;" 
d="M125 -116h86v-24h-86v-30h-22v84h22v-30zM107.5 409.5q7.5 -13.5 20.5 -21t29 -7.5t29 7.5t20.5 21t7.5 29.5t-7.5 29.5t-20.5 21t-29 7.5t-29 -7.5t-20.5 -21t-7.5 -29.5t7.5 -29.5zM211 -70v23h-37v16l37 21v26l-41 -24q-3 6 -7.5 10.5t-10.5 7t-13 2.5q-10 0 -18.5 -5
t-13 -13.5t-4.5 -19.5v-44h108zM103 56h108v-24h-108v24zM211 70v25l-20 7v43l20 8v26l-108 -44v-23zM211 192v66h-21v-42h-87v-24h108zM211 306v23h-41v38h-22v-38h-23v42h-22v-65h108zM211 515v23h-68l68 50v19h-108v-23h66l-66 -47v-22h108zM125 623v30h86v24h-86v30h-22
v-84h22zM127.5 456.5q4.5 7.5 12 12t17.5 4.5t18 -4.5t12.5 -12t4.5 -17.5q0 -9 -4.5 -17t-12.5 -12.5t-18 -4.5t-17.5 4.5t-12 12.5t-4.5 17q0 10 4.5 17.5zM124 -28q0 5 2 8.5t5 5.5t7 2t7.5 -2t5.5 -5.5t2 -8.5v-19h-29v19zM170 138v-28l-39 14z" />
    <glyph glyph-name="uring" unicode="&#x16f;" 
d="M125 -116h86v-24h-86v-30h-22v84h22v-30zM107.5 409.5q7.5 -13.5 20.5 -21t29 -7.5t29 7.5t20.5 21t7.5 29.5t-7.5 29.5t-20.5 21t-29 7.5t-29 -7.5t-20.5 -21t-7.5 -29.5t7.5 -29.5zM211 -70v23h-37v16l37 21v26l-41 -24q-3 6 -7.5 10.5t-10.5 7t-13 2.5q-10 0 -18.5 -5
t-13 -13.5t-4.5 -19.5v-44h108zM103 56h108v-24h-108v24zM211 70v25l-20 7v43l20 8v26l-108 -44v-23zM211 192v66h-21v-42h-87v-24h108zM211 306v23h-41v38h-22v-38h-23v42h-22v-65h108zM211 515v23h-68l68 50v19h-108v-23h66l-66 -47v-22h108zM125 623v30h86v24h-86v30h-22
v-84h22zM127.5 456.5q4.5 7.5 12 12t17.5 4.5t18 -4.5t12.5 -12t4.5 -17.5q0 -9 -4.5 -17t-12.5 -12.5t-18 -4.5t-17.5 4.5t-12 12.5t-4.5 17q0 10 4.5 17.5zM124 -28q0 5 2 8.5t5 5.5t7 2t7.5 -2t5.5 -5.5t2 -8.5v-19h-29v19zM170 138v-28l-39 14z" />
    <glyph glyph-name="utilde" unicode="&#x169;" 
d="M125 -116h86v-24h-86v-30h-22v84h22v-30zM107.5 409.5q7.5 -13.5 20.5 -21t29 -7.5t29 7.5t20.5 21t7.5 29.5t-7.5 29.5t-20.5 21t-29 7.5t-29 -7.5t-20.5 -21t-7.5 -29.5t7.5 -29.5zM211 -70v23h-37v16l37 21v26l-41 -24q-3 6 -7.5 10.5t-10.5 7t-13 2.5q-10 0 -18.5 -5
t-13 -13.5t-4.5 -19.5v-44h108zM103 56h108v-24h-108v24zM211 70v25l-20 7v43l20 8v26l-108 -44v-23zM211 192v66h-21v-42h-87v-24h108zM211 306v23h-41v38h-22v-38h-23v42h-22v-65h108zM211 515v23h-68l68 50v19h-108v-23h66l-66 -47v-22h108zM125 623v30h86v24h-86v30h-22
v-84h22zM127.5 456.5q4.5 7.5 12 12t17.5 4.5t18 -4.5t12.5 -12t4.5 -17.5q0 -9 -4.5 -17t-12.5 -12.5t-18 -4.5t-17.5 4.5t-12 12.5t-4.5 17q0 10 4.5 17.5zM124 -28q0 5 2 8.5t5 5.5t7 2t7.5 -2t5.5 -5.5t2 -8.5v-19h-29v19zM170 138v-28l-39 14z" />
    <glyph glyph-name="v" unicode="v" horiz-adv-x="529" 
d="M526 514l-184 -514h-155l-184 514h167l96 -333l96 333h164z" />
    <glyph glyph-name="w" unicode="w" horiz-adv-x="752" 
d="M733 514l-112 -514h-153l-93 234l-91 -234h-154l-111 514h153l62 -324l129 323h29l130 -320l62 321h149z" />
    <glyph glyph-name="wacute" unicode="&#x1e83;" 
d="M125 -116h86v-24h-86v-30h-22v84h22v-30zM107.5 409.5q7.5 -13.5 20.5 -21t29 -7.5t29 7.5t20.5 21t7.5 29.5t-7.5 29.5t-20.5 21t-29 7.5t-29 -7.5t-20.5 -21t-7.5 -29.5t7.5 -29.5zM211 -70v23h-37v16l37 21v26l-41 -24q-3 6 -7.5 10.5t-10.5 7t-13 2.5q-10 0 -18.5 -5
t-13 -13.5t-4.5 -19.5v-44h108zM103 56h108v-24h-108v24zM211 70v25l-20 7v43l20 8v26l-108 -44v-23zM211 192v66h-21v-42h-87v-24h108zM211 306v23h-41v38h-22v-38h-23v42h-22v-65h108zM211 515v23h-68l68 50v19h-108v-23h66l-66 -47v-22h108zM125 623v30h86v24h-86v30h-22
v-84h22zM127.5 456.5q4.5 7.5 12 12t17.5 4.5t18 -4.5t12.5 -12t4.5 -17.5q0 -9 -4.5 -17t-12.5 -12.5t-18 -4.5t-17.5 4.5t-12 12.5t-4.5 17q0 10 4.5 17.5zM124 -28q0 5 2 8.5t5 5.5t7 2t7.5 -2t5.5 -5.5t2 -8.5v-19h-29v19zM170 138v-28l-39 14z" />
    <glyph glyph-name="wcircumflex" unicode="&#x175;" 
d="M125 -116h86v-24h-86v-30h-22v84h22v-30zM107.5 409.5q7.5 -13.5 20.5 -21t29 -7.5t29 7.5t20.5 21t7.5 29.5t-7.5 29.5t-20.5 21t-29 7.5t-29 -7.5t-20.5 -21t-7.5 -29.5t7.5 -29.5zM211 -70v23h-37v16l37 21v26l-41 -24q-3 6 -7.5 10.5t-10.5 7t-13 2.5q-10 0 -18.5 -5
t-13 -13.5t-4.5 -19.5v-44h108zM103 56h108v-24h-108v24zM211 70v25l-20 7v43l20 8v26l-108 -44v-23zM211 192v66h-21v-42h-87v-24h108zM211 306v23h-41v38h-22v-38h-23v42h-22v-65h108zM211 515v23h-68l68 50v19h-108v-23h66l-66 -47v-22h108zM125 623v30h86v24h-86v30h-22
v-84h22zM127.5 456.5q4.5 7.5 12 12t17.5 4.5t18 -4.5t12.5 -12t4.5 -17.5q0 -9 -4.5 -17t-12.5 -12.5t-18 -4.5t-17.5 4.5t-12 12.5t-4.5 17q0 10 4.5 17.5zM124 -28q0 5 2 8.5t5 5.5t7 2t7.5 -2t5.5 -5.5t2 -8.5v-19h-29v19zM170 138v-28l-39 14z" />
    <glyph glyph-name="wdieresis" unicode="&#x1e85;" 
d="M125 -116h86v-24h-86v-30h-22v84h22v-30zM107.5 409.5q7.5 -13.5 20.5 -21t29 -7.5t29 7.5t20.5 21t7.5 29.5t-7.5 29.5t-20.5 21t-29 7.5t-29 -7.5t-20.5 -21t-7.5 -29.5t7.5 -29.5zM211 -70v23h-37v16l37 21v26l-41 -24q-3 6 -7.5 10.5t-10.5 7t-13 2.5q-10 0 -18.5 -5
t-13 -13.5t-4.5 -19.5v-44h108zM103 56h108v-24h-108v24zM211 70v25l-20 7v43l20 8v26l-108 -44v-23zM211 192v66h-21v-42h-87v-24h108zM211 306v23h-41v38h-22v-38h-23v42h-22v-65h108zM211 515v23h-68l68 50v19h-108v-23h66l-66 -47v-22h108zM125 623v30h86v24h-86v30h-22
v-84h22zM127.5 456.5q4.5 7.5 12 12t17.5 4.5t18 -4.5t12.5 -12t4.5 -17.5q0 -9 -4.5 -17t-12.5 -12.5t-18 -4.5t-17.5 4.5t-12 12.5t-4.5 17q0 10 4.5 17.5zM124 -28q0 5 2 8.5t5 5.5t7 2t7.5 -2t5.5 -5.5t2 -8.5v-19h-29v19zM170 138v-28l-39 14z" />
    <glyph glyph-name="wgrave" unicode="&#x1e81;" 
d="M125 -116h86v-24h-86v-30h-22v84h22v-30zM107.5 409.5q7.5 -13.5 20.5 -21t29 -7.5t29 7.5t20.5 21t7.5 29.5t-7.5 29.5t-20.5 21t-29 7.5t-29 -7.5t-20.5 -21t-7.5 -29.5t7.5 -29.5zM211 -70v23h-37v16l37 21v26l-41 -24q-3 6 -7.5 10.5t-10.5 7t-13 2.5q-10 0 -18.5 -5
t-13 -13.5t-4.5 -19.5v-44h108zM103 56h108v-24h-108v24zM211 70v25l-20 7v43l20 8v26l-108 -44v-23zM211 192v66h-21v-42h-87v-24h108zM211 306v23h-41v38h-22v-38h-23v42h-22v-65h108zM211 515v23h-68l68 50v19h-108v-23h66l-66 -47v-22h108zM125 623v30h86v24h-86v30h-22
v-84h22zM127.5 456.5q4.5 7.5 12 12t17.5 4.5t18 -4.5t12.5 -12t4.5 -17.5q0 -9 -4.5 -17t-12.5 -12.5t-18 -4.5t-17.5 4.5t-12 12.5t-4.5 17q0 10 4.5 17.5zM124 -28q0 5 2 8.5t5 5.5t7 2t7.5 -2t5.5 -5.5t2 -8.5v-19h-29v19zM170 138v-28l-39 14z" />
    <glyph glyph-name="x" unicode="x" horiz-adv-x="531" 
d="M354 0l-91 163l-91 -163h-171l169 266l-156 248h175l79 -144l80 144h169l-155 -246l168 -268h-176z" />
    <glyph glyph-name="y" unicode="y" horiz-adv-x="527" 
d="M115.5 -197.5q-17.5 2.5 -30 6.5t-18.5 8l-24 128q8 -3 19 -6.5t24 -5.5t26 -2q18 0 31.5 4.5t24.5 15t18 28.5l9 23l-194 512h168l104 -326l87 326h163l-192 -565q-18 -53 -44 -86t-59 -48t-75 -15q-20 0 -37.5 2.5z" />
    <glyph glyph-name="yacute" unicode="&#xfd;" 
d="M125 -116h86v-24h-86v-30h-22v84h22v-30zM107.5 409.5q7.5 -13.5 20.5 -21t29 -7.5t29 7.5t20.5 21t7.5 29.5t-7.5 29.5t-20.5 21t-29 7.5t-29 -7.5t-20.5 -21t-7.5 -29.5t7.5 -29.5zM211 -70v23h-37v16l37 21v26l-41 -24q-3 6 -7.5 10.5t-10.5 7t-13 2.5q-10 0 -18.5 -5
t-13 -13.5t-4.5 -19.5v-44h108zM103 56h108v-24h-108v24zM211 70v25l-20 7v43l20 8v26l-108 -44v-23zM211 192v66h-21v-42h-87v-24h108zM211 306v23h-41v38h-22v-38h-23v42h-22v-65h108zM211 515v23h-68l68 50v19h-108v-23h66l-66 -47v-22h108zM125 623v30h86v24h-86v30h-22
v-84h22zM127.5 456.5q4.5 7.5 12 12t17.5 4.5t18 -4.5t12.5 -12t4.5 -17.5q0 -9 -4.5 -17t-12.5 -12.5t-18 -4.5t-17.5 4.5t-12 12.5t-4.5 17q0 10 4.5 17.5zM124 -28q0 5 2 8.5t5 5.5t7 2t7.5 -2t5.5 -5.5t2 -8.5v-19h-29v19zM170 138v-28l-39 14z" />
    <glyph glyph-name="ycircumflex" unicode="&#x177;" 
d="M125 -116h86v-24h-86v-30h-22v84h22v-30zM107.5 409.5q7.5 -13.5 20.5 -21t29 -7.5t29 7.5t20.5 21t7.5 29.5t-7.5 29.5t-20.5 21t-29 7.5t-29 -7.5t-20.5 -21t-7.5 -29.5t7.5 -29.5zM211 -70v23h-37v16l37 21v26l-41 -24q-3 6 -7.5 10.5t-10.5 7t-13 2.5q-10 0 -18.5 -5
t-13 -13.5t-4.5 -19.5v-44h108zM103 56h108v-24h-108v24zM211 70v25l-20 7v43l20 8v26l-108 -44v-23zM211 192v66h-21v-42h-87v-24h108zM211 306v23h-41v38h-22v-38h-23v42h-22v-65h108zM211 515v23h-68l68 50v19h-108v-23h66l-66 -47v-22h108zM125 623v30h86v24h-86v30h-22
v-84h22zM127.5 456.5q4.5 7.5 12 12t17.5 4.5t18 -4.5t12.5 -12t4.5 -17.5q0 -9 -4.5 -17t-12.5 -12.5t-18 -4.5t-17.5 4.5t-12 12.5t-4.5 17q0 10 4.5 17.5zM124 -28q0 5 2 8.5t5 5.5t7 2t7.5 -2t5.5 -5.5t2 -8.5v-19h-29v19zM170 138v-28l-39 14z" />
    <glyph glyph-name="ydieresis" unicode="&#xff;" 
d="M125 -116h86v-24h-86v-30h-22v84h22v-30zM107.5 409.5q7.5 -13.5 20.5 -21t29 -7.5t29 7.5t20.5 21t7.5 29.5t-7.5 29.5t-20.5 21t-29 7.5t-29 -7.5t-20.5 -21t-7.5 -29.5t7.5 -29.5zM211 -70v23h-37v16l37 21v26l-41 -24q-3 6 -7.5 10.5t-10.5 7t-13 2.5q-10 0 -18.5 -5
t-13 -13.5t-4.5 -19.5v-44h108zM103 56h108v-24h-108v24zM211 70v25l-20 7v43l20 8v26l-108 -44v-23zM211 192v66h-21v-42h-87v-24h108zM211 306v23h-41v38h-22v-38h-23v42h-22v-65h108zM211 515v23h-68l68 50v19h-108v-23h66l-66 -47v-22h108zM125 623v30h86v24h-86v30h-22
v-84h22zM127.5 456.5q4.5 7.5 12 12t17.5 4.5t18 -4.5t12.5 -12t4.5 -17.5q0 -9 -4.5 -17t-12.5 -12.5t-18 -4.5t-17.5 4.5t-12 12.5t-4.5 17q0 10 4.5 17.5zM124 -28q0 5 2 8.5t5 5.5t7 2t7.5 -2t5.5 -5.5t2 -8.5v-19h-29v19zM170 138v-28l-39 14z" />
    <glyph glyph-name="ygrave" unicode="&#x1ef3;" 
d="M125 -116h86v-24h-86v-30h-22v84h22v-30zM107.5 409.5q7.5 -13.5 20.5 -21t29 -7.5t29 7.5t20.5 21t7.5 29.5t-7.5 29.5t-20.5 21t-29 7.5t-29 -7.5t-20.5 -21t-7.5 -29.5t7.5 -29.5zM211 -70v23h-37v16l37 21v26l-41 -24q-3 6 -7.5 10.5t-10.5 7t-13 2.5q-10 0 -18.5 -5
t-13 -13.5t-4.5 -19.5v-44h108zM103 56h108v-24h-108v24zM211 70v25l-20 7v43l20 8v26l-108 -44v-23zM211 192v66h-21v-42h-87v-24h108zM211 306v23h-41v38h-22v-38h-23v42h-22v-65h108zM211 515v23h-68l68 50v19h-108v-23h66l-66 -47v-22h108zM125 623v30h86v24h-86v30h-22
v-84h22zM127.5 456.5q4.5 7.5 12 12t17.5 4.5t18 -4.5t12.5 -12t4.5 -17.5q0 -9 -4.5 -17t-12.5 -12.5t-18 -4.5t-17.5 4.5t-12 12.5t-4.5 17q0 10 4.5 17.5zM124 -28q0 5 2 8.5t5 5.5t7 2t7.5 -2t5.5 -5.5t2 -8.5v-19h-29v19zM170 138v-28l-39 14z" />
    <glyph glyph-name="z" unicode="z" horiz-adv-x="486" 
d="M459 126l-22 -126h-403v112l220 275h-211v127h401v-112l-221 -276h236z" />
    <glyph glyph-name="zacute" unicode="&#x17a;" 
d="M125 -116h86v-24h-86v-30h-22v84h22v-30zM107.5 409.5q7.5 -13.5 20.5 -21t29 -7.5t29 7.5t20.5 21t7.5 29.5t-7.5 29.5t-20.5 21t-29 7.5t-29 -7.5t-20.5 -21t-7.5 -29.5t7.5 -29.5zM211 -70v23h-37v16l37 21v26l-41 -24q-3 6 -7.5 10.5t-10.5 7t-13 2.5q-10 0 -18.5 -5
t-13 -13.5t-4.5 -19.5v-44h108zM103 56h108v-24h-108v24zM211 70v25l-20 7v43l20 8v26l-108 -44v-23zM211 192v66h-21v-42h-87v-24h108zM211 306v23h-41v38h-22v-38h-23v42h-22v-65h108zM211 515v23h-68l68 50v19h-108v-23h66l-66 -47v-22h108zM125 623v30h86v24h-86v30h-22
v-84h22zM127.5 456.5q4.5 7.5 12 12t17.5 4.5t18 -4.5t12.5 -12t4.5 -17.5q0 -9 -4.5 -17t-12.5 -12.5t-18 -4.5t-17.5 4.5t-12 12.5t-4.5 17q0 10 4.5 17.5zM124 -28q0 5 2 8.5t5 5.5t7 2t7.5 -2t5.5 -5.5t2 -8.5v-19h-29v19zM170 138v-28l-39 14z" />
    <glyph glyph-name="zcaron" unicode="&#x17e;" 
d="M125 -116h86v-24h-86v-30h-22v84h22v-30zM107.5 409.5q7.5 -13.5 20.5 -21t29 -7.5t29 7.5t20.5 21t7.5 29.5t-7.5 29.5t-20.5 21t-29 7.5t-29 -7.5t-20.5 -21t-7.5 -29.5t7.5 -29.5zM211 -70v23h-37v16l37 21v26l-41 -24q-3 6 -7.5 10.5t-10.5 7t-13 2.5q-10 0 -18.5 -5
t-13 -13.5t-4.5 -19.5v-44h108zM103 56h108v-24h-108v24zM211 70v25l-20 7v43l20 8v26l-108 -44v-23zM211 192v66h-21v-42h-87v-24h108zM211 306v23h-41v38h-22v-38h-23v42h-22v-65h108zM211 515v23h-68l68 50v19h-108v-23h66l-66 -47v-22h108zM125 623v30h86v24h-86v30h-22
v-84h22zM127.5 456.5q4.5 7.5 12 12t17.5 4.5t18 -4.5t12.5 -12t4.5 -17.5q0 -9 -4.5 -17t-12.5 -12.5t-18 -4.5t-17.5 4.5t-12 12.5t-4.5 17q0 10 4.5 17.5zM124 -28q0 5 2 8.5t5 5.5t7 2t7.5 -2t5.5 -5.5t2 -8.5v-19h-29v19zM170 138v-28l-39 14z" />
    <glyph glyph-name="zdotaccent" unicode="&#x17c;" 
d="M125 -116h86v-24h-86v-30h-22v84h22v-30zM107.5 409.5q7.5 -13.5 20.5 -21t29 -7.5t29 7.5t20.5 21t7.5 29.5t-7.5 29.5t-20.5 21t-29 7.5t-29 -7.5t-20.5 -21t-7.5 -29.5t7.5 -29.5zM211 -70v23h-37v16l37 21v26l-41 -24q-3 6 -7.5 10.5t-10.5 7t-13 2.5q-10 0 -18.5 -5
t-13 -13.5t-4.5 -19.5v-44h108zM103 56h108v-24h-108v24zM211 70v25l-20 7v43l20 8v26l-108 -44v-23zM211 192v66h-21v-42h-87v-24h108zM211 306v23h-41v38h-22v-38h-23v42h-22v-65h108zM211 515v23h-68l68 50v19h-108v-23h66l-66 -47v-22h108zM125 623v30h86v24h-86v30h-22
v-84h22zM127.5 456.5q4.5 7.5 12 12t17.5 4.5t18 -4.5t12.5 -12t4.5 -17.5q0 -9 -4.5 -17t-12.5 -12.5t-18 -4.5t-17.5 4.5t-12 12.5t-4.5 17q0 10 4.5 17.5zM124 -28q0 5 2 8.5t5 5.5t7 2t7.5 -2t5.5 -5.5t2 -8.5v-19h-29v19zM170 138v-28l-39 14z" />
    <glyph glyph-name="germandbls.calt" 
d="M125 -116h86v-24h-86v-30h-22v84h22v-30zM107.5 409.5q7.5 -13.5 20.5 -21t29 -7.5t29 7.5t20.5 21t7.5 29.5t-7.5 29.5t-20.5 21t-29 7.5t-29 -7.5t-20.5 -21t-7.5 -29.5t7.5 -29.5zM211 -70v23h-37v16l37 21v26l-41 -24q-3 6 -7.5 10.5t-10.5 7t-13 2.5q-10 0 -18.5 -5
t-13 -13.5t-4.5 -19.5v-44h108zM103 56h108v-24h-108v24zM211 70v25l-20 7v43l20 8v26l-108 -44v-23zM211 192v66h-21v-42h-87v-24h108zM211 306v23h-41v38h-22v-38h-23v42h-22v-65h108zM211 515v23h-68l68 50v19h-108v-23h66l-66 -47v-22h108zM125 623v30h86v24h-86v30h-22
v-84h22zM127.5 456.5q4.5 7.5 12 12t17.5 4.5t18 -4.5t12.5 -12t4.5 -17.5q0 -9 -4.5 -17t-12.5 -12.5t-18 -4.5t-17.5 4.5t-12 12.5t-4.5 17q0 10 4.5 17.5zM124 -28q0 5 2 8.5t5 5.5t7 2t7.5 -2t5.5 -5.5t2 -8.5v-19h-29v19zM170 138v-28l-39 14z" />
    <glyph glyph-name="i.loclTRK" 
d="M125 -116h86v-24h-86v-30h-22v84h22v-30zM107.5 409.5q7.5 -13.5 20.5 -21t29 -7.5t29 7.5t20.5 21t7.5 29.5t-7.5 29.5t-20.5 21t-29 7.5t-29 -7.5t-20.5 -21t-7.5 -29.5t7.5 -29.5zM211 -70v23h-37v16l37 21v26l-41 -24q-3 6 -7.5 10.5t-10.5 7t-13 2.5q-10 0 -18.5 -5
t-13 -13.5t-4.5 -19.5v-44h108zM103 56h108v-24h-108v24zM211 70v25l-20 7v43l20 8v26l-108 -44v-23zM211 192v66h-21v-42h-87v-24h108zM211 306v23h-41v38h-22v-38h-23v42h-22v-65h108zM211 515v23h-68l68 50v19h-108v-23h66l-66 -47v-22h108zM125 623v30h86v24h-86v30h-22
v-84h22zM127.5 456.5q4.5 7.5 12 12t17.5 4.5t18 -4.5t12.5 -12t4.5 -17.5q0 -9 -4.5 -17t-12.5 -12.5t-18 -4.5t-17.5 4.5t-12 12.5t-4.5 17q0 10 4.5 17.5zM124 -28q0 5 2 8.5t5 5.5t7 2t7.5 -2t5.5 -5.5t2 -8.5v-19h-29v19zM170 138v-28l-39 14z" />
    <glyph glyph-name="a.ss01" 
d="M125 -116h86v-24h-86v-30h-22v84h22v-30zM107.5 409.5q7.5 -13.5 20.5 -21t29 -7.5t29 7.5t20.5 21t7.5 29.5t-7.5 29.5t-20.5 21t-29 7.5t-29 -7.5t-20.5 -21t-7.5 -29.5t7.5 -29.5zM211 -70v23h-37v16l37 21v26l-41 -24q-3 6 -7.5 10.5t-10.5 7t-13 2.5q-10 0 -18.5 -5
t-13 -13.5t-4.5 -19.5v-44h108zM103 56h108v-24h-108v24zM211 70v25l-20 7v43l20 8v26l-108 -44v-23zM211 192v66h-21v-42h-87v-24h108zM211 306v23h-41v38h-22v-38h-23v42h-22v-65h108zM211 515v23h-68l68 50v19h-108v-23h66l-66 -47v-22h108zM125 623v30h86v24h-86v30h-22
v-84h22zM127.5 456.5q4.5 7.5 12 12t17.5 4.5t18 -4.5t12.5 -12t4.5 -17.5q0 -9 -4.5 -17t-12.5 -12.5t-18 -4.5t-17.5 4.5t-12 12.5t-4.5 17q0 10 4.5 17.5zM124 -28q0 5 2 8.5t5 5.5t7 2t7.5 -2t5.5 -5.5t2 -8.5v-19h-29v19zM170 138v-28l-39 14z" />
    <glyph glyph-name="aacute.ss01" 
d="M125 -116h86v-24h-86v-30h-22v84h22v-30zM107.5 409.5q7.5 -13.5 20.5 -21t29 -7.5t29 7.5t20.5 21t7.5 29.5t-7.5 29.5t-20.5 21t-29 7.5t-29 -7.5t-20.5 -21t-7.5 -29.5t7.5 -29.5zM211 -70v23h-37v16l37 21v26l-41 -24q-3 6 -7.5 10.5t-10.5 7t-13 2.5q-10 0 -18.5 -5
t-13 -13.5t-4.5 -19.5v-44h108zM103 56h108v-24h-108v24zM211 70v25l-20 7v43l20 8v26l-108 -44v-23zM211 192v66h-21v-42h-87v-24h108zM211 306v23h-41v38h-22v-38h-23v42h-22v-65h108zM211 515v23h-68l68 50v19h-108v-23h66l-66 -47v-22h108zM125 623v30h86v24h-86v30h-22
v-84h22zM127.5 456.5q4.5 7.5 12 12t17.5 4.5t18 -4.5t12.5 -12t4.5 -17.5q0 -9 -4.5 -17t-12.5 -12.5t-18 -4.5t-17.5 4.5t-12 12.5t-4.5 17q0 10 4.5 17.5zM124 -28q0 5 2 8.5t5 5.5t7 2t7.5 -2t5.5 -5.5t2 -8.5v-19h-29v19zM170 138v-28l-39 14z" />
    <glyph glyph-name="abreve.ss01" 
d="M125 -116h86v-24h-86v-30h-22v84h22v-30zM107.5 409.5q7.5 -13.5 20.5 -21t29 -7.5t29 7.5t20.5 21t7.5 29.5t-7.5 29.5t-20.5 21t-29 7.5t-29 -7.5t-20.5 -21t-7.5 -29.5t7.5 -29.5zM211 -70v23h-37v16l37 21v26l-41 -24q-3 6 -7.5 10.5t-10.5 7t-13 2.5q-10 0 -18.5 -5
t-13 -13.5t-4.5 -19.5v-44h108zM103 56h108v-24h-108v24zM211 70v25l-20 7v43l20 8v26l-108 -44v-23zM211 192v66h-21v-42h-87v-24h108zM211 306v23h-41v38h-22v-38h-23v42h-22v-65h108zM211 515v23h-68l68 50v19h-108v-23h66l-66 -47v-22h108zM125 623v30h86v24h-86v30h-22
v-84h22zM127.5 456.5q4.5 7.5 12 12t17.5 4.5t18 -4.5t12.5 -12t4.5 -17.5q0 -9 -4.5 -17t-12.5 -12.5t-18 -4.5t-17.5 4.5t-12 12.5t-4.5 17q0 10 4.5 17.5zM124 -28q0 5 2 8.5t5 5.5t7 2t7.5 -2t5.5 -5.5t2 -8.5v-19h-29v19zM170 138v-28l-39 14z" />
    <glyph glyph-name="acircumflex.ss01" 
d="M125 -116h86v-24h-86v-30h-22v84h22v-30zM107.5 409.5q7.5 -13.5 20.5 -21t29 -7.5t29 7.5t20.5 21t7.5 29.5t-7.5 29.5t-20.5 21t-29 7.5t-29 -7.5t-20.5 -21t-7.5 -29.5t7.5 -29.5zM211 -70v23h-37v16l37 21v26l-41 -24q-3 6 -7.5 10.5t-10.5 7t-13 2.5q-10 0 -18.5 -5
t-13 -13.5t-4.5 -19.5v-44h108zM103 56h108v-24h-108v24zM211 70v25l-20 7v43l20 8v26l-108 -44v-23zM211 192v66h-21v-42h-87v-24h108zM211 306v23h-41v38h-22v-38h-23v42h-22v-65h108zM211 515v23h-68l68 50v19h-108v-23h66l-66 -47v-22h108zM125 623v30h86v24h-86v30h-22
v-84h22zM127.5 456.5q4.5 7.5 12 12t17.5 4.5t18 -4.5t12.5 -12t4.5 -17.5q0 -9 -4.5 -17t-12.5 -12.5t-18 -4.5t-17.5 4.5t-12 12.5t-4.5 17q0 10 4.5 17.5zM124 -28q0 5 2 8.5t5 5.5t7 2t7.5 -2t5.5 -5.5t2 -8.5v-19h-29v19zM170 138v-28l-39 14z" />
    <glyph glyph-name="adieresis.ss01" 
d="M125 -116h86v-24h-86v-30h-22v84h22v-30zM107.5 409.5q7.5 -13.5 20.5 -21t29 -7.5t29 7.5t20.5 21t7.5 29.5t-7.5 29.5t-20.5 21t-29 7.5t-29 -7.5t-20.5 -21t-7.5 -29.5t7.5 -29.5zM211 -70v23h-37v16l37 21v26l-41 -24q-3 6 -7.5 10.5t-10.5 7t-13 2.5q-10 0 -18.5 -5
t-13 -13.5t-4.5 -19.5v-44h108zM103 56h108v-24h-108v24zM211 70v25l-20 7v43l20 8v26l-108 -44v-23zM211 192v66h-21v-42h-87v-24h108zM211 306v23h-41v38h-22v-38h-23v42h-22v-65h108zM211 515v23h-68l68 50v19h-108v-23h66l-66 -47v-22h108zM125 623v30h86v24h-86v30h-22
v-84h22zM127.5 456.5q4.5 7.5 12 12t17.5 4.5t18 -4.5t12.5 -12t4.5 -17.5q0 -9 -4.5 -17t-12.5 -12.5t-18 -4.5t-17.5 4.5t-12 12.5t-4.5 17q0 10 4.5 17.5zM124 -28q0 5 2 8.5t5 5.5t7 2t7.5 -2t5.5 -5.5t2 -8.5v-19h-29v19zM170 138v-28l-39 14z" />
    <glyph glyph-name="agrave.ss01" 
d="M125 -116h86v-24h-86v-30h-22v84h22v-30zM107.5 409.5q7.5 -13.5 20.5 -21t29 -7.5t29 7.5t20.5 21t7.5 29.5t-7.5 29.5t-20.5 21t-29 7.5t-29 -7.5t-20.5 -21t-7.5 -29.5t7.5 -29.5zM211 -70v23h-37v16l37 21v26l-41 -24q-3 6 -7.5 10.5t-10.5 7t-13 2.5q-10 0 -18.5 -5
t-13 -13.5t-4.5 -19.5v-44h108zM103 56h108v-24h-108v24zM211 70v25l-20 7v43l20 8v26l-108 -44v-23zM211 192v66h-21v-42h-87v-24h108zM211 306v23h-41v38h-22v-38h-23v42h-22v-65h108zM211 515v23h-68l68 50v19h-108v-23h66l-66 -47v-22h108zM125 623v30h86v24h-86v30h-22
v-84h22zM127.5 456.5q4.5 7.5 12 12t17.5 4.5t18 -4.5t12.5 -12t4.5 -17.5q0 -9 -4.5 -17t-12.5 -12.5t-18 -4.5t-17.5 4.5t-12 12.5t-4.5 17q0 10 4.5 17.5zM124 -28q0 5 2 8.5t5 5.5t7 2t7.5 -2t5.5 -5.5t2 -8.5v-19h-29v19zM170 138v-28l-39 14z" />
    <glyph glyph-name="amacron.ss01" 
d="M125 -116h86v-24h-86v-30h-22v84h22v-30zM107.5 409.5q7.5 -13.5 20.5 -21t29 -7.5t29 7.5t20.5 21t7.5 29.5t-7.5 29.5t-20.5 21t-29 7.5t-29 -7.5t-20.5 -21t-7.5 -29.5t7.5 -29.5zM211 -70v23h-37v16l37 21v26l-41 -24q-3 6 -7.5 10.5t-10.5 7t-13 2.5q-10 0 -18.5 -5
t-13 -13.5t-4.5 -19.5v-44h108zM103 56h108v-24h-108v24zM211 70v25l-20 7v43l20 8v26l-108 -44v-23zM211 192v66h-21v-42h-87v-24h108zM211 306v23h-41v38h-22v-38h-23v42h-22v-65h108zM211 515v23h-68l68 50v19h-108v-23h66l-66 -47v-22h108zM125 623v30h86v24h-86v30h-22
v-84h22zM127.5 456.5q4.5 7.5 12 12t17.5 4.5t18 -4.5t12.5 -12t4.5 -17.5q0 -9 -4.5 -17t-12.5 -12.5t-18 -4.5t-17.5 4.5t-12 12.5t-4.5 17q0 10 4.5 17.5zM124 -28q0 5 2 8.5t5 5.5t7 2t7.5 -2t5.5 -5.5t2 -8.5v-19h-29v19zM170 138v-28l-39 14z" />
    <glyph glyph-name="aogonek.ss01" 
d="M125 -116h86v-24h-86v-30h-22v84h22v-30zM107.5 409.5q7.5 -13.5 20.5 -21t29 -7.5t29 7.5t20.5 21t7.5 29.5t-7.5 29.5t-20.5 21t-29 7.5t-29 -7.5t-20.5 -21t-7.5 -29.5t7.5 -29.5zM211 -70v23h-37v16l37 21v26l-41 -24q-3 6 -7.5 10.5t-10.5 7t-13 2.5q-10 0 -18.5 -5
t-13 -13.5t-4.5 -19.5v-44h108zM103 56h108v-24h-108v24zM211 70v25l-20 7v43l20 8v26l-108 -44v-23zM211 192v66h-21v-42h-87v-24h108zM211 306v23h-41v38h-22v-38h-23v42h-22v-65h108zM211 515v23h-68l68 50v19h-108v-23h66l-66 -47v-22h108zM125 623v30h86v24h-86v30h-22
v-84h22zM127.5 456.5q4.5 7.5 12 12t17.5 4.5t18 -4.5t12.5 -12t4.5 -17.5q0 -9 -4.5 -17t-12.5 -12.5t-18 -4.5t-17.5 4.5t-12 12.5t-4.5 17q0 10 4.5 17.5zM124 -28q0 5 2 8.5t5 5.5t7 2t7.5 -2t5.5 -5.5t2 -8.5v-19h-29v19zM170 138v-28l-39 14z" />
    <glyph glyph-name="aring.ss01" 
d="M125 -116h86v-24h-86v-30h-22v84h22v-30zM107.5 409.5q7.5 -13.5 20.5 -21t29 -7.5t29 7.5t20.5 21t7.5 29.5t-7.5 29.5t-20.5 21t-29 7.5t-29 -7.5t-20.5 -21t-7.5 -29.5t7.5 -29.5zM211 -70v23h-37v16l37 21v26l-41 -24q-3 6 -7.5 10.5t-10.5 7t-13 2.5q-10 0 -18.5 -5
t-13 -13.5t-4.5 -19.5v-44h108zM103 56h108v-24h-108v24zM211 70v25l-20 7v43l20 8v26l-108 -44v-23zM211 192v66h-21v-42h-87v-24h108zM211 306v23h-41v38h-22v-38h-23v42h-22v-65h108zM211 515v23h-68l68 50v19h-108v-23h66l-66 -47v-22h108zM125 623v30h86v24h-86v30h-22
v-84h22zM127.5 456.5q4.5 7.5 12 12t17.5 4.5t18 -4.5t12.5 -12t4.5 -17.5q0 -9 -4.5 -17t-12.5 -12.5t-18 -4.5t-17.5 4.5t-12 12.5t-4.5 17q0 10 4.5 17.5zM124 -28q0 5 2 8.5t5 5.5t7 2t7.5 -2t5.5 -5.5t2 -8.5v-19h-29v19zM170 138v-28l-39 14z" />
    <glyph glyph-name="atilde.ss01" 
d="M125 -116h86v-24h-86v-30h-22v84h22v-30zM107.5 409.5q7.5 -13.5 20.5 -21t29 -7.5t29 7.5t20.5 21t7.5 29.5t-7.5 29.5t-20.5 21t-29 7.5t-29 -7.5t-20.5 -21t-7.5 -29.5t7.5 -29.5zM211 -70v23h-37v16l37 21v26l-41 -24q-3 6 -7.5 10.5t-10.5 7t-13 2.5q-10 0 -18.5 -5
t-13 -13.5t-4.5 -19.5v-44h108zM103 56h108v-24h-108v24zM211 70v25l-20 7v43l20 8v26l-108 -44v-23zM211 192v66h-21v-42h-87v-24h108zM211 306v23h-41v38h-22v-38h-23v42h-22v-65h108zM211 515v23h-68l68 50v19h-108v-23h66l-66 -47v-22h108zM125 623v30h86v24h-86v30h-22
v-84h22zM127.5 456.5q4.5 7.5 12 12t17.5 4.5t18 -4.5t12.5 -12t4.5 -17.5q0 -9 -4.5 -17t-12.5 -12.5t-18 -4.5t-17.5 4.5t-12 12.5t-4.5 17q0 10 4.5 17.5zM124 -28q0 5 2 8.5t5 5.5t7 2t7.5 -2t5.5 -5.5t2 -8.5v-19h-29v19zM170 138v-28l-39 14z" />
    <glyph glyph-name="ae.ss01" 
d="M125 -116h86v-24h-86v-30h-22v84h22v-30zM107.5 409.5q7.5 -13.5 20.5 -21t29 -7.5t29 7.5t20.5 21t7.5 29.5t-7.5 29.5t-20.5 21t-29 7.5t-29 -7.5t-20.5 -21t-7.5 -29.5t7.5 -29.5zM211 -70v23h-37v16l37 21v26l-41 -24q-3 6 -7.5 10.5t-10.5 7t-13 2.5q-10 0 -18.5 -5
t-13 -13.5t-4.5 -19.5v-44h108zM103 56h108v-24h-108v24zM211 70v25l-20 7v43l20 8v26l-108 -44v-23zM211 192v66h-21v-42h-87v-24h108zM211 306v23h-41v38h-22v-38h-23v42h-22v-65h108zM211 515v23h-68l68 50v19h-108v-23h66l-66 -47v-22h108zM125 623v30h86v24h-86v30h-22
v-84h22zM127.5 456.5q4.5 7.5 12 12t17.5 4.5t18 -4.5t12.5 -12t4.5 -17.5q0 -9 -4.5 -17t-12.5 -12.5t-18 -4.5t-17.5 4.5t-12 12.5t-4.5 17q0 10 4.5 17.5zM124 -28q0 5 2 8.5t5 5.5t7 2t7.5 -2t5.5 -5.5t2 -8.5v-19h-29v19zM170 138v-28l-39 14z" />
    <glyph glyph-name="y.ss01" 
d="M125 -116h86v-24h-86v-30h-22v84h22v-30zM107.5 409.5q7.5 -13.5 20.5 -21t29 -7.5t29 7.5t20.5 21t7.5 29.5t-7.5 29.5t-20.5 21t-29 7.5t-29 -7.5t-20.5 -21t-7.5 -29.5t7.5 -29.5zM211 -70v23h-37v16l37 21v26l-41 -24q-3 6 -7.5 10.5t-10.5 7t-13 2.5q-10 0 -18.5 -5
t-13 -13.5t-4.5 -19.5v-44h108zM103 56h108v-24h-108v24zM211 70v25l-20 7v43l20 8v26l-108 -44v-23zM211 192v66h-21v-42h-87v-24h108zM211 306v23h-41v38h-22v-38h-23v42h-22v-65h108zM211 515v23h-68l68 50v19h-108v-23h66l-66 -47v-22h108zM125 623v30h86v24h-86v30h-22
v-84h22zM127.5 456.5q4.5 7.5 12 12t17.5 4.5t18 -4.5t12.5 -12t4.5 -17.5q0 -9 -4.5 -17t-12.5 -12.5t-18 -4.5t-17.5 4.5t-12 12.5t-4.5 17q0 10 4.5 17.5zM124 -28q0 5 2 8.5t5 5.5t7 2t7.5 -2t5.5 -5.5t2 -8.5v-19h-29v19zM170 138v-28l-39 14z" />
    <glyph glyph-name="yacute.ss01" 
d="M125 -116h86v-24h-86v-30h-22v84h22v-30zM107.5 409.5q7.5 -13.5 20.5 -21t29 -7.5t29 7.5t20.5 21t7.5 29.5t-7.5 29.5t-20.5 21t-29 7.5t-29 -7.5t-20.5 -21t-7.5 -29.5t7.5 -29.5zM211 -70v23h-37v16l37 21v26l-41 -24q-3 6 -7.5 10.5t-10.5 7t-13 2.5q-10 0 -18.5 -5
t-13 -13.5t-4.5 -19.5v-44h108zM103 56h108v-24h-108v24zM211 70v25l-20 7v43l20 8v26l-108 -44v-23zM211 192v66h-21v-42h-87v-24h108zM211 306v23h-41v38h-22v-38h-23v42h-22v-65h108zM211 515v23h-68l68 50v19h-108v-23h66l-66 -47v-22h108zM125 623v30h86v24h-86v30h-22
v-84h22zM127.5 456.5q4.5 7.5 12 12t17.5 4.5t18 -4.5t12.5 -12t4.5 -17.5q0 -9 -4.5 -17t-12.5 -12.5t-18 -4.5t-17.5 4.5t-12 12.5t-4.5 17q0 10 4.5 17.5zM124 -28q0 5 2 8.5t5 5.5t7 2t7.5 -2t5.5 -5.5t2 -8.5v-19h-29v19zM170 138v-28l-39 14z" />
    <glyph glyph-name="ycircumflex.ss01" 
d="M125 -116h86v-24h-86v-30h-22v84h22v-30zM107.5 409.5q7.5 -13.5 20.5 -21t29 -7.5t29 7.5t20.5 21t7.5 29.5t-7.5 29.5t-20.5 21t-29 7.5t-29 -7.5t-20.5 -21t-7.5 -29.5t7.5 -29.5zM211 -70v23h-37v16l37 21v26l-41 -24q-3 6 -7.5 10.5t-10.5 7t-13 2.5q-10 0 -18.5 -5
t-13 -13.5t-4.5 -19.5v-44h108zM103 56h108v-24h-108v24zM211 70v25l-20 7v43l20 8v26l-108 -44v-23zM211 192v66h-21v-42h-87v-24h108zM211 306v23h-41v38h-22v-38h-23v42h-22v-65h108zM211 515v23h-68l68 50v19h-108v-23h66l-66 -47v-22h108zM125 623v30h86v24h-86v30h-22
v-84h22zM127.5 456.5q4.5 7.5 12 12t17.5 4.5t18 -4.5t12.5 -12t4.5 -17.5q0 -9 -4.5 -17t-12.5 -12.5t-18 -4.5t-17.5 4.5t-12 12.5t-4.5 17q0 10 4.5 17.5zM124 -28q0 5 2 8.5t5 5.5t7 2t7.5 -2t5.5 -5.5t2 -8.5v-19h-29v19zM170 138v-28l-39 14z" />
    <glyph glyph-name="ydieresis.ss01" 
d="M125 -116h86v-24h-86v-30h-22v84h22v-30zM107.5 409.5q7.5 -13.5 20.5 -21t29 -7.5t29 7.5t20.5 21t7.5 29.5t-7.5 29.5t-20.5 21t-29 7.5t-29 -7.5t-20.5 -21t-7.5 -29.5t7.5 -29.5zM211 -70v23h-37v16l37 21v26l-41 -24q-3 6 -7.5 10.5t-10.5 7t-13 2.5q-10 0 -18.5 -5
t-13 -13.5t-4.5 -19.5v-44h108zM103 56h108v-24h-108v24zM211 70v25l-20 7v43l20 8v26l-108 -44v-23zM211 192v66h-21v-42h-87v-24h108zM211 306v23h-41v38h-22v-38h-23v42h-22v-65h108zM211 515v23h-68l68 50v19h-108v-23h66l-66 -47v-22h108zM125 623v30h86v24h-86v30h-22
v-84h22zM127.5 456.5q4.5 7.5 12 12t17.5 4.5t18 -4.5t12.5 -12t4.5 -17.5q0 -9 -4.5 -17t-12.5 -12.5t-18 -4.5t-17.5 4.5t-12 12.5t-4.5 17q0 10 4.5 17.5zM124 -28q0 5 2 8.5t5 5.5t7 2t7.5 -2t5.5 -5.5t2 -8.5v-19h-29v19zM170 138v-28l-39 14z" />
    <glyph glyph-name="ygrave.ss01" 
d="M125 -116h86v-24h-86v-30h-22v84h22v-30zM107.5 409.5q7.5 -13.5 20.5 -21t29 -7.5t29 7.5t20.5 21t7.5 29.5t-7.5 29.5t-20.5 21t-29 7.5t-29 -7.5t-20.5 -21t-7.5 -29.5t7.5 -29.5zM211 -70v23h-37v16l37 21v26l-41 -24q-3 6 -7.5 10.5t-10.5 7t-13 2.5q-10 0 -18.5 -5
t-13 -13.5t-4.5 -19.5v-44h108zM103 56h108v-24h-108v24zM211 70v25l-20 7v43l20 8v26l-108 -44v-23zM211 192v66h-21v-42h-87v-24h108zM211 306v23h-41v38h-22v-38h-23v42h-22v-65h108zM211 515v23h-68l68 50v19h-108v-23h66l-66 -47v-22h108zM125 623v30h86v24h-86v30h-22
v-84h22zM127.5 456.5q4.5 7.5 12 12t17.5 4.5t18 -4.5t12.5 -12t4.5 -17.5q0 -9 -4.5 -17t-12.5 -12.5t-18 -4.5t-17.5 4.5t-12 12.5t-4.5 17q0 10 4.5 17.5zM124 -28q0 5 2 8.5t5 5.5t7 2t7.5 -2t5.5 -5.5t2 -8.5v-19h-29v19zM170 138v-28l-39 14z" />
    <glyph glyph-name="ordfeminine" unicode="&#xaa;" 
d="M125 -116h86v-24h-86v-30h-22v84h22v-30zM107.5 409.5q7.5 -13.5 20.5 -21t29 -7.5t29 7.5t20.5 21t7.5 29.5t-7.5 29.5t-20.5 21t-29 7.5t-29 -7.5t-20.5 -21t-7.5 -29.5t7.5 -29.5zM211 -70v23h-37v16l37 21v26l-41 -24q-3 6 -7.5 10.5t-10.5 7t-13 2.5q-10 0 -18.5 -5
t-13 -13.5t-4.5 -19.5v-44h108zM103 56h108v-24h-108v24zM211 70v25l-20 7v43l20 8v26l-108 -44v-23zM211 192v66h-21v-42h-87v-24h108zM211 306v23h-41v38h-22v-38h-23v42h-22v-65h108zM211 515v23h-68l68 50v19h-108v-23h66l-66 -47v-22h108zM125 623v30h86v24h-86v30h-22
v-84h22zM127.5 456.5q4.5 7.5 12 12t17.5 4.5t18 -4.5t12.5 -12t4.5 -17.5q0 -9 -4.5 -17t-12.5 -12.5t-18 -4.5t-17.5 4.5t-12 12.5t-4.5 17q0 10 4.5 17.5zM124 -28q0 5 2 8.5t5 5.5t7 2t7.5 -2t5.5 -5.5t2 -8.5v-19h-29v19zM170 138v-28l-39 14z" />
    <glyph glyph-name="ordmasculine" unicode="&#xba;" 
d="M125 -116h86v-24h-86v-30h-22v84h22v-30zM107.5 409.5q7.5 -13.5 20.5 -21t29 -7.5t29 7.5t20.5 21t7.5 29.5t-7.5 29.5t-20.5 21t-29 7.5t-29 -7.5t-20.5 -21t-7.5 -29.5t7.5 -29.5zM211 -70v23h-37v16l37 21v26l-41 -24q-3 6 -7.5 10.5t-10.5 7t-13 2.5q-10 0 -18.5 -5
t-13 -13.5t-4.5 -19.5v-44h108zM103 56h108v-24h-108v24zM211 70v25l-20 7v43l20 8v26l-108 -44v-23zM211 192v66h-21v-42h-87v-24h108zM211 306v23h-41v38h-22v-38h-23v42h-22v-65h108zM211 515v23h-68l68 50v19h-108v-23h66l-66 -47v-22h108zM125 623v30h86v24h-86v30h-22
v-84h22zM127.5 456.5q4.5 7.5 12 12t17.5 4.5t18 -4.5t12.5 -12t4.5 -17.5q0 -9 -4.5 -17t-12.5 -12.5t-18 -4.5t-17.5 4.5t-12 12.5t-4.5 17q0 10 4.5 17.5zM124 -28q0 5 2 8.5t5 5.5t7 2t7.5 -2t5.5 -5.5t2 -8.5v-19h-29v19zM170 138v-28l-39 14z" />
    <glyph glyph-name="uni0410" unicode="&#x410;" horiz-adv-x="680" 
d="M256 700h167l257 -700h-178l-43 136h-242l-44 -136h-174zM417 267l-80 248l-79 -248h159z" />
    </font>
</defs>
</svg>
